<svg width="386" height="680" viewBox="0 0 386 680" fill="none" xmlns="http://www.w3.org/2000/svg">
<g clip-path="url(#clip0_14_3)">
<rect width="386" height="680" rx="40" fill="#4D3838"/>
<rect width="386" height="680" fill="#D2E0FF"/>
<mask id="path-3-inside-1_14_3" fill="white">
<path d="M0 580H386V680H0V580Z"/>
</mask>
<path d="M0 580H386V680H0V580Z" fill="#7EA0EA"/>
<path d="M0 580V581H386V580V579H0V580Z" fill="#06266B" mask="url(#path-3-inside-1_14_3)"/>
<rect x="18" y="301" width="350" height="240" rx="5" fill="#94D6FF"/>
<rect x="93.5" y="99.5" width="199" height="47" rx="23.5" fill="#D2E0FF" stroke="#06266B"/>
<rect x="40.5" y="176.5" width="69" height="89" rx="4.5" fill="url(#paint0_linear_14_3)" stroke="#06266B"/>
<path d="M63.284 203.576V212H61.232V206.948L59.348 212H57.692L55.796 206.936V212H53.744V203.576H56.168L58.532 209.408L60.872 203.576H63.284ZM67.8076 212.096C67.1516 212.096 66.5596 211.956 66.0316 211.676C65.5116 211.396 65.0996 210.996 64.7956 210.476C64.4996 209.956 64.3516 209.348 64.3516 208.652C64.3516 207.964 64.5036 207.36 64.8076 206.84C65.1116 206.312 65.5276 205.908 66.0556 205.628C66.5836 205.348 67.1756 205.208 67.8316 205.208C68.4876 205.208 69.0796 205.348 69.6076 205.628C70.1356 205.908 70.5516 206.312 70.8556 206.84C71.1596 207.36 71.3116 207.964 71.3116 208.652C71.3116 209.34 71.1556 209.948 70.8436 210.476C70.5396 210.996 70.1196 211.396 69.5836 211.676C69.0556 211.956 68.4636 212.096 67.8076 212.096ZM67.8076 210.32C68.1996 210.32 68.5316 210.176 68.8036 209.888C69.0836 209.6 69.2236 209.188 69.2236 208.652C69.2236 208.116 69.0876 207.704 68.8156 207.416C68.5516 207.128 68.2236 206.984 67.8316 206.984C67.4316 206.984 67.0996 207.128 66.8356 207.416C66.5716 207.696 66.4396 208.108 66.4396 208.652C66.4396 209.188 66.5676 209.6 66.8236 209.888C67.0876 210.176 67.4156 210.32 67.8076 210.32ZM71.9923 208.64C71.9923 207.952 72.1203 207.348 72.3763 206.828C72.6403 206.308 72.9963 205.908 73.4443 205.628C73.8923 205.348 74.3923 205.208 74.9443 205.208C75.3843 205.208 75.7843 205.3 76.1443 205.484C76.5123 205.668 76.8003 205.916 77.0083 206.228V203.12H79.0603V212H77.0083V211.04C76.8163 211.36 76.5403 211.616 76.1803 211.808C75.8283 212 75.4163 212.096 74.9443 212.096C74.3923 212.096 73.8923 211.956 73.4443 211.676C72.9963 211.388 72.6403 210.984 72.3763 210.464C72.1203 209.936 71.9923 209.328 71.9923 208.64ZM77.0083 208.652C77.0083 208.14 76.8643 207.736 76.5763 207.44C76.2963 207.144 75.9523 206.996 75.5443 206.996C75.1363 206.996 74.7883 207.144 74.5003 207.44C74.2203 207.728 74.0803 208.128 74.0803 208.64C74.0803 209.152 74.2203 209.56 74.5003 209.864C74.7883 210.16 75.1363 210.308 75.5443 210.308C75.9523 210.308 76.2963 210.16 76.5763 209.864C76.8643 209.568 77.0083 209.164 77.0083 208.652ZM86.8568 208.544C86.8568 208.736 86.8448 208.936 86.8208 209.144H82.1768C82.2088 209.56 82.3408 209.88 82.5728 210.104C82.8128 210.32 83.1048 210.428 83.4488 210.428C83.9608 210.428 84.3168 210.212 84.5168 209.78H86.7008C86.5888 210.22 86.3848 210.616 86.0888 210.968C85.8008 211.32 85.4368 211.596 84.9968 211.796C84.5568 211.996 84.0648 212.096 83.5208 212.096C82.8648 212.096 82.2808 211.956 81.7688 211.676C81.2568 211.396 80.8568 210.996 80.5688 210.476C80.2808 209.956 80.1368 209.348 80.1368 208.652C80.1368 207.956 80.2768 207.348 80.5568 206.828C80.8448 206.308 81.2448 205.908 81.7568 205.628C82.2688 205.348 82.8568 205.208 83.5208 205.208C84.1688 205.208 84.7448 205.344 85.2488 205.616C85.7528 205.888 86.1448 206.276 86.4248 206.78C86.7128 207.284 86.8568 207.872 86.8568 208.544ZM84.7568 208.004C84.7568 207.652 84.6368 207.372 84.3968 207.164C84.1568 206.956 83.8568 206.852 83.4968 206.852C83.1528 206.852 82.8608 206.952 82.6208 207.152C82.3888 207.352 82.2448 207.636 82.1888 208.004H84.7568ZM89.9913 203.12V212H87.9393V203.12H89.9913ZM94.5264 212.096C93.8704 212.096 93.2784 211.956 92.7504 211.676C92.2304 211.396 91.8184 210.996 91.5144 210.476C91.2184 209.956 91.0704 209.348 91.0704 208.652C91.0704 207.964 91.2224 207.36 91.5264 206.84C91.8304 206.312 92.2464 205.908 92.7744 205.628C93.3024 205.348 93.8944 205.208 94.5504 205.208C95.2064 205.208 95.7984 205.348 96.3264 205.628C96.8544 205.908 97.2704 206.312 97.5744 206.84C97.8784 207.36 98.0304 207.964 98.0304 208.652C98.0304 209.34 97.8744 209.948 97.5624 210.476C97.2584 210.996 96.8384 211.396 96.3024 211.676C95.7744 211.956 95.1824 212.096 94.5264 212.096ZM94.5264 210.32C94.9184 210.32 95.2504 210.176 95.5224 209.888C95.8024 209.6 95.9424 209.188 95.9424 208.652C95.9424 208.116 95.8064 207.704 95.5344 207.416C95.2704 207.128 94.9424 206.984 94.5504 206.984C94.1504 206.984 93.8184 207.128 93.5544 207.416C93.2904 207.696 93.1584 208.108 93.1584 208.652C93.1584 209.188 93.2864 209.6 93.5424 209.888C93.8064 210.176 94.1344 210.32 94.5264 210.32Z" fill="black"/>
<rect x="159.5" y="176.5" width="69" height="89" rx="4.5" fill="url(#paint1_linear_14_3)" stroke="#06266B"/>
<path d="M166.04 212L164.288 208.82H163.796V212H161.744V203.576H165.188C165.852 203.576 166.416 203.692 166.88 203.924C167.352 204.156 167.704 204.476 167.936 204.884C168.168 205.284 168.284 205.732 168.284 206.228C168.284 206.788 168.124 207.288 167.804 207.728C167.492 208.168 167.028 208.48 166.412 208.664L168.356 212H166.04ZM163.796 207.368H165.068C165.444 207.368 165.724 207.276 165.908 207.092C166.1 206.908 166.196 206.648 166.196 206.312C166.196 205.992 166.1 205.74 165.908 205.556C165.724 205.372 165.444 205.28 165.068 205.28H163.796V207.368ZM175.884 208.544C175.884 208.736 175.872 208.936 175.848 209.144H171.204C171.236 209.56 171.368 209.88 171.6 210.104C171.84 210.32 172.132 210.428 172.476 210.428C172.988 210.428 173.344 210.212 173.544 209.78H175.728C175.616 210.22 175.412 210.616 175.116 210.968C174.828 211.32 174.464 211.596 174.024 211.796C173.584 211.996 173.092 212.096 172.548 212.096C171.892 212.096 171.308 211.956 170.796 211.676C170.284 211.396 169.884 210.996 169.596 210.476C169.308 209.956 169.164 209.348 169.164 208.652C169.164 207.956 169.304 207.348 169.584 206.828C169.872 206.308 170.272 205.908 170.784 205.628C171.296 205.348 171.884 205.208 172.548 205.208C173.196 205.208 173.772 205.344 174.276 205.616C174.78 205.888 175.172 206.276 175.452 206.78C175.74 207.284 175.884 207.872 175.884 208.544ZM173.784 208.004C173.784 207.652 173.664 207.372 173.424 207.164C173.184 206.956 172.884 206.852 172.524 206.852C172.18 206.852 171.888 206.952 171.648 207.152C171.416 207.352 171.272 207.636 171.216 208.004H173.784ZM180.327 207.008H179.223V212H177.171V207.008H176.427V205.304H177.171V205.112C177.171 204.288 177.407 203.664 177.879 203.24C178.351 202.808 179.043 202.592 179.955 202.592C180.107 202.592 180.219 202.596 180.291 202.604V204.344C179.899 204.32 179.623 204.376 179.463 204.512C179.303 204.648 179.223 204.892 179.223 205.244V205.304H180.327V207.008ZM187.603 208.544C187.603 208.736 187.591 208.936 187.567 209.144H182.923C182.955 209.56 183.087 209.88 183.319 210.104C183.559 210.32 183.851 210.428 184.195 210.428C184.707 210.428 185.063 210.212 185.263 209.78H187.447C187.335 210.22 187.131 210.616 186.835 210.968C186.547 211.32 186.183 211.596 185.743 211.796C185.303 211.996 184.811 212.096 184.267 212.096C183.611 212.096 183.027 211.956 182.515 211.676C182.003 211.396 181.603 210.996 181.315 210.476C181.027 209.956 180.883 209.348 180.883 208.652C180.883 207.956 181.023 207.348 181.303 206.828C181.591 206.308 181.991 205.908 182.503 205.628C183.015 205.348 183.603 205.208 184.267 205.208C184.915 205.208 185.491 205.344 185.995 205.616C186.499 205.888 186.891 206.276 187.171 206.78C187.459 207.284 187.603 207.872 187.603 208.544ZM185.503 208.004C185.503 207.652 185.383 207.372 185.143 207.164C184.903 206.956 184.603 206.852 184.243 206.852C183.899 206.852 183.607 206.952 183.367 207.152C183.135 207.352 182.991 207.636 182.935 208.004H185.503ZM190.737 206.42C190.977 206.052 191.277 205.764 191.637 205.556C191.997 205.34 192.397 205.232 192.837 205.232V207.404H192.273C191.761 207.404 191.377 207.516 191.121 207.74C190.865 207.956 190.737 208.34 190.737 208.892V212H188.685V205.304H190.737V206.42ZM200.13 208.544C200.13 208.736 200.118 208.936 200.094 209.144H195.45C195.482 209.56 195.614 209.88 195.846 210.104C196.086 210.32 196.378 210.428 196.722 210.428C197.234 210.428 197.59 210.212 197.79 209.78H199.974C199.862 210.22 199.658 210.616 199.362 210.968C199.074 211.32 198.71 211.596 198.27 211.796C197.83 211.996 197.338 212.096 196.794 212.096C196.138 212.096 195.554 211.956 195.042 211.676C194.53 211.396 194.13 210.996 193.842 210.476C193.554 209.956 193.41 209.348 193.41 208.652C193.41 207.956 193.55 207.348 193.83 206.828C194.118 206.308 194.518 205.908 195.03 205.628C195.542 205.348 196.13 205.208 196.794 205.208C197.442 205.208 198.018 205.344 198.522 205.616C199.026 205.888 199.418 206.276 199.698 206.78C199.986 207.284 200.13 207.872 200.13 208.544ZM198.03 208.004C198.03 207.652 197.91 207.372 197.67 207.164C197.43 206.956 197.13 206.852 196.77 206.852C196.426 206.852 196.134 206.952 195.894 207.152C195.662 207.352 195.518 207.636 195.462 208.004H198.03ZM205.293 205.232C206.077 205.232 206.701 205.488 207.165 206C207.637 206.504 207.873 207.2 207.873 208.088V212H205.833V208.364C205.833 207.916 205.717 207.568 205.485 207.32C205.253 207.072 204.941 206.948 204.549 206.948C204.157 206.948 203.845 207.072 203.613 207.32C203.381 207.568 203.265 207.916 203.265 208.364V212H201.213V205.304H203.265V206.192C203.473 205.896 203.753 205.664 204.105 205.496C204.457 205.32 204.853 205.232 205.293 205.232ZM208.891 208.652C208.891 207.956 209.031 207.348 209.311 206.828C209.599 206.308 209.995 205.908 210.499 205.628C211.011 205.348 211.595 205.208 212.251 205.208C213.091 205.208 213.791 205.428 214.351 205.868C214.919 206.308 215.291 206.928 215.467 207.728H213.283C213.099 207.216 212.743 206.96 212.215 206.96C211.839 206.96 211.539 207.108 211.315 207.404C211.091 207.692 210.979 208.108 210.979 208.652C210.979 209.196 211.091 209.616 211.315 209.912C211.539 210.2 211.839 210.344 212.215 210.344C212.743 210.344 213.099 210.088 213.283 209.576H215.467C215.291 210.36 214.919 210.976 214.351 211.424C213.783 211.872 213.083 212.096 212.251 212.096C211.595 212.096 211.011 211.956 210.499 211.676C209.995 211.396 209.599 210.996 209.311 210.476C209.031 209.956 208.891 209.348 208.891 208.652ZM217.596 204.608C217.236 204.608 216.94 204.504 216.708 204.296C216.484 204.08 216.372 203.816 216.372 203.504C216.372 203.184 216.484 202.92 216.708 202.712C216.94 202.496 217.236 202.388 217.596 202.388C217.948 202.388 218.236 202.496 218.46 202.712C218.692 202.92 218.808 203.184 218.808 203.504C218.808 203.816 218.692 204.08 218.46 204.296C218.236 204.504 217.948 204.608 217.596 204.608ZM218.616 205.304V212H216.564V205.304H218.616ZM219.695 208.64C219.695 207.952 219.823 207.348 220.079 206.828C220.343 206.308 220.699 205.908 221.147 205.628C221.595 205.348 222.095 205.208 222.647 205.208C223.119 205.208 223.531 205.304 223.883 205.496C224.243 205.688 224.519 205.94 224.711 206.252V205.304H226.763V212H224.711V211.052C224.511 211.364 224.231 211.616 223.871 211.808C223.519 212 223.107 212.096 222.635 212.096C222.091 212.096 221.595 211.956 221.147 211.676C220.699 211.388 220.343 210.984 220.079 210.464C219.823 209.936 219.695 209.328 219.695 208.64ZM224.711 208.652C224.711 208.14 224.567 207.736 224.279 207.44C223.999 207.144 223.655 206.996 223.247 206.996C222.839 206.996 222.491 207.144 222.203 207.44C221.923 207.728 221.783 208.128 221.783 208.64C221.783 209.152 221.923 209.56 222.203 209.864C222.491 210.16 222.839 210.308 223.247 210.308C223.655 210.308 223.999 210.16 224.279 209.864C224.567 209.568 224.711 209.164 224.711 208.652Z" fill="black"/>
<rect x="278.5" y="176.5" width="69" height="89" rx="4.5" fill="url(#paint2_linear_14_3)" stroke="#06266B"/>
<path d="M296.396 207.776C296.396 206.944 296.576 206.204 296.936 205.556C297.296 204.9 297.796 204.392 298.436 204.032C299.084 203.664 299.816 203.48 300.632 203.48C301.632 203.48 302.488 203.744 303.2 204.272C303.912 204.8 304.388 205.52 304.628 206.432H302.372C302.204 206.08 301.964 205.812 301.652 205.628C301.348 205.444 301 205.352 300.608 205.352C299.976 205.352 299.464 205.572 299.072 206.012C298.68 206.452 298.484 207.04 298.484 207.776C298.484 208.512 298.68 209.1 299.072 209.54C299.464 209.98 299.976 210.2 300.608 210.2C301 210.2 301.348 210.108 301.652 209.924C301.964 209.74 302.204 209.472 302.372 209.12H304.628C304.388 210.032 303.912 210.752 303.2 211.28C302.488 211.8 301.632 212.06 300.632 212.06C299.816 212.06 299.084 211.88 298.436 211.52C297.796 211.152 297.296 210.644 296.936 209.996C296.576 209.348 296.396 208.608 296.396 207.776ZM308.933 212.096C308.277 212.096 307.685 211.956 307.157 211.676C306.637 211.396 306.225 210.996 305.921 210.476C305.625 209.956 305.477 209.348 305.477 208.652C305.477 207.964 305.629 207.36 305.933 206.84C306.237 206.312 306.653 205.908 307.181 205.628C307.709 205.348 308.301 205.208 308.957 205.208C309.613 205.208 310.205 205.348 310.733 205.628C311.261 205.908 311.677 206.312 311.981 206.84C312.285 207.36 312.437 207.964 312.437 208.652C312.437 209.34 312.281 209.948 311.969 210.476C311.665 210.996 311.245 211.396 310.709 211.676C310.181 211.956 309.589 212.096 308.933 212.096ZM308.933 210.32C309.325 210.32 309.657 210.176 309.929 209.888C310.209 209.6 310.349 209.188 310.349 208.652C310.349 208.116 310.213 207.704 309.941 207.416C309.677 207.128 309.349 206.984 308.957 206.984C308.557 206.984 308.225 207.128 307.961 207.416C307.697 207.696 307.565 208.108 307.565 208.652C307.565 209.188 307.693 209.6 307.949 209.888C308.213 210.176 308.541 210.32 308.933 210.32ZM315.577 203.12V212H313.525V203.12H315.577ZM320.112 212.096C319.456 212.096 318.864 211.956 318.336 211.676C317.816 211.396 317.404 210.996 317.1 210.476C316.804 209.956 316.656 209.348 316.656 208.652C316.656 207.964 316.808 207.36 317.112 206.84C317.416 206.312 317.832 205.908 318.36 205.628C318.888 205.348 319.48 205.208 320.136 205.208C320.792 205.208 321.384 205.348 321.912 205.628C322.44 205.908 322.856 206.312 323.16 206.84C323.464 207.36 323.616 207.964 323.616 208.652C323.616 209.34 323.46 209.948 323.148 210.476C322.844 210.996 322.424 211.396 321.888 211.676C321.36 211.956 320.768 212.096 320.112 212.096ZM320.112 210.32C320.504 210.32 320.836 210.176 321.108 209.888C321.388 209.6 321.528 209.188 321.528 208.652C321.528 208.116 321.392 207.704 321.12 207.416C320.856 207.128 320.528 206.984 320.136 206.984C319.736 206.984 319.404 207.128 319.14 207.416C318.876 207.696 318.744 208.108 318.744 208.652C318.744 209.188 318.872 209.6 319.128 209.888C319.392 210.176 319.72 210.32 320.112 210.32ZM326.757 206.42C326.997 206.052 327.297 205.764 327.657 205.556C328.017 205.34 328.417 205.232 328.857 205.232V207.404H328.293C327.781 207.404 327.397 207.516 327.141 207.74C326.885 207.956 326.757 208.34 326.757 208.892V212H324.705V205.304H326.757V206.42Z" fill="black"/>
<rect x="163.5" y="22.5" width="59" height="59" rx="4.5" stroke="black"/>
<path d="M220.188 48.25C219.836 47.6641 216.366 46.1652 216.366 46.1652C216.97 45.8535 217.382 45.7891 217.382 44.5C217.382 43.0938 217.375 42.625 216.438 42.625H213.257C213.244 42.5969 213.23 42.5676 213.217 42.5383C211.164 38.0547 210.889 36.9215 207.827 35.3957C203.719 33.3531 196.019 33.25 193 33.25C189.981 33.25 182.281 33.3531 178.177 35.3957C175.111 36.9191 175.188 37.7031 172.786 42.5383C172.786 42.5512 172.762 42.5852 172.739 42.625H169.555C168.625 42.625 168.618 43.0938 168.618 44.5C168.618 45.7891 169.03 45.8535 169.634 46.1652C169.634 46.1652 166.281 47.7812 165.812 48.25C165.344 48.7188 164.875 52 164.875 57.625C164.875 63.25 165.344 68.875 165.344 68.875H166.743C166.743 70.5156 166.984 70.75 167.688 70.75H177.062C177.766 70.75 178 70.5156 178 68.875H208C208 70.5156 208.234 70.75 208.938 70.75H218.547C219.016 70.75 219.25 70.3984 219.25 68.875H220.656C220.656 68.875 221.125 63.1328 221.125 57.625C221.125 52.1172 220.539 48.8359 220.188 48.25ZM177.679 53.5164C175.545 53.7497 173.399 53.8694 171.252 53.875C168.859 53.875 168.777 54.0285 168.609 52.5344C168.545 51.8505 168.565 51.1614 168.668 50.4824L168.742 50.125H169.094C170.5 50.125 171.821 50.1848 174.314 50.9195C175.583 51.3001 176.776 51.8972 177.841 52.6844C178.352 53.0547 178.469 53.4062 178.469 53.4062L177.679 53.5164ZM206.643 61.9539L206.125 63.25H179.875C179.875 63.25 179.921 63.1785 179.289 61.9398C178.82 61.0234 179.406 60.4375 180.333 60.1047C182.129 59.4578 187.375 57.625 193 57.625C198.625 57.625 203.976 59.2047 205.715 60.1047C206.359 60.4375 207.16 60.6719 206.643 61.9609V61.9539ZM176.526 45.9543C176.147 45.9762 175.768 45.9789 175.389 45.9625C175.695 45.4187 175.865 44.8129 176.164 44.1801C177.101 42.1879 178.173 39.9332 180.082 38.9828C182.841 37.6094 188.559 36.9906 193 36.9906C197.441 36.9906 203.159 37.6047 205.918 38.9828C207.827 39.9332 208.894 42.1891 209.836 44.1801C210.138 44.8188 210.305 45.4293 210.619 45.9766C210.385 45.9895 210.115 45.9766 209.472 45.9543H176.526ZM217.274 52.5297C217.023 53.9922 217.258 53.875 214.748 53.875C212.601 53.8694 210.455 53.7497 208.321 53.5164C207.987 53.4566 207.892 52.893 208.159 52.6844C209.219 51.8884 210.413 51.2905 211.686 50.9195C214.179 50.1848 215.583 50.0863 216.97 50.1355C217.063 50.1391 217.151 50.177 217.218 50.2419C217.285 50.3068 217.325 50.3941 217.332 50.4871C217.398 51.1693 217.379 51.857 217.274 52.5344V52.5297Z" fill="black"/>
</g>
<defs>
<linearGradient id="paint0_linear_14_3" x1="75" y1="266" x2="75" y2="176" gradientUnits="userSpaceOnUse">
<stop stop-color="#06266B"/>
<stop offset="1" stop-color="#D2E0FF"/>
</linearGradient>
<linearGradient id="paint1_linear_14_3" x1="194" y1="266" x2="194" y2="176" gradientUnits="userSpaceOnUse">
<stop stop-color="#06266B"/>
<stop offset="1" stop-color="#D2E0FF"/>
</linearGradient>
<linearGradient id="paint2_linear_14_3" x1="313" y1="266" x2="313" y2="176" gradientUnits="userSpaceOnUse">
<stop stop-color="#06266B"/>
<stop offset="1" stop-color="#D2E0FF"/>
</linearGradient>
<clipPath id="clip0_14_3">
<rect width="386" height="680" rx="40" fill="white"/>
</clipPath>
</defs>
</svg>
