<svg width="60" height="56" viewBox="0 0 60 56" fill="none" xmlns="http://www.w3.org/2000/svg">
<rect x="0.5" y="0.5" width="59" height="55" rx="4.5" fill="url(#paint0_linear_7_282)" stroke="#5D75AA"/>
<mask id="path-2-outside-1_7_282" maskUnits="userSpaceOnUse" x="13" y="24" width="29" height="15" fill="black">
<rect fill="white" x="13" y="24" width="29" height="15"/>
<path d="M17.504 34.084C16.952 34.084 16.464 33.988 16.04 33.796C15.624 33.604 15.296 33.336 15.056 32.992C14.816 32.648 14.688 32.264 14.672 31.84H15.56C15.6 32.248 15.78 32.608 16.1 32.92C16.42 33.224 16.888 33.376 17.504 33.376C18.072 33.376 18.52 33.232 18.848 32.944C19.184 32.648 19.352 32.276 19.352 31.828C19.352 31.468 19.26 31.18 19.076 30.964C18.892 30.74 18.664 30.576 18.392 30.472C18.12 30.36 17.744 30.24 17.264 30.112C16.704 29.96 16.26 29.812 15.932 29.668C15.604 29.524 15.324 29.3 15.092 28.996C14.86 28.692 14.744 28.28 14.744 27.76C14.744 27.328 14.856 26.944 15.08 26.608C15.304 26.264 15.62 25.996 16.028 25.804C16.436 25.612 16.904 25.516 17.432 25.516C18.208 25.516 18.832 25.708 19.304 26.092C19.784 26.468 20.06 26.956 20.132 27.556H19.22C19.164 27.212 18.976 26.908 18.656 26.644C18.336 26.372 17.904 26.236 17.36 26.236C16.856 26.236 16.436 26.372 16.1 26.644C15.764 26.908 15.596 27.272 15.596 27.736C15.596 28.088 15.688 28.372 15.872 28.588C16.056 28.804 16.284 28.968 16.556 29.08C16.836 29.192 17.212 29.312 17.684 29.44C18.228 29.592 18.668 29.744 19.004 29.896C19.34 30.04 19.624 30.264 19.856 30.568C20.088 30.872 20.204 31.28 20.204 31.792C20.204 32.184 20.1 32.556 19.892 32.908C19.684 33.26 19.376 33.544 18.968 33.76C18.56 33.976 18.072 34.084 17.504 34.084ZM22.9192 28.156V32.224C22.9192 32.624 22.9952 32.9 23.1472 33.052C23.2992 33.204 23.5672 33.28 23.9512 33.28H24.7192V34H23.8192C23.2272 34 22.7872 33.864 22.4992 33.592C22.2112 33.312 22.0672 32.856 22.0672 32.224V28.156H21.1552V27.448H22.0672V25.804H22.9192V27.448H24.7192V28.156H22.9192ZM28.9725 34.096C28.3565 34.096 27.8005 33.96 27.3045 33.688C26.8165 33.408 26.4285 33.016 26.1405 32.512C25.8605 32 25.7205 31.404 25.7205 30.724C25.7205 30.044 25.8645 29.452 26.1525 28.948C26.4405 28.436 26.8325 28.044 27.3285 27.772C27.8245 27.492 28.3805 27.352 28.9965 27.352C29.6125 27.352 30.1685 27.492 30.6645 27.772C31.1685 28.044 31.5605 28.436 31.8405 28.948C32.1285 29.452 32.2725 30.044 32.2725 30.724C32.2725 31.396 32.1285 31.988 31.8405 32.5C31.5525 33.012 31.1565 33.408 30.6525 33.688C30.1485 33.96 29.5885 34.096 28.9725 34.096ZM28.9725 33.364C29.4045 33.364 29.8045 33.268 30.1725 33.076C30.5405 32.876 30.8365 32.58 31.0605 32.188C31.2925 31.788 31.4085 31.3 31.4085 30.724C31.4085 30.148 31.2965 29.664 31.0725 29.272C30.8485 28.872 30.5525 28.576 30.1845 28.384C29.8165 28.184 29.4165 28.084 28.9845 28.084C28.5525 28.084 28.1525 28.184 27.7845 28.384C27.4165 28.576 27.1205 28.872 26.8965 29.272C26.6805 29.664 26.5725 30.148 26.5725 30.724C26.5725 31.3 26.6805 31.788 26.8965 32.188C27.1205 32.58 27.4125 32.876 27.7725 33.076C28.1405 33.268 28.5405 33.364 28.9725 33.364ZM34.6318 28.888C34.8398 28.448 35.1678 28.084 35.6158 27.796C36.0718 27.5 36.6118 27.352 37.2358 27.352C37.8278 27.352 38.3598 27.492 38.8318 27.772C39.3118 28.044 39.6838 28.436 39.9478 28.948C40.2198 29.452 40.3558 30.04 40.3558 30.712C40.3558 31.384 40.2198 31.976 39.9478 32.488C39.6838 33 39.3118 33.396 38.8318 33.676C38.3598 33.956 37.8278 34.096 37.2358 34.096C36.6198 34.096 36.0838 33.952 35.6278 33.664C35.1718 33.368 34.8398 33 34.6318 32.56V37.096H33.8038V27.448H34.6318V28.888ZM39.5038 30.712C39.5038 30.168 39.3958 29.7 39.1797 29.308C38.9718 28.908 38.6838 28.604 38.3158 28.396C37.9478 28.188 37.5318 28.084 37.0678 28.084C36.6198 28.084 36.2078 28.192 35.8318 28.408C35.4638 28.624 35.1718 28.932 34.9558 29.332C34.7398 29.732 34.6318 30.196 34.6318 30.724C34.6318 31.252 34.7398 31.716 34.9558 32.116C35.1718 32.516 35.4638 32.824 35.8318 33.04C36.2078 33.256 36.6198 33.364 37.0678 33.364C37.5318 33.364 37.9478 33.26 38.3158 33.052C38.6838 32.836 38.9718 32.528 39.1797 32.128C39.3958 31.72 39.5038 31.248 39.5038 30.712Z"/>
</mask>
<path d="M17.504 34.084C16.952 34.084 16.464 33.988 16.04 33.796C15.624 33.604 15.296 33.336 15.056 32.992C14.816 32.648 14.688 32.264 14.672 31.84H15.56C15.6 32.248 15.78 32.608 16.1 32.92C16.42 33.224 16.888 33.376 17.504 33.376C18.072 33.376 18.52 33.232 18.848 32.944C19.184 32.648 19.352 32.276 19.352 31.828C19.352 31.468 19.26 31.18 19.076 30.964C18.892 30.74 18.664 30.576 18.392 30.472C18.12 30.36 17.744 30.24 17.264 30.112C16.704 29.96 16.26 29.812 15.932 29.668C15.604 29.524 15.324 29.3 15.092 28.996C14.86 28.692 14.744 28.28 14.744 27.76C14.744 27.328 14.856 26.944 15.08 26.608C15.304 26.264 15.62 25.996 16.028 25.804C16.436 25.612 16.904 25.516 17.432 25.516C18.208 25.516 18.832 25.708 19.304 26.092C19.784 26.468 20.06 26.956 20.132 27.556H19.22C19.164 27.212 18.976 26.908 18.656 26.644C18.336 26.372 17.904 26.236 17.36 26.236C16.856 26.236 16.436 26.372 16.1 26.644C15.764 26.908 15.596 27.272 15.596 27.736C15.596 28.088 15.688 28.372 15.872 28.588C16.056 28.804 16.284 28.968 16.556 29.08C16.836 29.192 17.212 29.312 17.684 29.44C18.228 29.592 18.668 29.744 19.004 29.896C19.34 30.04 19.624 30.264 19.856 30.568C20.088 30.872 20.204 31.28 20.204 31.792C20.204 32.184 20.1 32.556 19.892 32.908C19.684 33.26 19.376 33.544 18.968 33.76C18.56 33.976 18.072 34.084 17.504 34.084ZM22.9192 28.156V32.224C22.9192 32.624 22.9952 32.9 23.1472 33.052C23.2992 33.204 23.5672 33.28 23.9512 33.28H24.7192V34H23.8192C23.2272 34 22.7872 33.864 22.4992 33.592C22.2112 33.312 22.0672 32.856 22.0672 32.224V28.156H21.1552V27.448H22.0672V25.804H22.9192V27.448H24.7192V28.156H22.9192ZM28.9725 34.096C28.3565 34.096 27.8005 33.96 27.3045 33.688C26.8165 33.408 26.4285 33.016 26.1405 32.512C25.8605 32 25.7205 31.404 25.7205 30.724C25.7205 30.044 25.8645 29.452 26.1525 28.948C26.4405 28.436 26.8325 28.044 27.3285 27.772C27.8245 27.492 28.3805 27.352 28.9965 27.352C29.6125 27.352 30.1685 27.492 30.6645 27.772C31.1685 28.044 31.5605 28.436 31.8405 28.948C32.1285 29.452 32.2725 30.044 32.2725 30.724C32.2725 31.396 32.1285 31.988 31.8405 32.5C31.5525 33.012 31.1565 33.408 30.6525 33.688C30.1485 33.96 29.5885 34.096 28.9725 34.096ZM28.9725 33.364C29.4045 33.364 29.8045 33.268 30.1725 33.076C30.5405 32.876 30.8365 32.58 31.0605 32.188C31.2925 31.788 31.4085 31.3 31.4085 30.724C31.4085 30.148 31.2965 29.664 31.0725 29.272C30.8485 28.872 30.5525 28.576 30.1845 28.384C29.8165 28.184 29.4165 28.084 28.9845 28.084C28.5525 28.084 28.1525 28.184 27.7845 28.384C27.4165 28.576 27.1205 28.872 26.8965 29.272C26.6805 29.664 26.5725 30.148 26.5725 30.724C26.5725 31.3 26.6805 31.788 26.8965 32.188C27.1205 32.58 27.4125 32.876 27.7725 33.076C28.1405 33.268 28.5405 33.364 28.9725 33.364ZM34.6318 28.888C34.8398 28.448 35.1678 28.084 35.6158 27.796C36.0718 27.5 36.6118 27.352 37.2358 27.352C37.8278 27.352 38.3598 27.492 38.8318 27.772C39.3118 28.044 39.6838 28.436 39.9478 28.948C40.2198 29.452 40.3558 30.04 40.3558 30.712C40.3558 31.384 40.2198 31.976 39.9478 32.488C39.6838 33 39.3118 33.396 38.8318 33.676C38.3598 33.956 37.8278 34.096 37.2358 34.096C36.6198 34.096 36.0838 33.952 35.6278 33.664C35.1718 33.368 34.8398 33 34.6318 32.56V37.096H33.8038V27.448H34.6318V28.888ZM39.5038 30.712C39.5038 30.168 39.3958 29.7 39.1797 29.308C38.9718 28.908 38.6838 28.604 38.3158 28.396C37.9478 28.188 37.5318 28.084 37.0678 28.084C36.6198 28.084 36.2078 28.192 35.8318 28.408C35.4638 28.624 35.1718 28.932 34.9558 29.332C34.7398 29.732 34.6318 30.196 34.6318 30.724C34.6318 31.252 34.7398 31.716 34.9558 32.116C35.1718 32.516 35.4638 32.824 35.8318 33.04C36.2078 33.256 36.6198 33.364 37.0678 33.364C37.5318 33.364 37.9478 33.26 38.3158 33.052C38.6838 32.836 38.9718 32.528 39.1797 32.128C39.3958 31.72 39.5038 31.248 39.5038 30.712Z" fill="white"/>
<path d="M16.04 33.796L15.6209 34.704L15.6275 34.707L16.04 33.796ZM15.056 32.992L15.8761 32.4198L15.056 32.992ZM14.672 31.84V30.84H13.6336L13.6727 31.8777L14.672 31.84ZM15.56 31.84L16.5552 31.7424L16.4668 30.84H15.56V31.84ZM16.1 32.92L15.4018 33.6361L15.4113 33.645L16.1 32.92ZM18.848 32.944L19.5078 33.6954L19.509 33.6944L18.848 32.944ZM19.076 30.964L18.3033 31.5987L18.309 31.6057L18.3148 31.6125L19.076 30.964ZM18.392 30.472L18.0113 31.3967L18.023 31.4015L18.0349 31.4061L18.392 30.472ZM17.264 30.112L17.002 31.0771L17.0063 31.0782L17.264 30.112ZM15.932 29.668L16.334 28.7524H16.334L15.932 29.668ZM15.092 28.996L15.887 28.3893L15.887 28.3893L15.092 28.996ZM15.08 26.608L15.9121 27.1627L15.918 27.1537L15.08 26.608ZM16.028 25.804L16.4538 26.7088L16.028 25.804ZM19.304 26.092L18.6729 26.8677L18.6801 26.8735L18.6873 26.8792L19.304 26.092ZM20.132 27.556V28.556H21.2592L21.1249 27.4369L20.132 27.556ZM19.22 27.556L18.233 27.7167L18.3696 28.556H19.22V27.556ZM18.656 26.644L18.0084 27.4059L18.0139 27.4107L18.0196 27.4154L18.656 26.644ZM16.1 26.644L16.7178 27.4303L16.7235 27.4258L16.7292 27.4212L16.1 26.644ZM15.872 28.588L16.6332 27.9395L16.6332 27.9395L15.872 28.588ZM16.556 29.08L16.1752 30.0047L16.1846 30.0085L16.556 29.08ZM17.684 29.44L17.9531 28.4769L17.9457 28.4749L17.684 29.44ZM19.004 29.896L18.5918 30.8071L18.6009 30.8112L18.6101 30.8151L19.004 29.896ZM19.856 30.568L20.651 29.9613H20.651L19.856 30.568ZM19.892 32.908L19.0311 32.3993L19.892 32.908ZM18.968 33.76L19.4359 34.6438H19.4359L18.968 33.76ZM17.504 34.084V33.084C17.0682 33.084 16.7251 33.0085 16.4525 32.885L16.04 33.796L15.6275 34.707C16.2029 34.9675 16.8358 35.084 17.504 35.084V34.084ZM16.04 33.796L16.4591 32.888C16.1888 32.7633 16.0054 32.605 15.8761 32.4198L15.056 32.992L14.2359 33.5642C14.5866 34.067 15.0592 34.4447 15.6209 34.704L16.04 33.796ZM15.056 32.992L15.8761 32.4198C15.7472 32.235 15.6801 32.037 15.6713 31.8023L14.672 31.84L13.6727 31.8777C13.6959 32.491 13.8848 33.061 14.2359 33.5642L15.056 32.992ZM14.672 31.84V32.84H15.56V31.84V30.84H14.672V31.84ZM15.56 31.84L14.5648 31.9376C14.6299 32.6021 14.9294 33.1753 15.4019 33.636L16.1 32.92L16.7981 32.204C16.6306 32.0407 16.5701 31.8939 16.5552 31.7424L15.56 31.84ZM16.1 32.92L15.4113 33.645C15.9799 34.1853 16.7339 34.376 17.504 34.376V33.376V32.376C17.0421 32.376 16.8601 32.2627 16.7887 32.195L16.1 32.92ZM17.504 33.376V34.376C18.24 34.376 18.948 34.1869 19.5078 33.6954L18.848 32.944L18.1882 32.1926C18.092 32.2771 17.904 32.376 17.504 32.376V33.376ZM18.848 32.944L19.509 33.6944C20.0606 33.2084 20.352 32.563 20.352 31.828H19.352H18.352C18.352 31.989 18.3074 32.0876 18.187 32.1936L18.848 32.944ZM19.352 31.828H20.352C20.352 31.2959 20.2131 30.7568 19.8372 30.3155L19.076 30.964L18.3148 31.6125C18.3153 31.6131 18.3221 31.6202 18.3304 31.6463C18.3397 31.6752 18.352 31.7322 18.352 31.828H19.352ZM19.076 30.964L19.8487 30.3293C19.554 29.9705 19.1825 29.7037 18.7491 29.5379L18.392 30.472L18.0349 31.4061C18.1455 31.4483 18.23 31.5095 18.3033 31.5987L19.076 30.964ZM18.392 30.472L18.7728 29.5473C18.4427 29.4114 18.0193 29.2785 17.5217 29.1458L17.264 30.112L17.0063 31.0782C17.4687 31.2015 17.7973 31.3086 18.0113 31.3967L18.392 30.472ZM17.264 30.112L17.526 29.1469C16.9884 29.001 16.5976 28.8681 16.334 28.7524L15.932 29.668L15.53 30.5836C15.9224 30.7559 16.4196 30.919 17.002 31.0771L17.264 30.112ZM15.932 29.668L16.334 28.7524C16.1715 28.681 16.0234 28.5681 15.887 28.3893L15.092 28.996L14.297 29.6027C14.6246 30.0319 15.0365 30.367 15.53 30.5836L15.932 29.668ZM15.092 28.996L15.887 28.3893C15.8285 28.3128 15.744 28.1387 15.744 27.76H14.744H13.744C13.744 28.4213 13.8915 29.0712 14.297 29.6027L15.092 28.996ZM14.744 27.76H15.744C15.744 27.511 15.8053 27.3228 15.9121 27.1627L15.08 26.608L14.2479 26.0533C13.9067 26.5652 13.744 27.145 13.744 27.76H14.744ZM15.08 26.608L15.918 27.1537C16.0308 26.9805 16.1968 26.8298 16.4538 26.7088L16.028 25.804L15.6022 24.8992C15.0432 25.1622 14.5772 25.5475 14.242 26.0623L15.08 26.608ZM16.028 25.804L16.4538 26.7088C16.7077 26.5893 17.0262 26.516 17.432 26.516V25.516V24.516C16.7818 24.516 16.1643 24.6347 15.6022 24.8992L16.028 25.804ZM17.432 25.516V26.516C18.0426 26.516 18.4236 26.6648 18.6729 26.8677L19.304 26.092L19.9351 25.3163C19.2405 24.7512 18.3734 24.516 17.432 24.516V25.516ZM19.304 26.092L18.6873 26.8792C18.9603 27.093 19.0991 27.3416 19.1391 27.6751L20.132 27.556L21.1249 27.4369C21.0209 26.5704 20.6077 25.843 19.9207 25.3048L19.304 26.092ZM20.132 27.556V26.556H19.22V27.556V28.556H20.132V27.556ZM19.22 27.556L20.207 27.3953C20.1049 26.768 19.762 26.26 19.2924 25.8726L18.656 26.644L18.0196 27.4154C18.19 27.5559 18.2231 27.656 18.233 27.7167L19.22 27.556ZM18.656 26.644L19.3036 25.8821C18.755 25.4157 18.0699 25.236 17.36 25.236V26.236V27.236C17.7381 27.236 17.917 27.3283 18.0084 27.4059L18.656 26.644ZM17.36 26.236V25.236C16.6667 25.236 16.0135 25.4274 15.4708 25.8668L16.1 26.644L16.7292 27.4212C16.8585 27.3166 17.0453 27.236 17.36 27.236V26.236ZM16.1 26.644L15.4822 25.8577C14.882 26.3292 14.596 26.9954 14.596 27.736H15.596H16.596C16.596 27.5486 16.646 27.4868 16.7178 27.4303L16.1 26.644ZM15.596 27.736H14.596C14.596 28.2665 14.7382 28.7991 15.1108 29.2365L15.872 28.588L16.6332 27.9395C16.6307 27.9366 16.624 27.9286 16.6163 27.9048C16.6078 27.8784 16.596 27.8256 16.596 27.736H15.596ZM15.872 28.588L15.1108 29.2365C15.4017 29.578 15.7618 29.8345 16.1753 30.0047L16.556 29.08L16.9367 28.1553C16.8062 28.1015 16.7103 28.03 16.6332 27.9395L15.872 28.588ZM16.556 29.08L16.1846 30.0085C16.5154 30.1408 16.9328 30.2724 17.4223 30.4051L17.684 29.44L17.9457 28.4749C17.4912 28.3516 17.1566 28.2432 16.9274 28.1515L16.556 29.08ZM17.684 29.44L17.4149 30.4031C17.9328 30.5478 18.3196 30.684 18.5918 30.8071L19.004 29.896L19.4162 28.9849C19.0164 28.804 18.5232 28.6362 17.9531 28.4769L17.684 29.44ZM19.004 29.896L18.6101 30.8151C18.7803 30.8881 18.9286 31.0011 19.061 31.1747L19.856 30.568L20.651 29.9613C20.3194 29.5269 19.8997 29.1919 19.3979 28.9769L19.004 29.896ZM19.856 30.568L19.061 31.1747C19.1213 31.2536 19.204 31.4254 19.204 31.792H20.204H21.204C21.204 31.1346 21.0547 30.4904 20.651 29.9613L19.856 30.568ZM20.204 31.792H19.204C19.204 31.9972 19.1521 32.1944 19.0311 32.3993L19.892 32.908L20.7529 33.4167C21.0479 32.9176 21.204 32.3708 21.204 31.792H20.204ZM19.892 32.908L19.0311 32.3993C18.9287 32.5726 18.7666 32.7351 18.5001 32.8762L18.968 33.76L19.4359 34.6438C19.9854 34.3529 20.4393 33.9474 20.7529 33.4167L19.892 32.908ZM18.968 33.76L18.5001 32.8762C18.2658 33.0003 17.9459 33.084 17.504 33.084V34.084V35.084C18.1981 35.084 18.8542 34.9517 19.4359 34.6438L18.968 33.76ZM22.9192 28.156V27.156H21.9192V28.156H22.9192ZM23.1472 33.052L23.8543 32.3449H23.8543L23.1472 33.052ZM24.7192 33.28H25.7192V32.28H24.7192V33.28ZM24.7192 34V35H25.7192V34H24.7192ZM22.4992 33.592L21.8021 34.309L21.8073 34.314L21.8126 34.319L22.4992 33.592ZM22.0672 28.156H23.0672V27.156H22.0672V28.156ZM21.1552 28.156H20.1552V29.156H21.1552V28.156ZM21.1552 27.448V26.448H20.1552V27.448H21.1552ZM22.0672 27.448V28.448H23.0672V27.448H22.0672ZM22.0672 25.804V24.804H21.0672V25.804H22.0672ZM22.9192 25.804H23.9192V24.804H22.9192V25.804ZM22.9192 27.448H21.9192V28.448H22.9192V27.448ZM24.7192 27.448H25.7192V26.448H24.7192V27.448ZM24.7192 28.156V29.156H25.7192V28.156H24.7192ZM22.9192 28.156H21.9192V32.224H22.9192H23.9192V28.156H22.9192ZM22.9192 32.224H21.9192C21.9192 32.684 21.9932 33.3123 22.4401 33.7591L23.1472 33.052L23.8543 32.3449C23.9348 32.4254 23.9471 32.49 23.9403 32.4655C23.9375 32.4553 23.9319 32.4309 23.9272 32.389C23.9225 32.3474 23.9192 32.293 23.9192 32.224H22.9192ZM23.1472 33.052L22.4401 33.7591C22.8814 34.2005 23.4931 34.28 23.9512 34.28V33.28V32.28C23.8876 32.28 23.838 32.2768 23.8007 32.2725C23.7632 32.2681 23.7425 32.2631 23.735 32.2609C23.7179 32.2561 23.7791 32.2697 23.8543 32.3449L23.1472 33.052ZM23.9512 33.28V34.28H24.7192V33.28V32.28H23.9512V33.28ZM24.7192 33.28H23.7192V34H24.7192H25.7192V33.28H24.7192ZM24.7192 34V33H23.8192V34V35H24.7192V34ZM23.8192 34V33C23.3586 33 23.2143 32.8919 23.1858 32.865L22.4992 33.592L21.8126 34.319C22.36 34.8361 23.0957 35 23.8192 35V34ZM22.4992 33.592L23.1963 32.875C23.1884 32.8673 23.0672 32.7366 23.0672 32.224H22.0672H21.0672C21.0672 32.9754 21.234 33.7567 21.8021 34.309L22.4992 33.592ZM22.0672 32.224H23.0672V28.156H22.0672H21.0672V32.224H22.0672ZM22.0672 28.156V27.156H21.1552V28.156V29.156H22.0672V28.156ZM21.1552 28.156H22.1552V27.448H21.1552H20.1552V28.156H21.1552ZM21.1552 27.448V28.448H22.0672V27.448V26.448H21.1552V27.448ZM22.0672 27.448H23.0672V25.804H22.0672H21.0672V27.448H22.0672ZM22.0672 25.804V26.804H22.9192V25.804V24.804H22.0672V25.804ZM22.9192 25.804H21.9192V27.448H22.9192H23.9192V25.804H22.9192ZM22.9192 27.448V28.448H24.7192V27.448V26.448H22.9192V27.448ZM24.7192 27.448H23.7192V28.156H24.7192H25.7192V27.448H24.7192ZM24.7192 28.156V27.156H22.9192V28.156V29.156H24.7192V28.156ZM27.3045 33.688L26.8069 34.5554L26.8152 34.5602L26.8237 34.5648L27.3045 33.688ZM26.1405 32.512L25.2632 32.9918L25.2676 33L25.2723 33.0081L26.1405 32.512ZM26.1525 28.948L27.0208 29.4441L27.0241 29.4383L26.1525 28.948ZM27.3285 27.772L27.8094 28.6489L27.8201 28.6428L27.3285 27.772ZM30.6645 27.772L30.1729 28.6428L30.1812 28.6475L30.1896 28.652L30.6645 27.772ZM31.8405 28.948L30.9632 29.4278L30.9676 29.436L30.9723 29.4441L31.8405 28.948ZM31.8405 32.5L32.7121 32.9903L31.8405 32.5ZM30.6525 33.688L31.1275 34.5681L31.1382 34.5622L30.6525 33.688ZM30.1725 33.076L30.6351 33.9626L30.6426 33.9587L30.65 33.9546L30.1725 33.076ZM31.0605 32.188L30.1955 31.6863L30.1923 31.6919L31.0605 32.188ZM31.0725 29.272L30.2 29.7606L30.2043 29.7681L31.0725 29.272ZM30.1845 28.384L29.707 29.2626L29.7145 29.2667L29.722 29.2706L30.1845 28.384ZM27.7845 28.384L28.2471 29.2706L28.2546 29.2667L28.262 29.2626L27.7845 28.384ZM26.8965 29.272L26.024 28.7834L26.0207 28.7894L26.8965 29.272ZM26.8965 32.188L26.0166 32.6631L26.0223 32.6737L26.0283 32.6841L26.8965 32.188ZM27.7725 33.076L27.2869 33.9502L27.2983 33.9565L27.31 33.9626L27.7725 33.076ZM28.9725 34.096V33.096C28.5093 33.096 28.1211 32.9953 27.7854 32.8112L27.3045 33.688L26.8237 34.5648C27.48 34.9247 28.2038 35.096 28.9725 35.096V34.096ZM27.3045 33.688L27.8022 32.8206C27.4736 32.6321 27.2114 32.3705 27.0088 32.0159L26.1405 32.512L25.2723 33.0081C25.6456 33.6615 26.1595 34.1839 26.8069 34.5554L27.3045 33.688ZM26.1405 32.512L27.0179 32.0322C26.8307 31.69 26.7205 31.2642 26.7205 30.724H25.7205H24.7205C24.7205 31.5438 24.8903 32.31 25.2632 32.9918L26.1405 32.512ZM25.7205 30.724H26.7205C26.7205 30.188 26.8329 29.7729 27.0208 29.4441L26.1525 28.948L25.2843 28.4519C24.8962 29.1311 24.7205 29.9 24.7205 30.724H25.7205ZM26.1525 28.948L27.0241 29.4383C27.2242 29.0825 27.4837 28.8274 27.8094 28.6488L27.3285 27.772L26.8477 26.8952C26.1814 27.2606 25.6568 27.7895 25.281 28.4577L26.1525 28.948ZM27.3285 27.772L27.8201 28.6428C28.154 28.4543 28.5383 28.352 28.9965 28.352V27.352V26.352C28.2227 26.352 27.4951 26.5297 26.8369 26.9012L27.3285 27.772ZM28.9965 27.352V28.352C29.4547 28.352 29.8391 28.4543 30.1729 28.6428L30.6645 27.772L31.1561 26.9012C30.498 26.5297 29.7703 26.352 28.9965 26.352V27.352ZM30.6645 27.772L30.1896 28.652C30.5202 28.8305 30.774 29.0819 30.9632 29.4278L31.8405 28.948L32.7179 28.4682C32.3471 27.7901 31.8168 27.2575 31.1395 26.892L30.6645 27.772ZM31.8405 28.948L30.9723 29.4441C31.1602 29.7729 31.2725 30.188 31.2725 30.724H32.2725H33.2725C33.2725 29.9 33.0969 29.1311 32.7088 28.4519L31.8405 28.948ZM32.2725 30.724H31.2725C31.2725 31.2493 31.1613 31.6678 30.969 32.0097L31.8405 32.5L32.7121 32.9903C33.0958 32.3082 33.2725 31.5427 33.2725 30.724H32.2725ZM31.8405 32.5L30.969 32.0097C30.7698 32.3638 30.506 32.6254 30.1669 32.8138L30.6525 33.688L31.1382 34.5622C31.807 34.1906 32.3352 33.6602 32.7121 32.9903L31.8405 32.5ZM30.6525 33.688L30.1776 32.808C29.8304 32.9953 29.4356 33.096 28.9725 33.096V34.096V35.096C29.7415 35.096 30.4666 34.9247 31.1275 34.568L30.6525 33.688ZM28.9725 33.364V34.364C29.5588 34.364 30.1184 34.2322 30.6351 33.9626L30.1725 33.076L29.71 32.1894C29.4907 32.3038 29.2503 32.364 28.9725 32.364V33.364ZM30.1725 33.076L30.65 33.9546C31.194 33.659 31.6201 33.2244 31.9288 32.6841L31.0605 32.188L30.1923 31.6919C30.053 31.9356 29.887 32.093 29.695 32.1974L30.1725 33.076ZM31.0605 32.188L31.9256 32.6897C32.2652 32.1041 32.4085 31.4334 32.4085 30.724H31.4085H30.4085C30.4085 31.1666 30.3198 31.4719 30.1955 31.6863L31.0605 32.188ZM31.4085 30.724H32.4085C32.4085 30.021 32.2718 29.3552 31.9408 28.7759L31.0725 29.272L30.2043 29.7681C30.3213 29.9728 30.4085 30.275 30.4085 30.724H31.4085ZM31.0725 29.272L31.945 28.7834C31.6363 28.2321 31.2053 27.7887 30.6471 27.4974L30.1845 28.384L29.722 29.2706C29.8997 29.3633 30.0607 29.5119 30.2 29.7606L31.0725 29.272ZM30.1845 28.384L30.662 27.5054C30.1428 27.2232 29.5779 27.084 28.9845 27.084V28.084V29.084C29.2552 29.084 29.4903 29.1448 29.707 29.2626L30.1845 28.384ZM28.9845 28.084V27.084C28.3912 27.084 27.8263 27.2232 27.307 27.5054L27.7845 28.384L28.262 29.2626C28.4788 29.1448 28.7139 29.084 28.9845 29.084V28.084ZM27.7845 28.384L27.322 27.4974C26.7637 27.7887 26.3327 28.2321 26.024 28.7834L26.8965 29.272L27.769 29.7606C27.9083 29.5119 28.0693 29.3633 28.2471 29.2706L27.7845 28.384ZM26.8965 29.272L26.0207 28.7894C25.7032 29.3657 25.5725 30.0264 25.5725 30.724H26.5725H27.5725C27.5725 30.2696 27.6579 29.9623 27.7724 29.7546L26.8965 29.272ZM26.5725 30.724H25.5725C25.5725 31.4226 25.7035 32.0833 26.0166 32.6631L26.8965 32.188L27.7764 31.7129C27.6576 31.4927 27.5725 31.1774 27.5725 30.724H26.5725ZM26.8965 32.188L26.0283 32.6841C26.3339 33.219 26.7521 33.653 27.2869 33.9502L27.7725 33.076L28.2582 32.2018C28.073 32.099 27.9072 31.941 27.7648 31.6919L26.8965 32.188ZM27.7725 33.076L27.31 33.9626C27.8267 34.2322 28.3863 34.364 28.9725 34.364V33.364V32.364C28.6948 32.364 28.4544 32.3038 28.2351 32.1894L27.7725 33.076ZM34.6318 28.888H33.6318L35.5358 29.3154L34.6318 28.888ZM35.6157 27.796L36.1565 28.6372L36.1602 28.6348L35.6157 27.796ZM38.8318 27.772L38.3215 28.6321L38.3301 28.6371L38.3387 28.642L38.8318 27.772ZM39.9478 28.948L39.0589 29.4063L39.0633 29.4147L39.0677 29.4229L39.9478 28.948ZM39.9478 32.488L39.0646 32.0188L39.0589 32.0297L39.9478 32.488ZM38.8318 33.676L38.3279 32.8122L38.3215 32.8159L38.8318 33.676ZM35.6278 33.664L35.0832 34.5028L35.0938 34.5095L35.6278 33.664ZM34.6318 32.56L35.5358 32.1326L33.6318 32.56H34.6318ZM34.6318 37.096V38.096H35.6318V37.096H34.6318ZM33.8038 37.096H32.8038V38.096H33.8038V37.096ZM33.8038 27.448V26.448H32.8038V27.448H33.8038ZM34.6318 27.448H35.6318V26.448H34.6318V27.448ZM39.1798 29.308L38.2925 29.7694L38.2981 29.78L38.3039 29.7906L39.1798 29.308ZM38.3158 28.396L37.8237 29.2666L38.3158 28.396ZM35.8318 28.408L35.3336 27.5409L35.3256 27.5456L35.8318 28.408ZM34.9557 29.332L34.0758 28.8569L34.9557 29.332ZM34.9557 32.116L35.8357 31.6409L34.9557 32.116ZM35.8318 33.04L35.3255 33.9025L35.3336 33.9071L35.8318 33.04ZM38.3158 33.052L38.8078 33.9226L38.8149 33.9185L38.822 33.9144L38.3158 33.052ZM39.1798 32.128L38.2959 31.6601L38.2925 31.6666L39.1798 32.128ZM34.6318 28.888L35.5358 29.3154C35.6564 29.0604 35.8506 28.8339 36.1565 28.6372L35.6157 27.796L35.075 26.9548C34.4849 27.3341 34.0231 27.8356 33.7277 28.4606L34.6318 28.888ZM35.6157 27.796L36.1602 28.6348C36.4312 28.4589 36.7757 28.352 37.2358 28.352V27.352V26.352C36.4478 26.352 35.7123 26.5411 35.0713 26.9572L35.6157 27.796ZM37.2358 27.352V28.352C37.6628 28.352 38.0161 28.4508 38.3215 28.6321L38.8318 27.772L39.342 26.9119C38.7034 26.5332 37.9927 26.352 37.2358 26.352V27.352ZM38.8318 27.772L38.3387 28.642C38.6419 28.8138 38.8799 29.0591 39.0589 29.4063L39.9478 28.948L40.8366 28.4897C40.4876 27.8129 39.9816 27.2742 39.3248 26.902L38.8318 27.772ZM39.9478 28.948L39.0677 29.4229C39.2483 29.7576 39.3558 30.177 39.3558 30.712H40.3558H41.3558C41.3558 29.903 41.1912 29.1464 40.8278 28.4731L39.9478 28.948ZM40.3558 30.712H39.3558C39.3558 31.2466 39.2485 31.6728 39.0646 32.0188L39.9478 32.488L40.8309 32.9572C41.191 32.2792 41.3558 31.5214 41.3558 30.712H40.3558ZM39.9478 32.488L39.0589 32.0297C38.8787 32.3792 38.6374 32.6317 38.3279 32.8122L38.8318 33.676L39.3356 34.5398C39.9861 34.1603 40.4888 33.6208 40.8366 32.9463L39.9478 32.488ZM38.8318 33.676L38.3215 32.8159C38.0161 32.9972 37.6628 33.096 37.2358 33.096V34.096V35.096C37.9927 35.096 38.7034 34.9148 39.342 34.5361L38.8318 33.676ZM37.2358 34.096V33.096C36.7812 33.096 36.4361 32.9918 36.1617 32.8185L35.6278 33.664L35.0938 34.5095C35.7314 34.9122 36.4583 35.096 37.2358 35.096V34.096ZM35.6278 33.664L36.1722 32.8252C35.8532 32.6181 35.6554 32.3856 35.5358 32.1326L34.6318 32.56L33.7277 32.9874C34.0241 33.6144 34.4903 34.1179 35.0833 34.5028L35.6278 33.664ZM34.6318 32.56H33.6318V37.096H34.6318H35.6318V32.56H34.6318ZM34.6318 37.096V36.096H33.8038V37.096V38.096H34.6318V37.096ZM33.8038 37.096H34.8038V27.448H33.8038H32.8038V37.096H33.8038ZM33.8038 27.448V28.448H34.6318V27.448V26.448H33.8038V27.448ZM34.6318 27.448H33.6318V28.888H34.6318H35.6318V27.448H34.6318ZM39.5037 30.712H40.5037C40.5037 30.0353 40.3688 29.3939 40.0556 28.8254L39.1798 29.308L38.3039 29.7906C38.4227 30.0061 38.5037 30.3007 38.5037 30.712H39.5037ZM39.1798 29.308L40.067 28.8466C39.7759 28.2868 39.3557 27.8351 38.8078 27.5254L38.3158 28.396L37.8237 29.2666C38.0118 29.3729 38.1676 29.5292 38.2925 29.7694L39.1798 29.308ZM38.3158 28.396L38.8078 27.5254C38.2753 27.2245 37.6869 27.084 37.0678 27.084V28.084V29.084C37.3766 29.084 37.6202 29.1515 37.8237 29.2666L38.3158 28.396ZM37.0678 28.084V27.084C36.451 27.084 35.8664 27.2349 35.3336 27.5409L35.8318 28.408L36.3299 29.2751C36.5491 29.1491 36.7885 29.084 37.0678 29.084V28.084ZM35.8318 28.408L35.3256 27.5456C34.7895 27.8602 34.3728 28.307 34.0758 28.8569L34.9557 29.332L35.8357 29.8071C35.9707 29.557 36.138 29.3878 36.338 29.2704L35.8318 28.408ZM34.9557 29.332L34.0758 28.8569C33.7691 29.4248 33.6318 30.057 33.6318 30.724H34.6318H35.6318C35.6318 30.335 35.7104 30.0392 35.8357 29.8071L34.9557 29.332ZM34.6318 30.724H33.6318C33.6318 31.391 33.7691 32.0232 34.0758 32.5911L34.9557 32.116L35.8357 31.6409C35.7104 31.4088 35.6318 31.113 35.6318 30.724H34.6318ZM34.9557 32.116L34.0758 32.5911C34.3728 33.141 34.7895 33.5878 35.3256 33.9024L35.8318 33.04L36.338 32.1776C36.138 32.0602 35.9707 31.891 35.8357 31.6409L34.9557 32.116ZM35.8318 33.04L35.3336 33.9071C35.8664 34.2131 36.451 34.364 37.0678 34.364V33.364V32.364C36.7885 32.364 36.5491 32.2989 36.3299 32.1729L35.8318 33.04ZM37.0678 33.364V34.364C37.6869 34.364 38.2753 34.2235 38.8078 33.9226L38.3158 33.052L37.8237 32.1814C37.6202 32.2965 37.3766 32.364 37.0678 32.364V33.364ZM38.3158 33.052L38.822 33.9144C39.3615 33.5977 39.7773 33.1463 40.067 32.5894L39.1798 32.128L38.2925 31.6666C38.1662 31.9097 38.006 32.0743 37.8095 32.1896L38.3158 33.052ZM39.1798 32.128L40.0635 32.5959C40.3673 32.0221 40.5037 31.3847 40.5037 30.712H39.5037H38.5037C38.5037 31.1113 38.4242 31.4179 38.296 31.6601L39.1798 32.128Z" fill="#5D75AA" mask="url(#path-2-outside-1_7_282)"/>
<defs>
<linearGradient id="paint0_linear_7_282" x1="30" y1="56" x2="30" y2="0" gradientUnits="userSpaceOnUse">
<stop stop-color="#06266B"/>
<stop offset="1" stop-color="#495689"/>
</linearGradient>
</defs>
</svg>
