<svg width="44" height="44" viewBox="0 0 44 44" fill="none" xmlns="http://www.w3.org/2000/svg">
<path d="M7.03999 22C7.03999 13.728 13.728 7.03998 22 7.03998C30.272 7.03998 36.96 13.728 36.96 22C36.96 30.272 30.272 36.96 22 36.96C13.728 36.96 7.03999 30.272 7.03999 22ZM35.2 22C35.2 14.696 29.304 8.79998 22 8.79998C14.696 8.79998 8.79999 14.696 8.79999 22C8.79999 29.304 14.696 35.2 22 35.2C29.304 35.2 35.2 29.304 35.2 22Z" fill="#99ABD0"/>
<path d="M20.504 29.304L27.808 22L20.504 14.696L21.736 13.464L30.272 22L21.736 30.536L20.504 29.304Z" fill="#99ABD0"/>
<path d="M29.04 21.12V22.88H14.08V21.12H29.04Z" fill="#99ABD0"/>
</svg>
