<svg width="48" height="48" viewBox="0 0 48 48" fill="none" xmlns="http://www.w3.org/2000/svg">
<g clip-path="url(#clip0_7_263)">
<g clip-path="url(#clip1_7_263)">
<path fill-rule="evenodd" clip-rule="evenodd" d="M19.8154 15.6597C20.1181 14.222 20.7596 12.8772 21.6866 11.7373C22.6136 10.5974 23.7993 9.69527 25.1452 9.10587C26.0037 8.72741 25.8172 7.4591 24.8867 7.34464C16.8468 6.3588 9.3329 11.7016 7.63444 19.688C5.83075 28.1803 11.2381 36.525 19.7157 38.3286C28.1932 40.1305 36.5286 34.7065 38.3341 26.2142C38.598 24.9726 38.7121 23.7038 38.6738 22.4351C38.6443 21.4954 37.3926 21.1963 36.9403 22.0216C35.988 23.7649 34.4988 25.1546 32.6938 25.9841C30.8888 26.8136 28.8643 27.0386 26.9212 26.6259C24.5247 26.1139 22.4298 24.671 21.0972 22.6144C19.7646 20.5579 19.3035 18.0562 19.8154 15.6597ZM9.43998 20.072C10.0518 17.1883 11.5656 14.5742 13.7622 12.6083C15.9588 10.6424 18.7242 9.42666 21.6578 9.13726C19.832 10.6954 18.5304 12.8296 18.0098 15.2757C17.706 16.6996 17.6856 18.1693 17.9498 19.6011C18.214 21.0328 18.7577 22.3985 19.5497 23.6201C20.3417 24.8417 21.3666 25.8954 22.5658 26.7209C23.7651 27.5464 25.1152 28.1277 26.5391 28.4314C28.3261 28.8109 30.1793 28.7425 31.9335 28.2322C33.6877 27.722 35.2885 26.7858 36.5932 25.5071L36.5286 25.8302C34.9354 33.3256 27.5803 38.1126 20.0997 36.5231C12.6209 34.9317 7.8486 27.5693 9.44183 20.0739" fill="#99ABD0"/>
<path fill-rule="evenodd" clip-rule="evenodd" d="M23 44.2308C34.7249 44.2308 44.2308 34.7249 44.2308 23C44.2308 11.2751 34.7249 1.76925 23 1.76925C11.2751 1.76925 1.76922 11.2751 1.76922 23C1.76922 34.7249 11.2751 44.2308 23 44.2308ZM23 46.0769C35.7458 46.0769 46.0769 35.7459 46.0769 23C46.0769 10.2542 35.7458 -0.0769043 23 -0.0769043C10.2541 -0.0769043 -0.0769348 10.2542 -0.0769348 23C-0.0769348 35.7459 10.2541 46.0769 23 46.0769Z" fill="#99ABD0"/>
</g>
</g>
<defs>
<clipPath id="clip0_7_263">
<rect width="48" height="48" fill="white"/>
</clipPath>
<clipPath id="clip1_7_263">
<rect width="48" height="48" fill="white" transform="translate(-1 -1)"/>
</clipPath>
</defs>
</svg>
