<svg width="48" height="48" viewBox="0 0 48 48" fill="none" xmlns="http://www.w3.org/2000/svg">
<g clip-path="url(#clip0_7_118)">
<path fill-rule="evenodd" clip-rule="evenodd" d="M24 30.4615C24.8485 30.4615 25.6888 30.2944 26.4727 29.9697C27.2567 29.645 27.969 29.169 28.569 28.569C29.169 27.969 29.645 27.2567 29.9697 26.4727C30.2944 25.6888 30.4615 24.8485 30.4615 24C30.4615 23.1515 30.2944 22.3112 29.9697 21.5273C29.645 20.7433 29.169 20.031 28.569 19.431C27.969 18.831 27.2567 18.355 26.4727 18.0303C25.6888 17.7056 24.8485 17.5385 24 17.5385C22.2863 17.5385 20.6428 18.2192 19.431 19.431C18.2192 20.6428 17.5385 22.2863 17.5385 24C17.5385 25.7137 18.2192 27.3572 19.431 28.569C20.6428 29.7808 22.2863 30.4615 24 30.4615ZM24 19.3846C25.2241 19.3846 26.398 19.8709 27.2636 20.7364C28.1291 21.602 28.6154 22.7759 28.6154 24C28.6154 25.2241 28.1291 26.398 27.2636 27.2636C26.398 28.1291 25.2241 28.6154 24 28.6154C22.7759 28.6154 21.602 28.1291 20.7364 27.2636C19.8709 26.398 19.3846 25.2241 19.3846 24C19.3846 22.7759 19.8709 21.602 20.7364 20.7364C21.602 19.8709 22.7759 19.3846 24 19.3846Z" fill="#06266B"/>
<path d="M8.30769 23.0769C7.79789 23.0769 7.38461 23.4902 7.38461 24C7.38461 24.5098 7.79789 24.9231 8.30769 24.9231H12C12.5098 24.9231 12.9231 24.5098 12.9231 24C12.9231 23.4902 12.5098 23.0769 12 23.0769H8.30769Z" fill="#06266B"/>
<path d="M36 23.0769C35.4902 23.0769 35.0769 23.4902 35.0769 24C35.0769 24.5098 35.4902 24.9231 36 24.9231H39.6923C40.2021 24.9231 40.6154 24.5098 40.6154 24C40.6154 23.4902 40.2021 23.0769 39.6923 23.0769H36Z" fill="#06266B"/>
<path d="M33.3428 32.0371C32.9823 31.6766 32.3978 31.6766 32.0373 32.0371C31.6768 32.3976 31.6768 32.9821 32.0373 33.3426L34.6482 35.9534C35.0087 36.3139 35.5931 36.3139 35.9536 35.9534C36.3141 35.5929 36.3141 35.0085 35.9536 34.648L33.3428 32.0371Z" fill="#06266B"/>
<path d="M13.0351 11.7294C12.6746 11.369 12.0901 11.369 11.7296 11.7294C11.3692 12.0899 11.3692 12.6744 11.7296 13.0349L14.3405 15.6457C14.701 16.0062 15.2854 16.0062 15.6459 15.6457C16.0064 15.2852 16.0064 14.7008 15.6459 14.3403L13.0351 11.7294Z" fill="#06266B"/>
<path d="M24.9231 36C24.9231 35.4902 24.5098 35.0769 24 35.0769C23.4902 35.0769 23.0769 35.4902 23.0769 36V39.6923C23.0769 40.2021 23.4902 40.6154 24 40.6154C24.5098 40.6154 24.9231 40.2021 24.9231 39.6923V36Z" fill="#06266B"/>
<path d="M24.9231 8.30769C24.9231 7.79789 24.5098 7.38461 24 7.38461C23.4902 7.38461 23.0769 7.79789 23.0769 8.30769V12C23.0769 12.5098 23.4902 12.9231 24 12.9231C24.5098 12.9231 24.9231 12.5098 24.9231 12V8.30769Z" fill="#06266B"/>
<path d="M35.953 13.0351C36.3135 12.6746 36.3135 12.0901 35.953 11.7296C35.5925 11.3692 35.0081 11.3692 34.6476 11.7296L32.0367 14.3405C31.6762 14.701 31.6762 15.2854 32.0367 15.6459C32.3972 16.0064 32.9817 16.0064 33.3422 15.6459L35.953 13.0351Z" fill="#06266B"/>
<path d="M15.6453 33.3428C16.0058 32.9823 16.0058 32.3978 15.6453 32.0373C15.2848 31.6768 14.7004 31.6768 14.3399 32.0373L11.729 34.6482C11.3686 35.0087 11.3686 35.5931 11.729 35.9536C12.0895 36.3141 12.674 36.3141 13.0345 35.9536L15.6453 33.3428Z" fill="#06266B"/>
<path fill-rule="evenodd" clip-rule="evenodd" d="M24 45.2308C35.7249 45.2308 45.2308 35.7249 45.2308 24C45.2308 12.2751 35.7249 2.76923 24 2.76923C12.2751 2.76923 2.76922 12.2751 2.76922 24C2.76922 35.7249 12.2751 45.2308 24 45.2308ZM24 47.0769C36.7458 47.0769 47.0769 36.7458 47.0769 24C47.0769 11.2542 36.7458 0.923077 24 0.923077C11.2541 0.923077 0.923065 11.2542 0.923065 24C0.923065 36.7458 11.2541 47.0769 24 47.0769Z" fill="#06266B"/>
</g>
<defs>
<clipPath id="clip0_7_118">
<rect width="48" height="48" fill="white"/>
</clipPath>
</defs>
</svg>
