<svg width="60" height="56" viewBox="0 0 60 56" fill="none" xmlns="http://www.w3.org/2000/svg">
<rect x="0.5" y="0.5" width="59" height="55" rx="4.5" fill="url(#paint0_linear_7_143)" stroke="#06266B"/>
<path d="M17.504 34.084C16.952 34.084 16.464 33.988 16.04 33.796C15.624 33.604 15.296 33.336 15.056 32.992C14.816 32.648 14.688 32.264 14.672 31.84H15.56C15.6 32.248 15.78 32.608 16.1 32.92C16.42 33.224 16.888 33.376 17.504 33.376C18.072 33.376 18.52 33.232 18.848 32.944C19.184 32.648 19.352 32.276 19.352 31.828C19.352 31.468 19.26 31.18 19.076 30.964C18.892 30.74 18.664 30.576 18.392 30.472C18.12 30.36 17.744 30.24 17.264 30.112C16.704 29.96 16.26 29.812 15.932 29.668C15.604 29.524 15.324 29.3 15.092 28.996C14.86 28.692 14.744 28.28 14.744 27.76C14.744 27.328 14.856 26.944 15.08 26.608C15.304 26.264 15.62 25.996 16.028 25.804C16.436 25.612 16.904 25.516 17.432 25.516C18.208 25.516 18.832 25.708 19.304 26.092C19.784 26.468 20.06 26.956 20.132 27.556H19.22C19.164 27.212 18.976 26.908 18.656 26.644C18.336 26.372 17.904 26.236 17.36 26.236C16.856 26.236 16.436 26.372 16.1 26.644C15.764 26.908 15.596 27.272 15.596 27.736C15.596 28.088 15.688 28.372 15.872 28.588C16.056 28.804 16.284 28.968 16.556 29.08C16.836 29.192 17.212 29.312 17.684 29.44C18.228 29.592 18.668 29.744 19.004 29.896C19.34 30.04 19.624 30.264 19.856 30.568C20.088 30.872 20.204 31.28 20.204 31.792C20.204 32.184 20.1 32.556 19.892 32.908C19.684 33.26 19.376 33.544 18.968 33.76C18.56 33.976 18.072 34.084 17.504 34.084ZM22.9192 28.156V32.224C22.9192 32.624 22.9952 32.9 23.1472 33.052C23.2992 33.204 23.5672 33.28 23.9512 33.28H24.7192V34H23.8192C23.2272 34 22.7872 33.864 22.4992 33.592C22.2112 33.312 22.0672 32.856 22.0672 32.224V28.156H21.1552V27.448H22.0672V25.804H22.9192V27.448H24.7192V28.156H22.9192ZM28.9725 34.096C28.3565 34.096 27.8005 33.96 27.3045 33.688C26.8165 33.408 26.4285 33.016 26.1405 32.512C25.8605 32 25.7205 31.404 25.7205 30.724C25.7205 30.044 25.8645 29.452 26.1525 28.948C26.4405 28.436 26.8325 28.044 27.3285 27.772C27.8245 27.492 28.3805 27.352 28.9965 27.352C29.6125 27.352 30.1685 27.492 30.6645 27.772C31.1685 28.044 31.5605 28.436 31.8405 28.948C32.1285 29.452 32.2725 30.044 32.2725 30.724C32.2725 31.396 32.1285 31.988 31.8405 32.5C31.5525 33.012 31.1565 33.408 30.6525 33.688C30.1485 33.96 29.5885 34.096 28.9725 34.096ZM28.9725 33.364C29.4045 33.364 29.8045 33.268 30.1725 33.076C30.5405 32.876 30.8365 32.58 31.0605 32.188C31.2925 31.788 31.4085 31.3 31.4085 30.724C31.4085 30.148 31.2965 29.664 31.0725 29.272C30.8485 28.872 30.5525 28.576 30.1845 28.384C29.8165 28.184 29.4165 28.084 28.9845 28.084C28.5525 28.084 28.1525 28.184 27.7845 28.384C27.4165 28.576 27.1205 28.872 26.8965 29.272C26.6805 29.664 26.5725 30.148 26.5725 30.724C26.5725 31.3 26.6805 31.788 26.8965 32.188C27.1205 32.58 27.4125 32.876 27.7725 33.076C28.1405 33.268 28.5405 33.364 28.9725 33.364ZM34.6318 28.888C34.8398 28.448 35.1678 28.084 35.6158 27.796C36.0718 27.5 36.6118 27.352 37.2358 27.352C37.8278 27.352 38.3598 27.492 38.8318 27.772C39.3118 28.044 39.6838 28.436 39.9478 28.948C40.2198 29.452 40.3558 30.04 40.3558 30.712C40.3558 31.384 40.2198 31.976 39.9478 32.488C39.6838 33 39.3118 33.396 38.8318 33.676C38.3598 33.956 37.8278 34.096 37.2358 34.096C36.6198 34.096 36.0838 33.952 35.6278 33.664C35.1718 33.368 34.8398 33 34.6318 32.56V37.096H33.8038V27.448H34.6318V28.888ZM39.5038 30.712C39.5038 30.168 39.3958 29.7 39.1797 29.308C38.9718 28.908 38.6838 28.604 38.3158 28.396C37.9478 28.188 37.5318 28.084 37.0678 28.084C36.6198 28.084 36.2078 28.192 35.8318 28.408C35.4638 28.624 35.1718 28.932 34.9558 29.332C34.7398 29.732 34.6318 30.196 34.6318 30.724C34.6318 31.252 34.7398 31.716 34.9558 32.116C35.1718 32.516 35.4638 32.824 35.8318 33.04C36.2078 33.256 36.6198 33.364 37.0678 33.364C37.5318 33.364 37.9478 33.26 38.3158 33.052C38.6838 32.836 38.9718 32.528 39.1797 32.128C39.3958 31.72 39.5038 31.248 39.5038 30.712Z" fill="black"/>
<defs>
<linearGradient id="paint0_linear_7_143" x1="30" y1="56" x2="30" y2="0" gradientUnits="userSpaceOnUse">
<stop stop-color="#06266B"/>
<stop offset="1" stop-color="#D2E0FF"/>
</linearGradient>
</defs>
</svg>
