<svg width="62" height="56" viewBox="0 0 62 56" fill="none" xmlns="http://www.w3.org/2000/svg">
<rect x="0.5" y="0.5" width="59" height="55" rx="4.5" fill="url(#paint0_linear_7_285)" stroke="#5D75AA"/>
<mask id="path-2-outside-1_7_285" maskUnits="userSpaceOnUse" x="0" y="24" width="60" height="13" fill="black">
<rect fill="white" y="24" width="60" height="13"/>
<path d="M5.884 29.668C6.356 29.756 6.756 29.996 7.084 30.388C7.412 30.78 7.576 31.236 7.576 31.756C7.576 32.18 7.468 32.564 7.252 32.908C7.044 33.244 6.736 33.512 6.328 33.712C5.92 33.904 5.432 34 4.864 34H1.96V25.612H4.78C5.628 25.612 6.272 25.808 6.712 26.2C7.16 26.592 7.384 27.1 7.384 27.724C7.384 28.244 7.244 28.668 6.964 28.996C6.684 29.316 6.324 29.54 5.884 29.668ZM2.8 29.32H4.756C5.324 29.32 5.76 29.188 6.064 28.924C6.376 28.652 6.532 28.28 6.532 27.808C6.532 27.344 6.376 26.98 6.064 26.716C5.76 26.452 5.312 26.32 4.72 26.32H2.8V29.32ZM4.804 33.292C5.412 33.292 5.884 33.148 6.22 32.86C6.564 32.572 6.736 32.176 6.736 31.672C6.736 31.168 6.556 30.768 6.196 30.472C5.844 30.168 5.368 30.016 4.768 30.016H2.8V33.292H4.804ZM8.73616 30.712C8.73616 30.04 8.86816 29.452 9.13216 28.948C9.40416 28.436 9.77616 28.044 10.2482 27.772C10.7282 27.492 11.2682 27.352 11.8682 27.352C12.4922 27.352 13.0282 27.496 13.4762 27.784C13.9322 28.072 14.2602 28.44 14.4602 28.888V27.448H15.3002V34H14.4602V32.548C14.2522 32.996 13.9202 33.368 13.4642 33.664C13.0162 33.952 12.4802 34.096 11.8562 34.096C11.2642 34.096 10.7282 33.956 10.2482 33.676C9.77616 33.396 9.40416 33 9.13216 32.488C8.86816 31.976 8.73616 31.384 8.73616 30.712ZM14.4602 30.724C14.4602 30.196 14.3522 29.732 14.1362 29.332C13.9202 28.932 13.6242 28.624 13.2482 28.408C12.8802 28.192 12.4722 28.084 12.0242 28.084C11.5602 28.084 11.1442 28.188 10.7762 28.396C10.4082 28.604 10.1162 28.908 9.90016 29.308C9.69216 29.7 9.58816 30.168 9.58816 30.712C9.58816 31.248 9.69216 31.72 9.90016 32.128C10.1162 32.528 10.4082 32.836 10.7762 33.052C11.1442 33.26 11.5602 33.364 12.0242 33.364C12.4722 33.364 12.8802 33.256 13.2482 33.04C13.6242 32.824 13.9202 32.516 14.1362 32.116C14.3522 31.716 14.4602 31.252 14.4602 30.724ZM16.8338 30.724C16.8338 30.044 16.9698 29.452 17.2418 28.948C17.5138 28.436 17.8898 28.044 18.3698 27.772C18.8498 27.492 19.3978 27.352 20.0138 27.352C20.8218 27.352 21.4858 27.552 22.0058 27.952C22.5338 28.352 22.8738 28.896 23.0258 29.584H22.1258C22.0138 29.112 21.7698 28.744 21.3938 28.48C21.0258 28.208 20.5658 28.072 20.0138 28.072C19.5738 28.072 19.1778 28.172 18.8258 28.372C18.4738 28.572 18.1938 28.872 17.9858 29.272C17.7858 29.664 17.6858 30.148 17.6858 30.724C17.6858 31.3 17.7858 31.788 17.9858 32.188C18.1938 32.588 18.4738 32.888 18.8258 33.088C19.1778 33.288 19.5738 33.388 20.0138 33.388C20.5658 33.388 21.0258 33.256 21.3938 32.992C21.7698 32.72 22.0138 32.344 22.1258 31.864H23.0258C22.8738 32.536 22.5338 33.076 22.0058 33.484C21.4778 33.892 20.8138 34.096 20.0138 34.096C19.3978 34.096 18.8498 33.96 18.3698 33.688C17.8898 33.408 17.5138 33.016 17.2418 32.512C16.9698 32 16.8338 31.404 16.8338 30.724ZM28.1172 34L25.4172 31.06V34H24.5772V25.12H25.4172V30.376L28.0572 27.448H29.2332L26.1252 30.712L29.2572 34H28.1172ZM38.9828 27.448L36.9308 34H36.0908L34.2788 28.504L32.4668 34H31.6148L29.5628 27.448H30.4148L32.0468 33.148L33.8828 27.448H34.7228L36.5348 33.16L38.1548 27.448H38.9828ZM39.744 30.712C39.744 30.04 39.876 29.452 40.14 28.948C40.412 28.436 40.784 28.044 41.256 27.772C41.736 27.492 42.276 27.352 42.876 27.352C43.5 27.352 44.036 27.496 44.484 27.784C44.94 28.072 45.268 28.44 45.468 28.888V27.448H46.308V34H45.468V32.548C45.26 32.996 44.928 33.368 44.472 33.664C44.024 33.952 43.488 34.096 42.864 34.096C42.272 34.096 41.736 33.956 41.256 33.676C40.784 33.396 40.412 33 40.14 32.488C39.876 31.976 39.744 31.384 39.744 30.712ZM45.468 30.724C45.468 30.196 45.36 29.732 45.144 29.332C44.928 28.932 44.632 28.624 44.256 28.408C43.888 28.192 43.48 28.084 43.032 28.084C42.568 28.084 42.152 28.188 41.784 28.396C41.416 28.604 41.124 28.908 40.908 29.308C40.7 29.7 40.596 30.168 40.596 30.712C40.596 31.248 40.7 31.72 40.908 32.128C41.124 32.528 41.416 32.836 41.784 33.052C42.152 33.26 42.568 33.364 43.032 33.364C43.48 33.364 43.888 33.256 44.256 33.04C44.632 32.824 44.928 32.516 45.144 32.116C45.36 31.716 45.468 31.252 45.468 30.724ZM49.0656 28.612C49.2496 28.204 49.5296 27.888 49.9056 27.664C50.2896 27.44 50.7576 27.328 51.3096 27.328V28.204H51.0816C50.4736 28.204 49.9856 28.368 49.6176 28.696C49.2496 29.024 49.0656 29.572 49.0656 30.34V34H48.2256V27.448H49.0656V28.612ZM52.1893 30.712C52.1893 30.04 52.3253 29.452 52.5973 28.948C52.8693 28.436 53.2413 28.044 53.7133 27.772C54.1933 27.492 54.7333 27.352 55.3333 27.352C55.9093 27.352 56.4293 27.492 56.8933 27.772C57.3573 28.052 57.6973 28.416 57.9133 28.864V25.12H58.7533V34H57.9133V32.536C57.7133 32.992 57.3853 33.368 56.9293 33.664C56.4733 33.952 55.9373 34.096 55.3213 34.096C54.7213 34.096 54.1813 33.956 53.7013 33.676C53.2293 33.396 52.8573 33 52.5853 32.488C52.3213 31.976 52.1893 31.384 52.1893 30.712ZM57.9133 30.724C57.9133 30.196 57.8053 29.732 57.5893 29.332C57.3733 28.932 57.0773 28.624 56.7013 28.408C56.3333 28.192 55.9253 28.084 55.4773 28.084C55.0133 28.084 54.5973 28.188 54.2293 28.396C53.8613 28.604 53.5693 28.908 53.3533 29.308C53.1453 29.7 53.0413 30.168 53.0413 30.712C53.0413 31.248 53.1453 31.72 53.3533 32.128C53.5693 32.528 53.8613 32.836 54.2293 33.052C54.5973 33.26 55.0133 33.364 55.4773 33.364C55.9253 33.364 56.3333 33.256 56.7013 33.04C57.0773 32.824 57.3733 32.516 57.5893 32.116C57.8053 31.716 57.9133 31.252 57.9133 30.724Z"/>
</mask>
<path d="M5.884 29.668C6.356 29.756 6.756 29.996 7.084 30.388C7.412 30.78 7.576 31.236 7.576 31.756C7.576 32.18 7.468 32.564 7.252 32.908C7.044 33.244 6.736 33.512 6.328 33.712C5.92 33.904 5.432 34 4.864 34H1.96V25.612H4.78C5.628 25.612 6.272 25.808 6.712 26.2C7.16 26.592 7.384 27.1 7.384 27.724C7.384 28.244 7.244 28.668 6.964 28.996C6.684 29.316 6.324 29.54 5.884 29.668ZM2.8 29.32H4.756C5.324 29.32 5.76 29.188 6.064 28.924C6.376 28.652 6.532 28.28 6.532 27.808C6.532 27.344 6.376 26.98 6.064 26.716C5.76 26.452 5.312 26.32 4.72 26.32H2.8V29.32ZM4.804 33.292C5.412 33.292 5.884 33.148 6.22 32.86C6.564 32.572 6.736 32.176 6.736 31.672C6.736 31.168 6.556 30.768 6.196 30.472C5.844 30.168 5.368 30.016 4.768 30.016H2.8V33.292H4.804ZM8.73616 30.712C8.73616 30.04 8.86816 29.452 9.13216 28.948C9.40416 28.436 9.77616 28.044 10.2482 27.772C10.7282 27.492 11.2682 27.352 11.8682 27.352C12.4922 27.352 13.0282 27.496 13.4762 27.784C13.9322 28.072 14.2602 28.44 14.4602 28.888V27.448H15.3002V34H14.4602V32.548C14.2522 32.996 13.9202 33.368 13.4642 33.664C13.0162 33.952 12.4802 34.096 11.8562 34.096C11.2642 34.096 10.7282 33.956 10.2482 33.676C9.77616 33.396 9.40416 33 9.13216 32.488C8.86816 31.976 8.73616 31.384 8.73616 30.712ZM14.4602 30.724C14.4602 30.196 14.3522 29.732 14.1362 29.332C13.9202 28.932 13.6242 28.624 13.2482 28.408C12.8802 28.192 12.4722 28.084 12.0242 28.084C11.5602 28.084 11.1442 28.188 10.7762 28.396C10.4082 28.604 10.1162 28.908 9.90016 29.308C9.69216 29.7 9.58816 30.168 9.58816 30.712C9.58816 31.248 9.69216 31.72 9.90016 32.128C10.1162 32.528 10.4082 32.836 10.7762 33.052C11.1442 33.26 11.5602 33.364 12.0242 33.364C12.4722 33.364 12.8802 33.256 13.2482 33.04C13.6242 32.824 13.9202 32.516 14.1362 32.116C14.3522 31.716 14.4602 31.252 14.4602 30.724ZM16.8338 30.724C16.8338 30.044 16.9698 29.452 17.2418 28.948C17.5138 28.436 17.8898 28.044 18.3698 27.772C18.8498 27.492 19.3978 27.352 20.0138 27.352C20.8218 27.352 21.4858 27.552 22.0058 27.952C22.5338 28.352 22.8738 28.896 23.0258 29.584H22.1258C22.0138 29.112 21.7698 28.744 21.3938 28.48C21.0258 28.208 20.5658 28.072 20.0138 28.072C19.5738 28.072 19.1778 28.172 18.8258 28.372C18.4738 28.572 18.1938 28.872 17.9858 29.272C17.7858 29.664 17.6858 30.148 17.6858 30.724C17.6858 31.3 17.7858 31.788 17.9858 32.188C18.1938 32.588 18.4738 32.888 18.8258 33.088C19.1778 33.288 19.5738 33.388 20.0138 33.388C20.5658 33.388 21.0258 33.256 21.3938 32.992C21.7698 32.72 22.0138 32.344 22.1258 31.864H23.0258C22.8738 32.536 22.5338 33.076 22.0058 33.484C21.4778 33.892 20.8138 34.096 20.0138 34.096C19.3978 34.096 18.8498 33.96 18.3698 33.688C17.8898 33.408 17.5138 33.016 17.2418 32.512C16.9698 32 16.8338 31.404 16.8338 30.724ZM28.1172 34L25.4172 31.06V34H24.5772V25.12H25.4172V30.376L28.0572 27.448H29.2332L26.1252 30.712L29.2572 34H28.1172ZM38.9828 27.448L36.9308 34H36.0908L34.2788 28.504L32.4668 34H31.6148L29.5628 27.448H30.4148L32.0468 33.148L33.8828 27.448H34.7228L36.5348 33.16L38.1548 27.448H38.9828ZM39.744 30.712C39.744 30.04 39.876 29.452 40.14 28.948C40.412 28.436 40.784 28.044 41.256 27.772C41.736 27.492 42.276 27.352 42.876 27.352C43.5 27.352 44.036 27.496 44.484 27.784C44.94 28.072 45.268 28.44 45.468 28.888V27.448H46.308V34H45.468V32.548C45.26 32.996 44.928 33.368 44.472 33.664C44.024 33.952 43.488 34.096 42.864 34.096C42.272 34.096 41.736 33.956 41.256 33.676C40.784 33.396 40.412 33 40.14 32.488C39.876 31.976 39.744 31.384 39.744 30.712ZM45.468 30.724C45.468 30.196 45.36 29.732 45.144 29.332C44.928 28.932 44.632 28.624 44.256 28.408C43.888 28.192 43.48 28.084 43.032 28.084C42.568 28.084 42.152 28.188 41.784 28.396C41.416 28.604 41.124 28.908 40.908 29.308C40.7 29.7 40.596 30.168 40.596 30.712C40.596 31.248 40.7 31.72 40.908 32.128C41.124 32.528 41.416 32.836 41.784 33.052C42.152 33.26 42.568 33.364 43.032 33.364C43.48 33.364 43.888 33.256 44.256 33.04C44.632 32.824 44.928 32.516 45.144 32.116C45.36 31.716 45.468 31.252 45.468 30.724ZM49.0656 28.612C49.2496 28.204 49.5296 27.888 49.9056 27.664C50.2896 27.44 50.7576 27.328 51.3096 27.328V28.204H51.0816C50.4736 28.204 49.9856 28.368 49.6176 28.696C49.2496 29.024 49.0656 29.572 49.0656 30.34V34H48.2256V27.448H49.0656V28.612ZM52.1893 30.712C52.1893 30.04 52.3253 29.452 52.5973 28.948C52.8693 28.436 53.2413 28.044 53.7133 27.772C54.1933 27.492 54.7333 27.352 55.3333 27.352C55.9093 27.352 56.4293 27.492 56.8933 27.772C57.3573 28.052 57.6973 28.416 57.9133 28.864V25.12H58.7533V34H57.9133V32.536C57.7133 32.992 57.3853 33.368 56.9293 33.664C56.4733 33.952 55.9373 34.096 55.3213 34.096C54.7213 34.096 54.1813 33.956 53.7013 33.676C53.2293 33.396 52.8573 33 52.5853 32.488C52.3213 31.976 52.1893 31.384 52.1893 30.712ZM57.9133 30.724C57.9133 30.196 57.8053 29.732 57.5893 29.332C57.3733 28.932 57.0773 28.624 56.7013 28.408C56.3333 28.192 55.9253 28.084 55.4773 28.084C55.0133 28.084 54.5973 28.188 54.2293 28.396C53.8613 28.604 53.5693 28.908 53.3533 29.308C53.1453 29.7 53.0413 30.168 53.0413 30.712C53.0413 31.248 53.1453 31.72 53.3533 32.128C53.5693 32.528 53.8613 32.836 54.2293 33.052C54.5973 33.26 55.0133 33.364 55.4773 33.364C55.9253 33.364 56.3333 33.256 56.7013 33.04C57.0773 32.824 57.3733 32.516 57.5893 32.116C57.8053 31.716 57.9133 31.252 57.9133 30.724Z" fill="white"/>
<path d="M5.884 29.668L5.60467 28.7078L5.70072 30.6511L5.884 29.668ZM7.084 30.388L7.85094 29.7463H7.85094L7.084 30.388ZM7.252 32.908L6.40509 32.3762L6.40174 32.3816L7.252 32.908ZM6.328 33.712L6.7538 34.6168L6.761 34.6134L6.76816 34.6099L6.328 33.712ZM1.96 34H0.96V35H1.96V34ZM1.96 25.612V24.612H0.96V25.612H1.96ZM6.712 26.2L6.04677 26.9467L6.0535 26.9526L6.712 26.2ZM6.964 28.996L7.71663 29.6546L7.72456 29.6453L6.964 28.996ZM2.8 29.32H1.8V30.32H2.8V29.32ZM6.064 28.924L6.71969 29.679L6.72114 29.6778L6.064 28.924ZM6.064 26.716L5.40826 27.4711L5.41806 27.4794L6.064 26.716ZM2.8 26.32V25.32H1.8V26.32H2.8ZM6.22 32.86L5.57802 32.0932L5.56921 32.1007L6.22 32.86ZM6.196 30.472L5.54238 31.2288L5.55154 31.2367L5.56089 31.2444L6.196 30.472ZM2.8 30.016V29.016H1.8V30.016H2.8ZM2.8 33.292H1.8V34.292H2.8V33.292ZM5.884 29.668L5.70072 30.6511C5.92904 30.6936 6.12771 30.8034 6.31706 31.0297L7.084 30.388L7.85094 29.7463C7.38429 29.1886 6.78296 28.8184 6.06728 28.6849L5.884 29.668ZM7.084 30.388L6.31706 31.0297C6.49167 31.2384 6.576 31.4662 6.576 31.756H7.576H8.576C8.576 31.0058 8.33233 30.3216 7.85094 29.7463L7.084 30.388ZM7.576 31.756H6.576C6.576 32.0005 6.51656 32.1987 6.40511 32.3762L7.252 32.908L8.09889 33.4398C8.41944 32.9293 8.576 32.3595 8.576 31.756H7.576ZM7.252 32.908L6.40174 32.3816C6.30691 32.5348 6.15278 32.6842 5.88784 32.8141L6.328 33.712L6.76816 34.6099C7.31922 34.3398 7.78109 33.9532 8.10227 33.4344L7.252 32.908ZM6.328 33.712L5.9022 32.8072C5.65732 32.9224 5.32189 33 4.864 33V34V35C5.54211 35 6.18268 34.8856 6.7538 34.6168L6.328 33.712ZM4.864 34V33H1.96V34V35H4.864V34ZM1.96 34H2.96V25.612H1.96H0.96V34H1.96ZM1.96 25.612V26.612H4.78V25.612V24.612H1.96V25.612ZM4.78 25.612V26.612C5.48905 26.612 5.85626 26.7769 6.04679 26.9467L6.712 26.2L7.37721 25.4533C6.68774 24.8391 5.76695 24.612 4.78 24.612V25.612ZM6.712 26.2L6.0535 26.9526C6.27285 27.1445 6.384 27.3725 6.384 27.724H7.384H8.384C8.384 26.8275 8.04715 26.0395 7.3705 25.4474L6.712 26.2ZM7.384 27.724H6.384C6.384 28.0571 6.29865 28.2352 6.20344 28.3467L6.964 28.996L7.72456 29.6453C8.18935 29.1008 8.384 28.4309 8.384 27.724H7.384ZM6.964 28.996L6.21142 28.3375C6.06695 28.5026 5.87621 28.6288 5.60467 28.7078L5.884 29.668L6.16333 30.6282C6.77179 30.4512 7.30105 30.1294 7.71658 29.6545L6.964 28.996ZM2.8 29.32V30.32H4.756V29.32V28.32H2.8V29.32ZM4.756 29.32V30.32C5.46683 30.32 6.17131 30.1553 6.71969 29.679L6.064 28.924L5.40831 28.169C5.34869 28.2207 5.18117 28.32 4.756 28.32V29.32ZM6.064 28.924L6.72114 29.6778C7.28281 29.1881 7.532 28.5239 7.532 27.808H6.532H5.532C5.532 28.0361 5.46919 28.1159 5.40687 28.1702L6.064 28.924ZM6.532 27.808H7.532C7.532 27.0944 7.27841 26.4336 6.70994 25.9526L6.064 26.716L5.41806 27.4794C5.47359 27.5264 5.532 27.5936 5.532 27.808H6.532ZM6.064 26.716L6.71969 25.961C6.16477 25.4791 5.44235 25.32 4.72 25.32V26.32V27.32C5.18165 27.32 5.35523 27.4249 5.40831 27.471L6.064 26.716ZM4.72 26.32V25.32H2.8V26.32V27.32H4.72V26.32ZM2.8 26.32H1.8V29.32H2.8H3.8V26.32H2.8ZM4.804 33.292V34.292C5.56152 34.292 6.29571 34.1122 6.87079 33.6193L6.22 32.86L5.56921 32.1007C5.47229 32.1838 5.26249 32.292 4.804 32.292V33.292ZM6.22 32.86L6.86194 33.6268C7.4626 33.1239 7.736 32.4309 7.736 31.672H6.736H5.736C5.736 31.9211 5.6654 32.0201 5.57806 32.0932L6.22 32.86ZM6.736 31.672H7.736C7.736 30.8967 7.44276 30.2025 6.83111 29.6996L6.196 30.472L5.56089 31.2444C5.66924 31.3335 5.736 31.4393 5.736 31.672H6.736ZM6.196 30.472L6.84962 29.7152C6.26852 29.2133 5.5368 29.016 4.768 29.016V30.016V31.016C5.1992 31.016 5.41948 31.1227 5.54238 31.2288L6.196 30.472ZM4.768 30.016V29.016H2.8V30.016V31.016H4.768V30.016ZM2.8 30.016H1.8V33.292H2.8H3.8V30.016H2.8ZM2.8 33.292V34.292H4.804V33.292V32.292H2.8V33.292ZM9.13216 28.948L8.24903 28.4788L8.24632 28.484L9.13216 28.948ZM10.2482 27.772L10.7475 28.6384L10.752 28.6358L10.2482 27.772ZM13.4762 27.784L12.9354 28.6252L12.9422 28.6295L13.4762 27.784ZM14.4602 28.888L13.547 29.2957L15.4602 28.888H14.4602ZM14.4602 27.448V26.448H13.4602V27.448H14.4602ZM15.3002 27.448H16.3002V26.448H15.3002V27.448ZM15.3002 34V35H16.3002V34H15.3002ZM14.4602 34H13.4602V35H14.4602V34ZM14.4602 32.548H15.4602L13.5531 32.1269L14.4602 32.548ZM13.4642 33.664L14.0049 34.5052L14.0086 34.5028L13.4642 33.664ZM10.2482 33.676L9.73794 34.5361L9.74429 34.5398L10.2482 33.676ZM9.13216 32.488L8.24329 32.9463L8.24904 32.9572L9.13216 32.488ZM14.1362 29.332L15.0161 28.8569L14.1362 29.332ZM13.2482 28.408L12.7419 29.2705L12.75 29.2751L13.2482 28.408ZM10.7762 28.396L11.2682 29.2666H11.2682L10.7762 28.396ZM9.90016 29.308L9.02023 28.8328L9.01681 28.8393L9.90016 29.308ZM9.90016 32.128L9.00925 32.5822L9.01463 32.5927L9.02025 32.6031L9.90016 32.128ZM10.7762 33.052L10.27 33.9144L10.277 33.9185L10.2841 33.9226L10.7762 33.052ZM13.2482 33.04L12.75 32.1729L12.742 32.1776L13.2482 33.04ZM14.1362 32.116L15.0161 32.5911L14.1362 32.116ZM8.73616 30.712H9.73616C9.73616 30.1724 9.84146 29.749 10.018 29.412L9.13216 28.948L8.24632 28.484C7.89486 29.155 7.73616 29.9076 7.73616 30.712H8.73616ZM9.13216 28.948L10.0153 29.4172C10.2051 29.0599 10.4487 28.8106 10.7475 28.6384L10.2482 27.772L9.74886 26.9056C9.10357 27.2774 8.60323 27.8121 8.24904 28.4788L9.13216 28.948ZM10.2482 27.772L10.752 28.6358C11.067 28.4521 11.4306 28.352 11.8682 28.352V27.352V26.352C11.1057 26.352 10.3893 26.5319 9.74429 26.9082L10.2482 27.772ZM11.8682 27.352V28.352C12.3339 28.352 12.6748 28.4576 12.9354 28.6252L13.4762 27.784L14.0169 26.9428C13.3816 26.5344 12.6504 26.352 11.8682 26.352V27.352ZM13.4762 27.784L12.9422 28.6295C13.2486 28.823 13.4354 29.0456 13.547 29.2957L14.4602 28.888L15.3733 28.4803C15.0849 27.8344 14.6157 27.321 14.0101 26.9385L13.4762 27.784ZM14.4602 28.888H15.4602V27.448H14.4602H13.4602V28.888H14.4602ZM14.4602 27.448V28.448H15.3002V27.448V26.448H14.4602V27.448ZM15.3002 27.448H14.3002V34H15.3002H16.3002V27.448H15.3002ZM15.3002 34V33H14.4602V34V35H15.3002V34ZM14.4602 34H15.4602V32.548H14.4602H13.4602V34H14.4602ZM14.4602 32.548L13.5531 32.1269C13.4322 32.3874 13.2344 32.6209 12.9197 32.8252L13.4642 33.664L14.0086 34.5028C14.6059 34.1151 15.0721 33.6046 15.3672 32.9691L14.4602 32.548ZM13.4642 33.664L12.9234 32.8228C12.6628 32.9904 12.3219 33.096 11.8562 33.096V34.096V35.096C12.6384 35.096 13.3696 34.9136 14.0049 34.5052L13.4642 33.664ZM11.8562 34.096V33.096C11.4292 33.096 11.0691 32.9972 10.752 32.8122L10.2482 33.676L9.74429 34.5398C10.3873 34.9148 11.0991 35.096 11.8562 35.096V34.096ZM10.2482 33.676L10.7584 32.8159C10.4532 32.6349 10.2063 32.3783 10.0153 32.0188L9.13216 32.488L8.24904 32.9572C8.60206 33.6217 9.0991 34.1571 9.73795 34.5361L10.2482 33.676ZM9.13216 32.488L10.021 32.0297C9.84131 31.6813 9.73616 31.2511 9.73616 30.712H8.73616H7.73616C7.73616 31.5169 7.89501 32.2707 8.24335 32.9463L9.13216 32.488ZM14.4602 30.724H15.4602C15.4602 30.057 15.3228 29.4248 15.0161 28.8569L14.1362 29.332L13.2563 29.8071C13.3816 30.0392 13.4602 30.335 13.4602 30.724H14.4602ZM14.1362 29.332L15.0161 28.8569C14.7162 28.3015 14.2915 27.8541 13.7463 27.5409L13.2482 28.408L12.75 29.2751C12.9568 29.3939 13.1241 29.5625 13.2563 29.8071L14.1362 29.332ZM13.2482 28.408L13.7544 27.5456C13.2251 27.2349 12.6409 27.084 12.0242 27.084V28.084V29.084C12.3034 29.084 12.5352 29.1491 12.742 29.2704L13.2482 28.408ZM12.0242 28.084V27.084C11.405 27.084 10.8166 27.2245 10.2841 27.5254L10.7762 28.396L11.2682 29.2666C11.4717 29.1515 11.7153 29.084 12.0242 29.084V28.084ZM10.7762 28.396L10.2841 27.5254C9.73975 27.8331 9.3187 28.2802 9.02025 28.8329L9.90016 29.308L10.7801 29.7831C10.9136 29.5358 11.0766 29.3749 11.2682 29.2666L10.7762 28.396ZM9.90016 29.308L9.01681 28.8393C8.71677 29.4047 8.58816 30.041 8.58816 30.712H9.58816H10.5882C10.5882 30.295 10.6675 29.9953 10.7835 29.7767L9.90016 29.308ZM9.58816 30.712H8.58816C8.58816 31.379 8.71826 32.0114 9.00925 32.5822L9.90016 32.128L10.7911 31.6738C10.6661 31.4286 10.5882 31.117 10.5882 30.712H9.58816ZM9.90016 32.128L9.02025 32.6031C9.31718 33.153 9.73395 33.5998 10.27 33.9144L10.7762 33.052L11.2824 32.1896C11.0824 32.0722 10.9151 31.903 10.7801 31.6529L9.90016 32.128ZM10.7762 33.052L10.2841 33.9226C10.8166 34.2235 11.405 34.364 12.0242 34.364V33.364V32.364C11.7153 32.364 11.4717 32.2965 11.2682 32.1814L10.7762 33.052ZM12.0242 33.364V34.364C12.6409 34.364 13.2251 34.2131 13.7544 33.9024L13.2482 33.04L12.742 32.1776C12.5352 32.2989 12.3034 32.364 12.0242 32.364V33.364ZM13.2482 33.04L13.7463 33.9071C14.2915 33.5939 14.7162 33.1465 15.0161 32.5911L14.1362 32.116L13.2563 31.6409C13.1241 31.8855 12.9568 32.0541 12.75 32.1729L13.2482 33.04ZM14.1362 32.116L15.0161 32.5911C15.3228 32.0232 15.4602 31.391 15.4602 30.724H14.4602H13.4602C13.4602 31.113 13.3816 31.4088 13.2563 31.6409L14.1362 32.116ZM17.2418 28.948L18.1219 29.4229L18.1249 29.4172L17.2418 28.948ZM18.3698 27.772L18.8629 28.6421L18.8737 28.6358L18.3698 27.772ZM22.0058 27.952L21.3961 28.7446L21.402 28.7491L22.0058 27.952ZM23.0258 29.584V30.584H24.2709L24.0023 29.3683L23.0258 29.584ZM22.1258 29.584L21.1528 29.8149L21.3353 30.584H22.1258V29.584ZM21.3938 28.48L20.7994 29.2842L20.8092 29.2914L20.8192 29.2984L21.3938 28.48ZM18.8258 28.372L19.3198 29.2415V29.2415L18.8258 28.372ZM17.9858 29.272L17.0986 28.8106L17.0951 28.8175L17.9858 29.272ZM17.9858 32.188L17.0914 32.6352L17.0949 32.6423L17.0986 32.6494L17.9858 32.188ZM18.8258 33.088L19.3198 32.2185L18.8258 33.088ZM21.3938 32.992L21.9767 33.8045L21.9799 33.8022L21.3938 32.992ZM22.1258 31.864V30.864H21.3323L21.152 31.6368L22.1258 31.864ZM23.0258 31.864L24.0012 32.0846L24.2773 30.864H23.0258V31.864ZM22.0058 33.484L22.6173 34.2753L22.0058 33.484ZM18.3698 33.688L17.8659 34.5518L17.8768 34.558L18.3698 33.688ZM17.2418 32.512L16.3587 32.9812L16.3618 32.9869L17.2418 32.512ZM16.8338 30.724H17.8338C17.8338 30.1788 17.9421 29.756 18.1218 29.4229L17.2418 28.948L16.3618 28.4731C15.9975 29.148 15.8338 29.9092 15.8338 30.724H16.8338ZM17.2418 28.948L18.1249 29.4172C18.3124 29.0642 18.557 28.8153 18.8628 28.642L18.3698 27.772L17.8768 26.902C17.2227 27.2727 16.7152 27.8078 16.3587 28.4788L17.2418 28.948ZM18.3698 27.772L18.8737 28.6358C19.1846 28.4544 19.5552 28.352 20.0138 28.352V27.352V26.352C19.2405 26.352 18.515 26.5296 17.8659 26.9082L18.3698 27.772ZM20.0138 27.352V28.352C20.6535 28.352 21.0882 28.5078 21.3961 28.7446L22.0058 27.952L22.6155 27.1594C21.8834 26.5962 20.9901 26.352 20.0138 26.352V27.352ZM22.0058 27.952L21.402 28.7491C21.728 28.9961 21.9451 29.3276 22.0494 29.7997L23.0258 29.584L24.0023 29.3683C23.8026 28.4644 23.3396 27.7079 22.6097 27.1549L22.0058 27.952ZM23.0258 29.584V28.584H22.1258V29.584V30.584H23.0258V29.584ZM22.1258 29.584L23.0988 29.3531C22.9338 28.6577 22.5565 28.0745 21.9684 27.6616L21.3938 28.48L20.8192 29.2984C20.9831 29.4135 21.0939 29.5663 21.1528 29.8149L22.1258 29.584ZM21.3938 28.48L21.9882 27.6758C21.415 27.2521 20.7346 27.072 20.0138 27.072V28.072V29.072C20.3971 29.072 20.6366 29.1639 20.7994 29.2842L21.3938 28.48ZM20.0138 28.072V27.072C19.4161 27.072 18.8473 27.2096 18.3318 27.5025L18.8258 28.372L19.3198 29.2415C19.5083 29.1344 19.7315 29.072 20.0138 29.072V28.072ZM18.8258 28.372L18.3318 27.5025C17.7934 27.8084 17.3851 28.2597 17.0986 28.8106L17.9858 29.272L18.873 29.7334C19.0025 29.4843 19.1542 29.3356 19.3198 29.2415L18.8258 28.372ZM17.9858 29.272L17.0951 28.8175C16.8046 29.3869 16.6858 30.037 16.6858 30.724H17.6858H18.6858C18.6858 30.259 18.7671 29.9411 18.8766 29.7265L17.9858 29.272ZM17.6858 30.724H16.6858C16.6858 31.412 16.8049 32.0623 17.0914 32.6352L17.9858 32.188L18.8802 31.7408C18.7667 31.5137 18.6858 31.188 18.6858 30.724H17.6858ZM17.9858 32.188L17.0986 32.6494C17.3851 33.2003 17.7934 33.6516 18.3318 33.9575L18.8258 33.088L19.3198 32.2185C19.1542 32.1244 19.0025 31.9757 18.873 31.7266L17.9858 32.188ZM18.8258 33.088L18.3318 33.9575C18.8473 34.2504 19.4161 34.388 20.0138 34.388V33.388V32.388C19.7315 32.388 19.5083 32.3256 19.3198 32.2185L18.8258 33.088ZM20.0138 33.388V34.388C20.7284 34.388 21.4045 34.215 21.9767 33.8045L21.3938 32.992L20.8109 32.1795C20.6471 32.297 20.4033 32.388 20.0138 32.388V33.388ZM21.3938 32.992L21.9799 33.8022C22.564 33.3797 22.9366 32.7901 23.0997 32.0912L22.1258 31.864L21.152 31.6368C21.091 31.8979 20.9756 32.0603 20.8077 32.1818L21.3938 32.992ZM22.1258 31.864V32.864H23.0258V31.864V30.864H22.1258V31.864ZM23.0258 31.864L22.0505 31.6434C21.9479 32.0967 21.732 32.4318 21.3944 32.6927L22.0058 33.484L22.6173 34.2753C23.3356 33.7202 23.7997 32.9753 24.0012 32.0846L23.0258 31.864ZM22.0058 33.484L21.3944 32.6927C21.0743 32.94 20.638 33.096 20.0138 33.096V34.096V35.096C20.9897 35.096 21.8813 34.844 22.6173 34.2753L22.0058 33.484ZM20.0138 34.096V33.096C19.5501 33.096 19.1755 32.9952 18.8628 32.818L18.3698 33.688L17.8768 34.558C18.5241 34.9248 19.2456 35.096 20.0138 35.096V34.096ZM18.3698 33.688L18.8737 32.8242C18.5574 32.6397 18.3094 32.3846 18.1218 32.0371L17.2418 32.512L16.3618 32.9869C16.7183 33.6474 17.2222 34.1763 17.8659 34.5518L18.3698 33.688ZM17.2418 32.512L18.1249 32.0428C17.9419 31.6984 17.8338 31.2687 17.8338 30.724H16.8338H15.8338C15.8338 31.5393 15.9977 32.3016 16.3587 32.9812L17.2418 32.512ZM28.1172 34L27.3807 34.6764L27.6778 35H28.1172V34ZM25.4172 31.06L26.1537 30.3836L24.4172 28.4927V31.06H25.4172ZM25.4172 34V35H26.4172V34H25.4172ZM24.5772 34H23.5772V35H24.5772V34ZM24.5772 25.12V24.12H23.5772V25.12H24.5772ZM25.4172 25.12H26.4172V24.12H25.4172V25.12ZM25.4172 30.376H24.4172V32.9784L26.1599 31.0456L25.4172 30.376ZM28.0572 27.448V26.448H27.6124L27.3145 26.7784L28.0572 27.448ZM29.2332 27.448L29.9574 28.1376L31.5662 26.448H29.2332V27.448ZM26.1252 30.712L25.401 30.0224L24.7442 30.7121L25.4011 31.4017L26.1252 30.712ZM29.2572 34V35H31.5908L29.9813 33.3103L29.2572 34ZM28.1172 34L28.8537 33.3236L26.1537 30.3836L25.4172 31.06L24.6807 31.7364L27.3807 34.6764L28.1172 34ZM25.4172 31.06H24.4172V34H25.4172H26.4172V31.06H25.4172ZM25.4172 34V33H24.5772V34V35H25.4172V34ZM24.5772 34H25.5772V25.12H24.5772H23.5772V34H24.5772ZM24.5772 25.12V26.12H25.4172V25.12V24.12H24.5772V25.12ZM25.4172 25.12H24.4172V30.376H25.4172H26.4172V25.12H25.4172ZM25.4172 30.376L26.1599 31.0456L28.7999 28.1176L28.0572 27.448L27.3145 26.7784L24.6745 29.7064L25.4172 30.376ZM28.0572 27.448V28.448H29.2332V27.448V26.448H28.0572V27.448ZM29.2332 27.448L28.509 26.7584L25.401 30.0224L26.1252 30.712L26.8494 31.4016L29.9574 28.1376L29.2332 27.448ZM26.1252 30.712L25.4011 31.4017L28.5331 34.6897L29.2572 34L29.9813 33.3103L26.8493 30.0223L26.1252 30.712ZM29.2572 34V33H28.1172V34V35H29.2572V34ZM38.9828 27.448L39.9371 27.7469L40.3439 26.448H38.9828V27.448ZM36.9308 34V35H37.6655L37.8851 34.2989L36.9308 34ZM36.0908 34L35.1411 34.3131L35.3676 35H36.0908V34ZM34.2788 28.504L35.2285 28.1909L34.2788 25.3103L33.3291 28.1909L34.2788 28.504ZM32.4668 34V35H33.1901L33.4165 34.3131L32.4668 34ZM31.6148 34L30.6605 34.2989L30.8801 35H31.6148V34ZM29.5628 27.448V26.448H28.2017L28.6085 27.7469L29.5628 27.448ZM30.4148 27.448L31.3762 27.1727L31.1687 26.448H30.4148V27.448ZM32.0468 33.148L31.0854 33.4233L31.9905 36.5844L32.9987 33.4546L32.0468 33.148ZM33.8828 27.448V26.448H33.1543L32.931 27.1414L33.8828 27.448ZM34.7228 27.448L35.676 27.1456L35.4547 26.448H34.7228V27.448ZM36.5348 33.16L35.5816 33.4624L36.5884 36.6361L37.4969 33.4329L36.5348 33.16ZM38.1548 27.448V26.448H37.399L37.1928 27.1751L38.1548 27.448ZM38.9828 27.448L38.0285 27.1491L35.9765 33.7011L36.9308 34L37.8851 34.2989L39.9371 27.7469L38.9828 27.448ZM36.9308 34V33H36.0908V34V35H36.9308V34ZM36.0908 34L37.0405 33.6869L35.2285 28.1909L34.2788 28.504L33.3291 28.8171L35.1411 34.3131L36.0908 34ZM34.2788 28.504L33.3291 28.1909L31.5171 33.6869L32.4668 34L33.4165 34.3131L35.2285 28.8171L34.2788 28.504ZM32.4668 34V33H31.6148V34V35H32.4668V34ZM31.6148 34L32.5691 33.7011L30.5171 27.1491L29.5628 27.448L28.6085 27.7469L30.6605 34.2989L31.6148 34ZM29.5628 27.448V28.448H30.4148V27.448V26.448H29.5628V27.448ZM30.4148 27.448L29.4534 27.7233L31.0854 33.4233L32.0468 33.148L33.0082 32.8727L31.3762 27.1727L30.4148 27.448ZM32.0468 33.148L32.9987 33.4546L34.8347 27.7546L33.8828 27.448L32.931 27.1414L31.095 32.8414L32.0468 33.148ZM33.8828 27.448V28.448H34.7228V27.448V26.448H33.8828V27.448ZM34.7228 27.448L33.7696 27.7504L35.5816 33.4624L36.5348 33.16L37.488 32.8576L35.676 27.1456L34.7228 27.448ZM36.5348 33.16L37.4969 33.4329L39.1169 27.7209L38.1548 27.448L37.1928 27.1751L35.5728 32.8871L36.5348 33.16ZM38.1548 27.448V28.448H38.9828V27.448V26.448H38.1548V27.448ZM40.14 28.948L39.2568 28.4788L39.2541 28.484L40.14 28.948ZM41.256 27.772L41.7553 28.6384L41.7598 28.6358L41.256 27.772ZM44.484 27.784L43.9432 28.6252L43.95 28.6295L44.484 27.784ZM45.468 28.888L44.5548 29.2957L46.468 28.888H45.468ZM45.468 27.448V26.448H44.468V27.448H45.468ZM46.308 27.448H47.308V26.448H46.308V27.448ZM46.308 34V35H47.308V34H46.308ZM45.468 34H44.468V35H45.468V34ZM45.468 32.548H46.468L44.561 32.1269L45.468 32.548ZM44.472 33.664L45.0127 34.5052L45.0164 34.5028L44.472 33.664ZM41.256 33.676L40.7458 34.5361L40.7521 34.5398L41.256 33.676ZM40.14 32.488L39.2511 32.9463L39.2569 32.9572L40.14 32.488ZM45.144 29.332L46.0239 28.8569L45.144 29.332ZM44.256 28.408L43.7497 29.2705L43.7578 29.2751L44.256 28.408ZM41.784 28.396L42.276 29.2666L41.784 28.396ZM40.908 29.308L40.028 28.8328L40.0246 28.8393L40.908 29.308ZM40.908 32.128L40.0171 32.5822L40.0224 32.5927L40.0281 32.6031L40.908 32.128ZM41.784 33.052L41.2778 33.9144L41.2848 33.9185L41.2919 33.9226L41.784 33.052ZM44.256 33.04L43.7578 32.1729L43.7498 32.1776L44.256 33.04ZM45.144 32.116L46.0239 32.5911L45.144 32.116ZM39.744 30.712H40.744C40.744 30.1724 40.8493 29.749 41.0258 29.412L40.14 28.948L39.2541 28.484C38.9027 29.155 38.744 29.9076 38.744 30.712H39.744ZM40.14 28.948L41.0231 29.4172C41.2129 29.0599 41.4566 28.8106 41.7553 28.6384L41.256 27.772L40.7567 26.9056C40.1114 27.2774 39.611 27.8121 39.2569 28.4788L40.14 28.948ZM41.256 27.772L41.7598 28.6358C42.0748 28.4521 42.4384 28.352 42.876 28.352V27.352V26.352C42.1135 26.352 41.3972 26.5319 40.7521 26.9082L41.256 27.772ZM42.876 27.352V28.352C43.3417 28.352 43.6826 28.4576 43.9432 28.6252L44.484 27.784L45.0247 26.9428C44.3894 26.5344 43.6582 26.352 42.876 26.352V27.352ZM44.484 27.784L43.95 28.6295C44.2564 28.823 44.4432 29.0456 44.5548 29.2957L45.468 28.888L46.3811 28.4803C46.0927 27.8344 45.6235 27.321 45.018 26.9385L44.484 27.784ZM45.468 28.888H46.468V27.448H45.468H44.468V28.888H45.468ZM45.468 27.448V28.448H46.308V27.448V26.448H45.468V27.448ZM46.308 27.448H45.308V34H46.308H47.308V27.448H46.308ZM46.308 34V33H45.468V34V35H46.308V34ZM45.468 34H46.468V32.548H45.468H44.468V34H45.468ZM45.468 32.548L44.561 32.1269C44.44 32.3874 44.2422 32.6209 43.9275 32.8252L44.472 33.664L45.0164 34.5028C45.6137 34.1151 46.0799 33.6046 46.375 32.9691L45.468 32.548ZM44.472 33.664L43.9312 32.8228C43.6706 32.9904 43.3297 33.096 42.864 33.096V34.096V35.096C43.6462 35.096 44.3774 34.9136 45.0127 34.5052L44.472 33.664ZM42.864 34.096V33.096C42.437 33.096 42.0769 32.9972 41.7598 32.8122L41.256 33.676L40.7521 34.5398C41.3951 34.9148 42.1069 35.096 42.864 35.096V34.096ZM41.256 33.676L41.7662 32.8159C41.461 32.6349 41.2141 32.3783 41.0231 32.0188L40.14 32.488L39.2569 32.9572C39.6099 33.6217 40.1069 34.1571 40.7458 34.5361L41.256 33.676ZM40.14 32.488L41.0288 32.0297C40.8491 31.6813 40.744 31.2511 40.744 30.712H39.744H38.744C38.744 31.5169 38.9028 32.2707 39.2512 32.9463L40.14 32.488ZM45.468 30.724H46.468C46.468 30.057 46.3306 29.4248 46.0239 28.8569L45.144 29.332L44.2641 29.8071C44.3894 30.0392 44.468 30.335 44.468 30.724H45.468ZM45.144 29.332L46.0239 28.8569C45.724 28.3015 45.2993 27.8541 44.7541 27.5409L44.256 28.408L43.7578 29.2751C43.9646 29.3939 44.1319 29.5625 44.2641 29.8071L45.144 29.332ZM44.256 28.408L44.7622 27.5456C44.2329 27.2349 43.6487 27.084 43.032 27.084V28.084V29.084C43.3113 29.084 43.543 29.1491 43.7498 29.2704L44.256 28.408ZM43.032 28.084V27.084C42.4128 27.084 41.8244 27.2245 41.2919 27.5254L41.784 28.396L42.276 29.2666C42.4796 29.1515 42.7231 29.084 43.032 29.084V28.084ZM41.784 28.396L41.2919 27.5254C40.7476 27.8331 40.3265 28.2802 40.0281 28.8329L40.908 29.308L41.7879 29.7831C41.9214 29.5358 42.0844 29.3749 42.276 29.2666L41.784 28.396ZM40.908 29.308L40.0246 28.8393C39.7246 29.4047 39.596 30.041 39.596 30.712H40.596H41.596C41.596 30.295 41.6754 29.9953 41.7913 29.7767L40.908 29.308ZM40.596 30.712H39.596C39.596 31.379 39.7261 32.0114 40.0171 32.5822L40.908 32.128L41.7989 31.6738C41.6739 31.4286 41.596 31.117 41.596 30.712H40.596ZM40.908 32.128L40.0281 32.6031C40.325 33.153 40.7418 33.5998 41.2778 33.9144L41.784 33.052L42.2902 32.1896C42.0902 32.0722 41.9229 31.903 41.7879 31.6529L40.908 32.128ZM41.784 33.052L41.2919 33.9226C41.8244 34.2235 42.4128 34.364 43.032 34.364V33.364V32.364C42.7231 32.364 42.4796 32.2965 42.276 32.1814L41.784 33.052ZM43.032 33.364V34.364C43.6487 34.364 44.2329 34.2131 44.7622 33.9024L44.256 33.04L43.7498 32.1776C43.543 32.2989 43.3113 32.364 43.032 32.364V33.364ZM44.256 33.04L44.7541 33.9071C45.2993 33.5939 45.724 33.1465 46.0239 32.5911L45.144 32.116L44.2641 31.6409C44.1319 31.8855 43.9646 32.0541 43.7578 32.1729L44.256 33.04ZM45.144 32.116L46.0239 32.5911C46.3306 32.0232 46.468 31.391 46.468 30.724H45.468H44.468C44.468 31.113 44.3894 31.4088 44.2641 31.6409L45.144 32.116ZM49.0656 28.612H48.0656L49.9772 29.0231L49.0656 28.612ZM49.9056 27.664L49.4017 26.8002L49.3938 26.8049L49.9056 27.664ZM51.3096 27.328H52.3096V26.328H51.3096V27.328ZM51.3096 28.204V29.204H52.3096V28.204H51.3096ZM49.6176 28.696L48.9523 27.9495L49.6176 28.696ZM49.0656 34V35H50.0656V34H49.0656ZM48.2256 34H47.2256V35H48.2256V34ZM48.2256 27.448V26.448H47.2256V27.448H48.2256ZM49.0656 27.448H50.0656V26.448H49.0656V27.448ZM49.0656 28.612L49.9772 29.0231C50.079 28.7974 50.2216 28.6397 50.4174 28.5231L49.9056 27.664L49.3938 26.8049C48.8376 27.1363 48.4202 27.6106 48.154 28.2009L49.0656 28.612ZM49.9056 27.664L50.4095 28.5278C50.6077 28.4122 50.8923 28.328 51.3096 28.328V27.328V26.328C50.623 26.328 49.9716 26.4678 49.4018 26.8002L49.9056 27.664ZM51.3096 27.328H50.3096V28.204H51.3096H52.3096V27.328H51.3096ZM51.3096 28.204V27.204H51.0816V28.204V29.204H51.3096V28.204ZM51.0816 28.204V27.204C50.288 27.204 49.5436 27.4224 48.9523 27.9495L49.6176 28.696L50.283 29.4425C50.4277 29.3136 50.6593 29.204 51.0816 29.204V28.204ZM49.6176 28.696L48.9523 27.9495C48.2768 28.5515 48.0656 29.4445 48.0656 30.34H49.0656H50.0656C50.0656 29.6995 50.2225 29.4965 50.283 29.4425L49.6176 28.696ZM49.0656 30.34H48.0656V34H49.0656H50.0656V30.34H49.0656ZM49.0656 34V33H48.2256V34V35H49.0656V34ZM48.2256 34H49.2256V27.448H48.2256H47.2256V34H48.2256ZM48.2256 27.448V28.448H49.0656V27.448V26.448H48.2256V27.448ZM49.0656 27.448H48.0656V28.612H49.0656H50.0656V27.448H49.0656ZM52.5973 28.948L53.4773 29.4229L53.4804 29.4172L52.5973 28.948ZM53.7133 27.772L54.2126 28.6384L54.2172 28.6358L53.7133 27.772ZM56.8933 27.772L57.4099 26.9158V26.9158L56.8933 27.772ZM57.9133 28.864L57.0125 29.2983L58.9133 28.864H57.9133ZM57.9133 25.12V24.12H56.9133V25.12H57.9133ZM58.7533 25.12H59.7533V24.12H58.7533V25.12ZM58.7533 34V35H59.7533V34H58.7533ZM57.9133 34H56.9133V35H57.9133V34ZM57.9133 32.536H58.9133L56.9975 32.1343L57.9133 32.536ZM56.9293 33.664L57.4633 34.5096L57.4738 34.5028L56.9293 33.664ZM53.7013 33.676L53.1911 34.5361L53.1974 34.5398L53.7013 33.676ZM52.5853 32.488L51.6964 32.9463L51.7022 32.9572L52.5853 32.488ZM57.5893 29.332L58.4692 28.8569L57.5893 29.332ZM56.7013 28.408L56.1951 29.2705L56.2032 29.2751L56.7013 28.408ZM54.2293 28.396L54.7213 29.2666L54.2293 28.396ZM53.3533 29.308L52.4734 28.8328L52.4699 28.8393L53.3533 29.308ZM53.3533 32.128L52.4624 32.5822L52.4678 32.5927L52.4734 32.6031L53.3533 32.128ZM54.2293 33.052L53.7231 33.9144L53.7301 33.9185L53.7372 33.9226L54.2293 33.052ZM56.7013 33.04L56.2031 32.1729L56.1951 32.1776L56.7013 33.04ZM57.5893 32.116L58.4692 32.5911L57.5893 32.116ZM52.1893 30.712H53.1893C53.1893 30.177 53.2967 29.7576 53.4773 29.4229L52.5973 28.948L51.7173 28.4731C51.3539 29.1464 51.1893 29.903 51.1893 30.712H52.1893ZM52.5973 28.948L53.4804 29.4172C53.6702 29.0599 53.9139 28.8106 54.2126 28.6384L53.7133 27.772L53.214 26.9056C52.5687 27.2774 52.0684 27.8121 51.7142 28.4788L52.5973 28.948ZM53.7133 27.772L54.2172 28.6358C54.5321 28.4521 54.8957 28.352 55.3333 28.352V27.352V26.352C54.5708 26.352 53.8545 26.5319 53.2094 26.9082L53.7133 27.772ZM55.3333 27.352V28.352C55.7391 28.352 56.0784 28.4482 56.3766 28.6282L56.8933 27.772L57.4099 26.9158C56.7801 26.5358 56.0795 26.352 55.3333 26.352V27.352ZM56.8933 27.772L56.3766 28.6282C56.6899 28.8172 56.8884 29.0409 57.0125 29.2983L57.9133 28.864L58.814 28.4297C58.5062 27.7911 58.0247 27.2868 57.4099 26.9158L56.8933 27.772ZM57.9133 28.864H58.9133V25.12H57.9133H56.9133V28.864H57.9133ZM57.9133 25.12V26.12H58.7533V25.12V24.12H57.9133V25.12ZM58.7533 25.12H57.7533V34H58.7533H59.7533V25.12H58.7533ZM58.7533 34V33H57.9133V34V35H58.7533V34ZM57.9133 34H58.9133V32.536H57.9133H56.9133V34H57.9133ZM57.9133 32.536L56.9975 32.1343C56.8831 32.3951 56.6927 32.6254 56.3848 32.8252L56.9293 33.664L57.4738 34.5028C58.0779 34.1106 58.5434 33.5889 58.8291 32.9377L57.9133 32.536ZM56.9293 33.664L56.3953 32.8185C56.1209 32.9918 55.7758 33.096 55.3213 33.096V34.096V35.096C56.0988 35.096 56.8257 34.9122 57.4633 34.5095L56.9293 33.664ZM55.3213 34.096V33.096C54.8837 33.096 54.5201 32.9959 54.2052 32.8122L53.7013 33.676L53.1974 34.5398C53.8425 34.9161 54.5588 35.096 55.3213 35.096V34.096ZM53.7013 33.676L54.2115 32.8159C53.9063 32.6349 53.6594 32.3783 53.4684 32.0188L52.5853 32.488L51.7022 32.9572C52.0552 33.6217 52.5522 34.1571 53.1911 34.5361L53.7013 33.676ZM52.5853 32.488L53.4741 32.0297C53.2944 31.6813 53.1893 31.2511 53.1893 30.712H52.1893H51.1893C51.1893 31.5169 51.3481 32.2707 51.6965 32.9463L52.5853 32.488ZM57.9133 30.724H58.9133C58.9133 30.057 58.7759 29.4248 58.4692 28.8569L57.5893 29.332L56.7094 29.8071C56.8347 30.0392 56.9133 30.335 56.9133 30.724H57.9133ZM57.5893 29.332L58.4692 28.8569C58.1693 28.3015 57.7446 27.8541 57.1994 27.5409L56.7013 28.408L56.2032 29.2751C56.41 29.3939 56.5772 29.5625 56.7094 29.8071L57.5893 29.332ZM56.7013 28.408L57.2075 27.5456C56.6782 27.2349 56.094 27.084 55.4773 27.084V28.084V29.084C55.7566 29.084 55.9884 29.1491 56.1951 29.2704L56.7013 28.408ZM55.4773 28.084V27.084C54.8581 27.084 54.2697 27.2245 53.7372 27.5254L54.2293 28.396L54.7213 29.2666C54.9249 29.1515 55.1684 29.084 55.4773 29.084V28.084ZM54.2293 28.396L53.7372 27.5254C53.1929 27.8331 52.7718 28.2802 52.4734 28.8329L53.3533 29.308L54.2332 29.7831C54.3667 29.5358 54.5297 29.3749 54.7213 29.2666L54.2293 28.396ZM53.3533 29.308L52.4699 28.8393C52.1699 29.4047 52.0413 30.041 52.0413 30.712H53.0413H54.0413C54.0413 30.295 54.1207 29.9953 54.2366 29.7767L53.3533 29.308ZM53.0413 30.712H52.0413C52.0413 31.379 52.1714 32.0114 52.4624 32.5822L53.3533 32.128L54.2442 31.6738C54.1192 31.4286 54.0413 31.117 54.0413 30.712H53.0413ZM53.3533 32.128L52.4734 32.6031C52.7703 33.153 53.1871 33.5998 53.7231 33.9144L54.2293 33.052L54.7355 32.1896C54.5355 32.0722 54.3683 31.903 54.2332 31.6529L53.3533 32.128ZM54.2293 33.052L53.7372 33.9226C54.2697 34.2235 54.8581 34.364 55.4773 34.364V33.364V32.364C55.1684 32.364 54.9249 32.2965 54.7213 32.1814L54.2293 33.052ZM55.4773 33.364V34.364C56.094 34.364 56.6782 34.2131 57.2075 33.9024L56.7013 33.04L56.1951 32.1776C55.9884 32.2989 55.7566 32.364 55.4773 32.364V33.364ZM56.7013 33.04L57.1994 33.9071C57.7446 33.5939 58.1693 33.1465 58.4692 32.5911L57.5893 32.116L56.7094 31.6409C56.5772 31.8855 56.41 32.0541 56.2032 32.1729L56.7013 33.04ZM57.5893 32.116L58.4692 32.5911C58.7759 32.0232 58.9133 31.391 58.9133 30.724H57.9133H56.9133C56.9133 31.113 56.8347 31.4088 56.7094 31.6409L57.5893 32.116Z" fill="#5D75AA" mask="url(#path-2-outside-1_7_285)"/>
<defs>
<linearGradient id="paint0_linear_7_285" x1="30" y1="56" x2="30" y2="0" gradientUnits="userSpaceOnUse">
<stop stop-color="#06266B"/>
<stop offset="1" stop-color="#495689"/>
</linearGradient>
</defs>
</svg>
