<svg width="60" height="56" viewBox="0 0 60 56" fill="none" xmlns="http://www.w3.org/2000/svg">
<rect x="0.5" y="0.5" width="59" height="55" rx="4.5" fill="url(#paint0_linear_7_140)" stroke="#06266B"/>
<path d="M12.496 25.612V26.308H8.8V29.44H11.92V30.136H8.8V34H7.96V25.612H12.496ZM16.746 34.096C16.13 34.096 15.574 33.96 15.078 33.688C14.59 33.408 14.202 33.016 13.914 32.512C13.634 32 13.494 31.404 13.494 30.724C13.494 30.044 13.638 29.452 13.926 28.948C14.214 28.436 14.606 28.044 15.102 27.772C15.598 27.492 16.154 27.352 16.77 27.352C17.386 27.352 17.942 27.492 18.438 27.772C18.942 28.044 19.334 28.436 19.614 28.948C19.902 29.452 20.046 30.044 20.046 30.724C20.046 31.396 19.902 31.988 19.614 32.5C19.326 33.012 18.93 33.408 18.426 33.688C17.922 33.96 17.362 34.096 16.746 34.096ZM16.746 33.364C17.178 33.364 17.578 33.268 17.946 33.076C18.314 32.876 18.61 32.58 18.834 32.188C19.066 31.788 19.182 31.3 19.182 30.724C19.182 30.148 19.07 29.664 18.846 29.272C18.622 28.872 18.326 28.576 17.958 28.384C17.59 28.184 17.19 28.084 16.758 28.084C16.326 28.084 15.926 28.184 15.558 28.384C15.19 28.576 14.894 28.872 14.67 29.272C14.454 29.664 14.346 30.148 14.346 30.724C14.346 31.3 14.454 31.788 14.67 32.188C14.894 32.58 15.186 32.876 15.546 33.076C15.914 33.268 16.314 33.364 16.746 33.364ZM22.4172 28.612C22.6012 28.204 22.8812 27.888 23.2572 27.664C23.6412 27.44 24.1092 27.328 24.6612 27.328V28.204H24.4332C23.8252 28.204 23.3372 28.368 22.9692 28.696C22.6012 29.024 22.4172 29.572 22.4172 30.34V34H21.5772V27.448H22.4172V28.612ZM34.5648 27.448L32.5128 34H31.6728L29.8608 28.504L28.0488 34H27.1968L25.1448 27.448H25.9968L27.6288 33.148L29.4648 27.448H30.3048L32.1168 33.16L33.7368 27.448H34.5648ZM35.326 30.712C35.326 30.04 35.458 29.452 35.722 28.948C35.994 28.436 36.366 28.044 36.838 27.772C37.318 27.492 37.858 27.352 38.458 27.352C39.082 27.352 39.618 27.496 40.066 27.784C40.522 28.072 40.85 28.44 41.05 28.888V27.448H41.89V34H41.05V32.548C40.842 32.996 40.51 33.368 40.054 33.664C39.606 33.952 39.07 34.096 38.446 34.096C37.854 34.096 37.318 33.956 36.838 33.676C36.366 33.396 35.994 33 35.722 32.488C35.458 31.976 35.326 31.384 35.326 30.712ZM41.05 30.724C41.05 30.196 40.942 29.732 40.726 29.332C40.51 28.932 40.214 28.624 39.838 28.408C39.47 28.192 39.062 28.084 38.614 28.084C38.15 28.084 37.734 28.188 37.366 28.396C36.998 28.604 36.706 28.908 36.49 29.308C36.282 29.7 36.178 30.168 36.178 30.712C36.178 31.248 36.282 31.72 36.49 32.128C36.706 32.528 36.998 32.836 37.366 33.052C37.734 33.26 38.15 33.364 38.614 33.364C39.062 33.364 39.47 33.256 39.838 33.04C40.214 32.824 40.51 32.516 40.726 32.116C40.942 31.716 41.05 31.252 41.05 30.724ZM44.6477 28.612C44.8317 28.204 45.1117 27.888 45.4877 27.664C45.8717 27.44 46.3397 27.328 46.8917 27.328V28.204H46.6637C46.0557 28.204 45.5677 28.368 45.1997 28.696C44.8317 29.024 44.6477 29.572 44.6477 30.34V34H43.8077V27.448H44.6477V28.612ZM47.7713 30.712C47.7713 30.04 47.9073 29.452 48.1793 28.948C48.4513 28.436 48.8233 28.044 49.2953 27.772C49.7753 27.492 50.3153 27.352 50.9153 27.352C51.4913 27.352 52.0113 27.492 52.4753 27.772C52.9393 28.052 53.2793 28.416 53.4953 28.864V25.12H54.3353V34H53.4953V32.536C53.2953 32.992 52.9673 33.368 52.5113 33.664C52.0553 33.952 51.5193 34.096 50.9033 34.096C50.3033 34.096 49.7633 33.956 49.2833 33.676C48.8113 33.396 48.4393 33 48.1673 32.488C47.9033 31.976 47.7713 31.384 47.7713 30.712ZM53.4953 30.724C53.4953 30.196 53.3873 29.732 53.1713 29.332C52.9553 28.932 52.6593 28.624 52.2833 28.408C51.9153 28.192 51.5073 28.084 51.0593 28.084C50.5953 28.084 50.1793 28.188 49.8113 28.396C49.4433 28.604 49.1513 28.908 48.9353 29.308C48.7273 29.7 48.6233 30.168 48.6233 30.712C48.6233 31.248 48.7273 31.72 48.9353 32.128C49.1513 32.528 49.4433 32.836 49.8113 33.052C50.1793 33.26 50.5953 33.364 51.0593 33.364C51.5073 33.364 51.9153 33.256 52.2833 33.04C52.6593 32.824 52.9553 32.516 53.1713 32.116C53.3873 31.716 53.4953 31.252 53.4953 30.724Z" fill="black"/>
<defs>
<linearGradient id="paint0_linear_7_140" x1="30" y1="56" x2="30" y2="0" gradientUnits="userSpaceOnUse">
<stop stop-color="#06266B"/>
<stop offset="1" stop-color="#D2E0FF"/>
</linearGradient>
</defs>
</svg>
