<svg width="60" height="56" viewBox="0 0 60 56" fill="none" xmlns="http://www.w3.org/2000/svg">
<rect x="0.5" y="0.5" width="59" height="55" rx="4.5" fill="url(#paint0_linear_7_276)" stroke="#5D75AA"/>
<mask id="path-2-outside-1_7_276" maskUnits="userSpaceOnUse" x="4" y="24" width="48" height="12" fill="black">
<rect fill="white" x="4" y="24" width="48" height="12"/>
<path d="M10.868 25.612V26.308H8.54V34H7.7V26.308H5.36V25.612H10.868ZM17.8704 27.448V34H17.0304V32.848C16.8384 33.256 16.5424 33.568 16.1424 33.784C15.7424 34 15.2944 34.108 14.7984 34.108C14.0144 34.108 13.3744 33.868 12.8784 33.388C12.3824 32.9 12.1344 32.196 12.1344 31.276V27.448H12.9624V31.18C12.9624 31.892 13.1384 32.436 13.4904 32.812C13.8504 33.188 14.3384 33.376 14.9544 33.376C15.5864 33.376 16.0904 33.176 16.4664 32.776C16.8424 32.376 17.0304 31.788 17.0304 31.012V27.448H17.8704ZM20.6281 28.612C20.8121 28.204 21.0921 27.888 21.4681 27.664C21.8521 27.44 22.3201 27.328 22.8721 27.328V28.204H22.6441C22.0361 28.204 21.5481 28.368 21.1801 28.696C20.8121 29.024 20.6281 29.572 20.6281 30.34V34H19.7881V27.448H20.6281V28.612ZM27.2078 27.328C27.9918 27.328 28.6318 27.572 29.1278 28.06C29.6238 28.54 29.8718 29.24 29.8718 30.16V34H29.0438V30.256C29.0438 29.544 28.8638 29 28.5038 28.624C28.1518 28.248 27.6678 28.06 27.0518 28.06C26.4198 28.06 25.9158 28.26 25.5398 28.66C25.1638 29.06 24.9758 29.648 24.9758 30.424V34H24.1358V27.448H24.9758V28.564C25.1838 28.164 25.4838 27.86 25.8758 27.652C26.2678 27.436 26.7118 27.328 27.2078 27.328ZM38.7905 34.084C38.0145 34.084 37.3105 33.904 36.6785 33.544C36.0465 33.176 35.5465 32.668 35.1785 32.02C34.8185 31.364 34.6385 30.624 34.6385 29.8C34.6385 28.976 34.8185 28.24 35.1785 27.592C35.5465 26.936 36.0465 26.428 36.6785 26.068C37.3105 25.7 38.0145 25.516 38.7905 25.516C39.5745 25.516 40.2825 25.7 40.9145 26.068C41.5465 26.428 42.0425 26.936 42.4025 27.592C42.7625 28.24 42.9425 28.976 42.9425 29.8C42.9425 30.624 42.7625 31.364 42.4025 32.02C42.0425 32.668 41.5465 33.176 40.9145 33.544C40.2825 33.904 39.5745 34.084 38.7905 34.084ZM38.7905 33.352C39.4145 33.352 39.9745 33.208 40.4705 32.92C40.9665 32.632 41.3585 32.22 41.6465 31.684C41.9345 31.14 42.0785 30.512 42.0785 29.8C42.0785 29.088 41.9345 28.464 41.6465 27.928C41.3585 27.392 40.9665 26.98 40.4705 26.692C39.9745 26.404 39.4145 26.26 38.7905 26.26C38.1665 26.26 37.6065 26.404 37.1105 26.692C36.6145 26.98 36.2225 27.392 35.9345 27.928C35.6465 28.464 35.5025 29.088 35.5025 29.8C35.5025 30.512 35.6465 31.14 35.9345 31.684C36.2225 32.22 36.6145 32.632 37.1105 32.92C37.6065 33.208 38.1665 33.352 38.7905 33.352ZM47.5515 27.328C48.3355 27.328 48.9755 27.572 49.4715 28.06C49.9675 28.54 50.2155 29.24 50.2155 30.16V34H49.3875V30.256C49.3875 29.544 49.2075 29 48.8475 28.624C48.4955 28.248 48.0115 28.06 47.3955 28.06C46.7635 28.06 46.2595 28.26 45.8835 28.66C45.5075 29.06 45.3195 29.648 45.3195 30.424V34H44.4795V27.448H45.3195V28.564C45.5275 28.164 45.8275 27.86 46.2195 27.652C46.6115 27.436 47.0555 27.328 47.5515 27.328Z"/>
</mask>
<path d="M10.868 25.612V26.308H8.54V34H7.7V26.308H5.36V25.612H10.868ZM17.8704 27.448V34H17.0304V32.848C16.8384 33.256 16.5424 33.568 16.1424 33.784C15.7424 34 15.2944 34.108 14.7984 34.108C14.0144 34.108 13.3744 33.868 12.8784 33.388C12.3824 32.9 12.1344 32.196 12.1344 31.276V27.448H12.9624V31.18C12.9624 31.892 13.1384 32.436 13.4904 32.812C13.8504 33.188 14.3384 33.376 14.9544 33.376C15.5864 33.376 16.0904 33.176 16.4664 32.776C16.8424 32.376 17.0304 31.788 17.0304 31.012V27.448H17.8704ZM20.6281 28.612C20.8121 28.204 21.0921 27.888 21.4681 27.664C21.8521 27.44 22.3201 27.328 22.8721 27.328V28.204H22.6441C22.0361 28.204 21.5481 28.368 21.1801 28.696C20.8121 29.024 20.6281 29.572 20.6281 30.34V34H19.7881V27.448H20.6281V28.612ZM27.2078 27.328C27.9918 27.328 28.6318 27.572 29.1278 28.06C29.6238 28.54 29.8718 29.24 29.8718 30.16V34H29.0438V30.256C29.0438 29.544 28.8638 29 28.5038 28.624C28.1518 28.248 27.6678 28.06 27.0518 28.06C26.4198 28.06 25.9158 28.26 25.5398 28.66C25.1638 29.06 24.9758 29.648 24.9758 30.424V34H24.1358V27.448H24.9758V28.564C25.1838 28.164 25.4838 27.86 25.8758 27.652C26.2678 27.436 26.7118 27.328 27.2078 27.328ZM38.7905 34.084C38.0145 34.084 37.3105 33.904 36.6785 33.544C36.0465 33.176 35.5465 32.668 35.1785 32.02C34.8185 31.364 34.6385 30.624 34.6385 29.8C34.6385 28.976 34.8185 28.24 35.1785 27.592C35.5465 26.936 36.0465 26.428 36.6785 26.068C37.3105 25.7 38.0145 25.516 38.7905 25.516C39.5745 25.516 40.2825 25.7 40.9145 26.068C41.5465 26.428 42.0425 26.936 42.4025 27.592C42.7625 28.24 42.9425 28.976 42.9425 29.8C42.9425 30.624 42.7625 31.364 42.4025 32.02C42.0425 32.668 41.5465 33.176 40.9145 33.544C40.2825 33.904 39.5745 34.084 38.7905 34.084ZM38.7905 33.352C39.4145 33.352 39.9745 33.208 40.4705 32.92C40.9665 32.632 41.3585 32.22 41.6465 31.684C41.9345 31.14 42.0785 30.512 42.0785 29.8C42.0785 29.088 41.9345 28.464 41.6465 27.928C41.3585 27.392 40.9665 26.98 40.4705 26.692C39.9745 26.404 39.4145 26.26 38.7905 26.26C38.1665 26.26 37.6065 26.404 37.1105 26.692C36.6145 26.98 36.2225 27.392 35.9345 27.928C35.6465 28.464 35.5025 29.088 35.5025 29.8C35.5025 30.512 35.6465 31.14 35.9345 31.684C36.2225 32.22 36.6145 32.632 37.1105 32.92C37.6065 33.208 38.1665 33.352 38.7905 33.352ZM47.5515 27.328C48.3355 27.328 48.9755 27.572 49.4715 28.06C49.9675 28.54 50.2155 29.24 50.2155 30.16V34H49.3875V30.256C49.3875 29.544 49.2075 29 48.8475 28.624C48.4955 28.248 48.0115 28.06 47.3955 28.06C46.7635 28.06 46.2595 28.26 45.8835 28.66C45.5075 29.06 45.3195 29.648 45.3195 30.424V34H44.4795V27.448H45.3195V28.564C45.5275 28.164 45.8275 27.86 46.2195 27.652C46.6115 27.436 47.0555 27.328 47.5515 27.328Z" fill="white"/>
<path d="M10.868 25.612H11.868V24.612H10.868V25.612ZM10.868 26.308V27.308H11.868V26.308H10.868ZM8.54 26.308V25.308H7.54V26.308H8.54ZM8.54 34V35H9.54V34H8.54ZM7.7 34H6.7V35H7.7V34ZM7.7 26.308H8.7V25.308H7.7V26.308ZM5.36 26.308H4.36V27.308H5.36V26.308ZM5.36 25.612V24.612H4.36V25.612H5.36ZM10.868 25.612H9.868V26.308H10.868H11.868V25.612H10.868ZM10.868 26.308V25.308H8.54V26.308V27.308H10.868V26.308ZM8.54 26.308H7.54V34H8.54H9.54V26.308H8.54ZM8.54 34V33H7.7V34V35H8.54V34ZM7.7 34H8.7V26.308H7.7H6.7V34H7.7ZM7.7 26.308V25.308H5.36V26.308V27.308H7.7V26.308ZM5.36 26.308H6.36V25.612H5.36H4.36V26.308H5.36ZM5.36 25.612V26.612H10.868V25.612V24.612H5.36V25.612ZM17.8704 27.448H18.8704V26.448H17.8704V27.448ZM17.8704 34V35H18.8704V34H17.8704ZM17.0304 34H16.0304V35H17.0304V34ZM17.0304 32.848H18.0304L16.1256 32.4222L17.0304 32.848ZM16.1424 33.784L15.6672 32.9041L16.1424 33.784ZM12.8784 33.388L12.177 34.1009L12.183 34.1066L12.8784 33.388ZM12.1344 27.448V26.448H11.1344V27.448H12.1344ZM12.9624 27.448H13.9624V26.448H12.9624V27.448ZM13.4904 32.812L12.7603 33.4955L12.7681 33.5036L13.4904 32.812ZM17.0304 27.448V26.448H16.0304V27.448H17.0304ZM17.8704 27.448H16.8704V34H17.8704H18.8704V27.448H17.8704ZM17.8704 34V33H17.0304V34V35H17.8704V34ZM17.0304 34H18.0304V32.848H17.0304H16.0304V34H17.0304ZM17.0304 32.848L16.1256 32.4222C16.0254 32.6351 15.8808 32.7888 15.6672 32.9041L16.1424 33.784L16.6175 34.6639C17.2039 34.3472 17.6514 33.8769 17.9352 33.2738L17.0304 32.848ZM16.1424 33.784L15.6672 32.9041C15.4262 33.0342 15.144 33.108 14.7984 33.108V34.108V35.108C15.4448 35.108 16.0585 34.9658 16.6175 34.6639L16.1424 33.784ZM14.7984 34.108V33.108C14.2357 33.108 13.8575 32.944 13.5738 32.6694L12.8784 33.388L12.183 34.1066C12.8912 34.792 13.793 35.108 14.7984 35.108V34.108ZM12.8784 33.388L13.5797 32.6752C13.3304 32.4299 13.1344 32.0177 13.1344 31.276H12.1344H11.1344C11.1344 32.3743 11.4343 33.3701 12.177 34.1008L12.8784 33.388ZM12.1344 31.276H13.1344V27.448H12.1344H11.1344V31.276H12.1344ZM12.1344 27.448V28.448H12.9624V27.448V26.448H12.1344V27.448ZM12.9624 27.448H11.9624V31.18H12.9624H13.9624V27.448H12.9624ZM12.9624 31.18H11.9624C11.9624 32.0478 12.1779 32.8732 12.7604 33.4954L13.4904 32.812L14.2204 32.1286C14.0989 31.9988 13.9624 31.7362 13.9624 31.18H12.9624ZM13.4904 32.812L12.7681 33.5036C13.3511 34.1125 14.1198 34.376 14.9544 34.376V33.376V32.376C14.557 32.376 14.3496 32.2635 14.2127 32.1204L13.4904 32.812ZM14.9544 33.376V34.376C15.8166 34.376 16.6008 34.093 17.195 33.4609L16.4664 32.776L15.7377 32.0911C15.5799 32.259 15.3561 32.376 14.9544 32.376V33.376ZM16.4664 32.776L17.195 33.4609C17.8062 32.8107 18.0304 31.9371 18.0304 31.012H17.0304H16.0304C16.0304 31.6389 15.8786 31.9413 15.7377 32.0911L16.4664 32.776ZM17.0304 31.012H18.0304V27.448H17.0304H16.0304V31.012H17.0304ZM17.0304 27.448V28.448H17.8704V27.448V26.448H17.0304V27.448ZM20.6281 28.612H19.6281L21.5397 29.0231L20.6281 28.612ZM21.4681 27.664L20.9642 26.8002L20.9563 26.8049L21.4681 27.664ZM22.8721 27.328H23.8721V26.328H22.8721V27.328ZM22.8721 28.204V29.204H23.8721V28.204H22.8721ZM21.1801 28.696L20.5148 27.9495H20.5148L21.1801 28.696ZM20.6281 34V35H21.6281V34H20.6281ZM19.7881 34H18.7881V35H19.7881V34ZM19.7881 27.448V26.448H18.7881V27.448H19.7881ZM20.6281 27.448H21.6281V26.448H20.6281V27.448ZM20.6281 28.612L21.5397 29.0231C21.6415 28.7974 21.7841 28.6397 21.9799 28.5231L21.4681 27.664L20.9563 26.8049C20.4001 27.1363 19.9827 27.6106 19.7165 28.2009L20.6281 28.612ZM21.4681 27.664L21.972 28.5278C22.1702 28.4122 22.4548 28.328 22.8721 28.328V27.328V26.328C22.1855 26.328 21.5341 26.4678 20.9643 26.8002L21.4681 27.664ZM22.8721 27.328H21.8721V28.204H22.8721H23.8721V27.328H22.8721ZM22.8721 28.204V27.204H22.6441V28.204V29.204H22.8721V28.204ZM22.6441 28.204V27.204C21.8505 27.204 21.1061 27.4224 20.5148 27.9495L21.1801 28.696L21.8455 29.4425C21.9902 29.3136 22.2218 29.204 22.6441 29.204V28.204ZM21.1801 28.696L20.5148 27.9495C19.8393 28.5515 19.6281 29.4445 19.6281 30.34H20.6281H21.6281C21.6281 29.6995 21.785 29.4965 21.8455 29.4425L21.1801 28.696ZM20.6281 30.34H19.6281V34H20.6281H21.6281V30.34H20.6281ZM20.6281 34V33H19.7881V34V35H20.6281V34ZM19.7881 34H20.7881V27.448H19.7881H18.7881V34H19.7881ZM19.7881 27.448V28.448H20.6281V27.448V26.448H19.7881V27.448ZM20.6281 27.448H19.6281V28.612H20.6281H21.6281V27.448H20.6281ZM29.1278 28.06L28.4264 28.7729L28.4324 28.7786L29.1278 28.06ZM29.8718 34V35H30.8718V34H29.8718ZM29.0438 34H28.0438V35H29.0438V34ZM28.5038 28.624L27.7737 29.3075L27.7815 29.3156L28.5038 28.624ZM24.9758 34V35H25.9758V34H24.9758ZM24.1358 34H23.1358V35H24.1358V34ZM24.1358 27.448V26.448H23.1358V27.448H24.1358ZM24.9758 27.448H25.9758V26.448H24.9758V27.448ZM24.9758 28.564H23.9758L25.863 29.0254L24.9758 28.564ZM25.8758 27.652L26.3445 28.5353L26.3515 28.5316L26.3584 28.5278L25.8758 27.652ZM27.2078 27.328V28.328C27.7656 28.328 28.1418 28.4928 28.4264 28.7728L29.1278 28.06L29.8291 27.3472C29.1218 26.6512 28.218 26.328 27.2078 26.328V27.328ZM29.1278 28.06L28.4324 28.7786C28.6753 29.0137 28.8718 29.4172 28.8718 30.16H29.8718H30.8718C30.8718 29.0628 30.5722 28.0663 29.8232 27.3414L29.1278 28.06ZM29.8718 30.16H28.8718V34H29.8718H30.8718V30.16H29.8718ZM29.8718 34V33H29.0438V34V35H29.8718V34ZM29.0438 34H30.0438V30.256H29.0438H28.0438V34H29.0438ZM29.0438 30.256H30.0438C30.0438 29.3827 29.8214 28.5542 29.2261 27.9324L28.5038 28.624L27.7815 29.3156C27.9062 29.4458 28.0438 29.7053 28.0438 30.256H29.0438ZM28.5038 28.624L29.2338 27.9406C28.656 27.3234 27.8857 27.06 27.0518 27.06V28.06V29.06C27.4498 29.06 27.6475 29.1726 27.7738 29.3074L28.5038 28.624ZM27.0518 28.06V27.06C26.1895 27.06 25.4053 27.343 24.8112 27.9751L25.5398 28.66L26.2684 29.3449C26.4262 29.177 26.65 29.06 27.0518 29.06V28.06ZM25.5398 28.66L24.8112 27.9751C24.2 28.6253 23.9758 29.4989 23.9758 30.424H24.9758H25.9758C25.9758 29.7971 26.1276 29.4947 26.2684 29.3449L25.5398 28.66ZM24.9758 30.424H23.9758V34H24.9758H25.9758V30.424H24.9758ZM24.9758 34V33H24.1358V34V35H24.9758V34ZM24.1358 34H25.1358V27.448H24.1358H23.1358V34H24.1358ZM24.1358 27.448V28.448H24.9758V27.448V26.448H24.1358V27.448ZM24.9758 27.448H23.9758V28.564H24.9758H25.9758V27.448H24.9758ZM24.9758 28.564L25.863 29.0254C25.9791 28.8021 26.1346 28.6467 26.3445 28.5353L25.8758 27.652L25.4071 26.7687C24.833 27.0733 24.3885 27.5259 24.0886 28.1026L24.9758 28.564ZM25.8758 27.652L26.3584 28.5278C26.5871 28.4018 26.8619 28.328 27.2078 28.328V27.328V26.328C26.5617 26.328 25.9485 26.4702 25.3932 26.7762L25.8758 27.652ZM36.6785 33.544L36.1753 34.4082L36.1835 34.4129L36.6785 33.544ZM35.1785 32.02L34.3018 32.5011L34.3053 32.5075L34.3089 32.5138L35.1785 32.02ZM35.1785 27.592L34.3063 27.1027L34.3043 27.1064L35.1785 27.592ZM36.6785 26.068L37.1735 26.937L37.1817 26.9322L36.6785 26.068ZM40.9145 26.068L40.4113 26.9322L40.4195 26.9369L40.9145 26.068ZM42.4025 27.592L41.5258 28.0731L41.5283 28.0776L42.4025 27.592ZM42.4025 32.02L43.2767 32.5056L43.2792 32.5011L42.4025 32.02ZM40.9145 33.544L41.4095 34.413L41.4177 34.4082L40.9145 33.544ZM40.4705 32.92L40.9726 33.7848L40.4705 32.92ZM41.6465 31.684L42.5274 32.1573L42.5303 32.1519L41.6465 31.684ZM41.6465 27.928L42.5274 27.4547L41.6465 27.928ZM40.4705 26.692L40.9726 25.8272L40.4705 26.692ZM35.9345 27.928L35.0536 27.4547V27.4547L35.9345 27.928ZM35.9345 31.684L35.0507 32.1519L35.0536 32.1573L35.9345 31.684ZM37.1105 32.92L37.6126 32.0552L37.1105 32.92ZM38.7905 34.084V33.084C38.1761 33.084 37.6445 32.9434 37.1735 32.6751L36.6785 33.544L36.1835 34.4129C36.9765 34.8646 37.853 35.084 38.7905 35.084V34.084ZM36.6785 33.544L37.1817 32.6798C36.7054 32.4025 36.3305 32.0236 36.0481 31.5262L35.1785 32.02L34.3089 32.5138C34.7625 33.3124 35.3876 33.9495 36.1753 34.4082L36.6785 33.544ZM35.1785 32.02L36.0552 31.5389C35.7841 31.0449 35.6385 30.4732 35.6385 29.8H34.6385H33.6385C33.6385 30.7748 33.8529 31.6831 34.3018 32.5011L35.1785 32.02ZM34.6385 29.8H35.6385C35.6385 29.1266 35.7841 28.561 36.0527 28.0776L35.1785 27.592L34.3043 27.1064C33.8529 27.919 33.6385 28.8254 33.6385 29.8H34.6385ZM35.1785 27.592L36.0506 28.0813C36.3329 27.5781 36.7049 27.2038 37.1735 26.9369L36.6785 26.068L36.1835 25.1991C35.3881 25.6522 34.7601 26.2939 34.3064 27.1027L35.1785 27.592ZM36.6785 26.068L37.1817 26.9322C37.6515 26.6586 38.1801 26.516 38.7905 26.516V25.516V24.516C37.8489 24.516 36.9695 24.7414 36.1753 25.2038L36.6785 26.068ZM38.7905 25.516V26.516C39.4109 26.516 39.9431 26.6595 40.4113 26.9322L40.9145 26.068L41.4177 25.2038C40.6219 24.7405 39.7381 24.516 38.7905 24.516V25.516ZM40.9145 26.068L40.4195 26.9369C40.8861 27.2027 41.2521 27.5743 41.5258 28.0731L42.4025 27.592L43.2792 27.1109C42.8329 26.2977 42.2069 25.6533 41.4095 25.1991L40.9145 26.068ZM42.4025 27.592L41.5283 28.0776C41.7969 28.561 41.9425 29.1266 41.9425 29.8H42.9425H43.9425C43.9425 28.8254 43.7281 27.919 43.2767 27.1064L42.4025 27.592ZM42.9425 29.8H41.9425C41.9425 30.4732 41.7969 31.0449 41.5258 31.5389L42.4025 32.02L43.2792 32.5011C43.7281 31.6831 43.9425 30.7748 43.9425 29.8H42.9425ZM42.4025 32.02L41.5283 31.5344C41.2545 32.0274 40.8856 32.4036 40.4113 32.6798L40.9145 33.544L41.4177 34.4082C42.2074 33.9484 42.8306 33.3086 43.2767 32.5056L42.4025 32.02ZM40.9145 33.544L40.4195 32.6751C39.95 32.9425 39.4149 33.084 38.7905 33.084V34.084V35.084C39.7341 35.084 40.615 34.8655 41.4095 34.4129L40.9145 33.544ZM38.7905 33.352V34.352C39.5749 34.352 40.3109 34.1691 40.9726 33.7848L40.4705 32.92L39.9684 32.0552C39.6381 32.2469 39.2541 32.352 38.7905 32.352V33.352ZM40.4705 32.92L40.9726 33.7848C41.6386 33.3981 42.1574 32.846 42.5274 32.1573L41.6465 31.684L40.7656 31.2107C40.5596 31.594 40.2944 31.8659 39.9684 32.0552L40.4705 32.92ZM41.6465 31.684L42.5303 32.1519C42.9058 31.4426 43.0785 30.6494 43.0785 29.8H42.0785H41.0785C41.0785 30.3746 40.9632 30.8374 40.7627 31.2161L41.6465 31.684ZM42.0785 29.8H43.0785C43.0785 28.951 42.9059 28.1592 42.5274 27.4547L41.6465 27.928L40.7656 28.4013C40.9631 28.7688 41.0785 29.225 41.0785 29.8H42.0785ZM41.6465 27.928L42.5274 27.4547C42.1574 26.766 41.6386 26.2139 40.9726 25.8272L40.4705 26.692L39.9684 27.5568C40.2944 27.7461 40.5596 28.018 40.7656 28.4013L41.6465 27.928ZM40.4705 26.692L40.9726 25.8272C40.3109 25.4429 39.5749 25.26 38.7905 25.26V26.26V27.26C39.2541 27.26 39.6381 27.3651 39.9684 27.5568L40.4705 26.692ZM38.7905 26.26V25.26C38.0061 25.26 37.2701 25.4429 36.6084 25.8272L37.1105 26.692L37.6126 27.5568C37.9429 27.3651 38.3269 27.26 38.7905 27.26V26.26ZM37.1105 26.692L36.6084 25.8272C35.9424 26.2139 35.4236 26.766 35.0536 27.4547L35.9345 27.928L36.8154 28.4013C37.0214 28.018 37.2866 27.7461 37.6126 27.5568L37.1105 26.692ZM35.9345 27.928L35.0536 27.4547C34.6751 28.1592 34.5025 28.951 34.5025 29.8H35.5025H36.5025C36.5025 29.225 36.6179 28.7688 36.8154 28.4013L35.9345 27.928ZM35.5025 29.8H34.5025C34.5025 30.6494 34.6752 31.4426 35.0507 32.1519L35.9345 31.684L36.8183 31.2161C36.6178 30.8374 36.5025 30.3746 36.5025 29.8H35.5025ZM35.9345 31.684L35.0536 32.1573C35.4236 32.846 35.9424 33.3981 36.6084 33.7848L37.1105 32.92L37.6126 32.0552C37.2866 31.8659 37.0214 31.594 36.8154 31.2107L35.9345 31.684ZM37.1105 32.92L36.6084 33.7848C37.2701 34.1691 38.0061 34.352 38.7905 34.352V33.352V32.352C38.3269 32.352 37.9429 32.2469 37.6126 32.0552L37.1105 32.92ZM49.4715 28.06L48.7702 28.7729L48.7761 28.7786L49.4715 28.06ZM50.2155 34V35H51.2155V34H50.2155ZM49.3875 34H48.3875V35H49.3875V34ZM48.8475 28.624L48.1175 29.3075L48.1252 29.3156L48.8475 28.624ZM45.3195 34V35H46.3195V34H45.3195ZM44.4795 34H43.4795V35H44.4795V34ZM44.4795 27.448V26.448H43.4795V27.448H44.4795ZM45.3195 27.448H46.3195V26.448H45.3195V27.448ZM45.3195 28.564H44.3195L46.2067 29.0254L45.3195 28.564ZM46.2195 27.652L46.6882 28.5353L46.6952 28.5316L46.7021 28.5278L46.2195 27.652ZM47.5515 27.328V28.328C48.1093 28.328 48.4855 28.4928 48.7702 28.7728L49.4715 28.06L50.1729 27.3472C49.4655 26.6512 48.5617 26.328 47.5515 26.328V27.328ZM49.4715 28.06L48.7761 28.7786C49.0191 29.0137 49.2155 29.4172 49.2155 30.16H50.2155H51.2155C51.2155 29.0628 50.916 28.0663 50.167 27.3414L49.4715 28.06ZM50.2155 30.16H49.2155V34H50.2155H51.2155V30.16H50.2155ZM50.2155 34V33H49.3875V34V35H50.2155V34ZM49.3875 34H50.3875V30.256H49.3875H48.3875V34H49.3875ZM49.3875 30.256H50.3875C50.3875 29.3827 50.1651 28.5542 49.5698 27.9324L48.8475 28.624L48.1252 29.3156C48.25 29.4458 48.3875 29.7053 48.3875 30.256H49.3875ZM48.8475 28.624L49.5776 27.9406C48.9998 27.3234 48.2295 27.06 47.3955 27.06V28.06V29.06C47.7936 29.06 47.9913 29.1726 48.1175 29.3074L48.8475 28.624ZM47.3955 28.06V27.06C46.5333 27.06 45.7491 27.343 45.1549 27.9751L45.8835 28.66L46.6122 29.3449C46.77 29.177 46.9938 29.06 47.3955 29.06V28.06ZM45.8835 28.66L45.1549 27.9751C44.5437 28.6253 44.3195 29.4989 44.3195 30.424H45.3195H46.3195C46.3195 29.7971 46.4713 29.4947 46.6122 29.3449L45.8835 28.66ZM45.3195 30.424H44.3195V34H45.3195H46.3195V30.424H45.3195ZM45.3195 34V33H44.4795V34V35H45.3195V34ZM44.4795 34H45.4795V27.448H44.4795H43.4795V34H44.4795ZM44.4795 27.448V28.448H45.3195V27.448V26.448H44.4795V27.448ZM45.3195 27.448H44.3195V28.564H45.3195H46.3195V27.448H45.3195ZM45.3195 28.564L46.2067 29.0254C46.3228 28.8021 46.4783 28.6467 46.6882 28.5353L46.2195 27.652L45.7508 26.7687C45.1767 27.0733 44.7322 27.5259 44.4323 28.1026L45.3195 28.564ZM46.2195 27.652L46.7021 28.5278C46.9308 28.4018 47.2057 28.328 47.5515 28.328V27.328V26.328C46.9054 26.328 46.2923 26.4702 45.7369 26.7762L46.2195 27.652Z" fill="#5D75AA" mask="url(#path-2-outside-1_7_276)"/>
<defs>
<linearGradient id="paint0_linear_7_276" x1="30" y1="56" x2="30" y2="0" gradientUnits="userSpaceOnUse">
<stop stop-color="#06266B"/>
<stop offset="1" stop-color="#495689"/>
</linearGradient>
</defs>
</svg>
