<svg width="60" height="56" viewBox="0 0 60 56" fill="none" xmlns="http://www.w3.org/2000/svg">
<rect x="0.5" y="0.5" width="59" height="55" rx="4.5" fill="url(#paint0_linear_7_288)" stroke="#5D75AA"/>
<mask id="path-2-outside-1_7_288" maskUnits="userSpaceOnUse" x="5" y="23" width="48" height="13" fill="black">
<rect fill="white" x="5" y="23" width="48" height="13"/>
<path d="M11.868 25.612V26.308H9.54V34H8.7V26.308H6.36V25.612H11.868ZM18.8704 27.448V34H18.0304V32.848C17.8384 33.256 17.5424 33.568 17.1424 33.784C16.7424 34 16.2944 34.108 15.7984 34.108C15.0144 34.108 14.3744 33.868 13.8784 33.388C13.3824 32.9 13.1344 32.196 13.1344 31.276V27.448H13.9624V31.18C13.9624 31.892 14.1384 32.436 14.4904 32.812C14.8504 33.188 15.3384 33.376 15.9544 33.376C16.5864 33.376 17.0904 33.176 17.4664 32.776C17.8424 32.376 18.0304 31.788 18.0304 31.012V27.448H18.8704ZM21.6281 28.612C21.8121 28.204 22.0921 27.888 22.4681 27.664C22.8521 27.44 23.3201 27.328 23.8721 27.328V28.204H23.6441C23.0361 28.204 22.5481 28.368 22.1801 28.696C21.8121 29.024 21.6281 29.572 21.6281 30.34V34H20.7881V27.448H21.6281V28.612ZM28.2078 27.328C28.9918 27.328 29.6318 27.572 30.1278 28.06C30.6238 28.54 30.8718 29.24 30.8718 30.16V34H30.0438V30.256C30.0438 29.544 29.8638 29 29.5038 28.624C29.1518 28.248 28.6678 28.06 28.0518 28.06C27.4198 28.06 26.9158 28.26 26.5398 28.66C26.1638 29.06 25.9758 29.648 25.9758 30.424V34H25.1358V27.448H25.9758V28.564C26.1838 28.164 26.4838 27.86 26.8758 27.652C27.2678 27.436 27.7118 27.328 28.2078 27.328ZM39.7905 34.084C39.0145 34.084 38.3105 33.904 37.6785 33.544C37.0465 33.176 36.5465 32.668 36.1785 32.02C35.8185 31.364 35.6385 30.624 35.6385 29.8C35.6385 28.976 35.8185 28.24 36.1785 27.592C36.5465 26.936 37.0465 26.428 37.6785 26.068C38.3105 25.7 39.0145 25.516 39.7905 25.516C40.5745 25.516 41.2825 25.7 41.9145 26.068C42.5465 26.428 43.0425 26.936 43.4025 27.592C43.7625 28.24 43.9425 28.976 43.9425 29.8C43.9425 30.624 43.7625 31.364 43.4025 32.02C43.0425 32.668 42.5465 33.176 41.9145 33.544C41.2825 33.904 40.5745 34.084 39.7905 34.084ZM39.7905 33.352C40.4145 33.352 40.9745 33.208 41.4705 32.92C41.9665 32.632 42.3585 32.22 42.6465 31.684C42.9345 31.14 43.0785 30.512 43.0785 29.8C43.0785 29.088 42.9345 28.464 42.6465 27.928C42.3585 27.392 41.9665 26.98 41.4705 26.692C40.9745 26.404 40.4145 26.26 39.7905 26.26C39.1665 26.26 38.6065 26.404 38.1105 26.692C37.6145 26.98 37.2225 27.392 36.9345 27.928C36.6465 28.464 36.5025 29.088 36.5025 29.8C36.5025 30.512 36.6465 31.14 36.9345 31.684C37.2225 32.22 37.6145 32.632 38.1105 32.92C38.6065 33.208 39.1665 33.352 39.7905 33.352ZM48.0595 28.156H46.5355V34H45.6955V28.156H44.7835V27.448H45.6955V26.992C45.6955 26.28 45.8755 25.756 46.2355 25.42C46.6035 25.084 47.1955 24.916 48.0115 24.916V25.636C47.4675 25.636 47.0835 25.74 46.8595 25.948C46.6435 26.156 46.5355 26.504 46.5355 26.992V27.448H48.0595V28.156ZM51.9619 28.156H50.4379V34H49.5979V28.156H48.6859V27.448H49.5979V26.992C49.5979 26.28 49.7779 25.756 50.1379 25.42C50.5059 25.084 51.0979 24.916 51.9139 24.916V25.636C51.3699 25.636 50.9859 25.74 50.7619 25.948C50.5459 26.156 50.4379 26.504 50.4379 26.992V27.448H51.9619V28.156Z"/>
</mask>
<path d="M11.868 25.612V26.308H9.54V34H8.7V26.308H6.36V25.612H11.868ZM18.8704 27.448V34H18.0304V32.848C17.8384 33.256 17.5424 33.568 17.1424 33.784C16.7424 34 16.2944 34.108 15.7984 34.108C15.0144 34.108 14.3744 33.868 13.8784 33.388C13.3824 32.9 13.1344 32.196 13.1344 31.276V27.448H13.9624V31.18C13.9624 31.892 14.1384 32.436 14.4904 32.812C14.8504 33.188 15.3384 33.376 15.9544 33.376C16.5864 33.376 17.0904 33.176 17.4664 32.776C17.8424 32.376 18.0304 31.788 18.0304 31.012V27.448H18.8704ZM21.6281 28.612C21.8121 28.204 22.0921 27.888 22.4681 27.664C22.8521 27.44 23.3201 27.328 23.8721 27.328V28.204H23.6441C23.0361 28.204 22.5481 28.368 22.1801 28.696C21.8121 29.024 21.6281 29.572 21.6281 30.34V34H20.7881V27.448H21.6281V28.612ZM28.2078 27.328C28.9918 27.328 29.6318 27.572 30.1278 28.06C30.6238 28.54 30.8718 29.24 30.8718 30.16V34H30.0438V30.256C30.0438 29.544 29.8638 29 29.5038 28.624C29.1518 28.248 28.6678 28.06 28.0518 28.06C27.4198 28.06 26.9158 28.26 26.5398 28.66C26.1638 29.06 25.9758 29.648 25.9758 30.424V34H25.1358V27.448H25.9758V28.564C26.1838 28.164 26.4838 27.86 26.8758 27.652C27.2678 27.436 27.7118 27.328 28.2078 27.328ZM39.7905 34.084C39.0145 34.084 38.3105 33.904 37.6785 33.544C37.0465 33.176 36.5465 32.668 36.1785 32.02C35.8185 31.364 35.6385 30.624 35.6385 29.8C35.6385 28.976 35.8185 28.24 36.1785 27.592C36.5465 26.936 37.0465 26.428 37.6785 26.068C38.3105 25.7 39.0145 25.516 39.7905 25.516C40.5745 25.516 41.2825 25.7 41.9145 26.068C42.5465 26.428 43.0425 26.936 43.4025 27.592C43.7625 28.24 43.9425 28.976 43.9425 29.8C43.9425 30.624 43.7625 31.364 43.4025 32.02C43.0425 32.668 42.5465 33.176 41.9145 33.544C41.2825 33.904 40.5745 34.084 39.7905 34.084ZM39.7905 33.352C40.4145 33.352 40.9745 33.208 41.4705 32.92C41.9665 32.632 42.3585 32.22 42.6465 31.684C42.9345 31.14 43.0785 30.512 43.0785 29.8C43.0785 29.088 42.9345 28.464 42.6465 27.928C42.3585 27.392 41.9665 26.98 41.4705 26.692C40.9745 26.404 40.4145 26.26 39.7905 26.26C39.1665 26.26 38.6065 26.404 38.1105 26.692C37.6145 26.98 37.2225 27.392 36.9345 27.928C36.6465 28.464 36.5025 29.088 36.5025 29.8C36.5025 30.512 36.6465 31.14 36.9345 31.684C37.2225 32.22 37.6145 32.632 38.1105 32.92C38.6065 33.208 39.1665 33.352 39.7905 33.352ZM48.0595 28.156H46.5355V34H45.6955V28.156H44.7835V27.448H45.6955V26.992C45.6955 26.28 45.8755 25.756 46.2355 25.42C46.6035 25.084 47.1955 24.916 48.0115 24.916V25.636C47.4675 25.636 47.0835 25.74 46.8595 25.948C46.6435 26.156 46.5355 26.504 46.5355 26.992V27.448H48.0595V28.156ZM51.9619 28.156H50.4379V34H49.5979V28.156H48.6859V27.448H49.5979V26.992C49.5979 26.28 49.7779 25.756 50.1379 25.42C50.5059 25.084 51.0979 24.916 51.9139 24.916V25.636C51.3699 25.636 50.9859 25.74 50.7619 25.948C50.5459 26.156 50.4379 26.504 50.4379 26.992V27.448H51.9619V28.156Z" fill="white"/>
<path d="M11.868 25.612H12.868V24.612H11.868V25.612ZM11.868 26.308V27.308H12.868V26.308H11.868ZM9.54 26.308V25.308H8.54V26.308H9.54ZM9.54 34V35H10.54V34H9.54ZM8.7 34H7.7V35H8.7V34ZM8.7 26.308H9.7V25.308H8.7V26.308ZM6.36 26.308H5.36V27.308H6.36V26.308ZM6.36 25.612V24.612H5.36V25.612H6.36ZM11.868 25.612H10.868V26.308H11.868H12.868V25.612H11.868ZM11.868 26.308V25.308H9.54V26.308V27.308H11.868V26.308ZM9.54 26.308H8.54V34H9.54H10.54V26.308H9.54ZM9.54 34V33H8.7V34V35H9.54V34ZM8.7 34H9.7V26.308H8.7H7.7V34H8.7ZM8.7 26.308V25.308H6.36V26.308V27.308H8.7V26.308ZM6.36 26.308H7.36V25.612H6.36H5.36V26.308H6.36ZM6.36 25.612V26.612H11.868V25.612V24.612H6.36V25.612ZM18.8704 27.448H19.8704V26.448H18.8704V27.448ZM18.8704 34V35H19.8704V34H18.8704ZM18.0304 34H17.0304V35H18.0304V34ZM18.0304 32.848H19.0304L17.1256 32.4222L18.0304 32.848ZM17.1424 33.784L16.6672 32.9041L17.1424 33.784ZM13.8784 33.388L13.177 34.1009L13.183 34.1066L13.8784 33.388ZM13.1344 27.448V26.448H12.1344V27.448H13.1344ZM13.9624 27.448H14.9624V26.448H13.9624V27.448ZM14.4904 32.812L13.7603 33.4955L13.7681 33.5036L14.4904 32.812ZM18.0304 27.448V26.448H17.0304V27.448H18.0304ZM18.8704 27.448H17.8704V34H18.8704H19.8704V27.448H18.8704ZM18.8704 34V33H18.0304V34V35H18.8704V34ZM18.0304 34H19.0304V32.848H18.0304H17.0304V34H18.0304ZM18.0304 32.848L17.1256 32.4222C17.0254 32.6351 16.8808 32.7888 16.6672 32.9041L17.1424 33.784L17.6175 34.6639C18.2039 34.3472 18.6514 33.8769 18.9352 33.2738L18.0304 32.848ZM17.1424 33.784L16.6672 32.9041C16.4262 33.0342 16.144 33.108 15.7984 33.108V34.108V35.108C16.4448 35.108 17.0585 34.9658 17.6175 34.6639L17.1424 33.784ZM15.7984 34.108V33.108C15.2357 33.108 14.8575 32.944 14.5738 32.6694L13.8784 33.388L13.183 34.1066C13.8912 34.792 14.793 35.108 15.7984 35.108V34.108ZM13.8784 33.388L14.5797 32.6752C14.3304 32.4299 14.1344 32.0177 14.1344 31.276H13.1344H12.1344C12.1344 32.3743 12.4343 33.3701 13.177 34.1008L13.8784 33.388ZM13.1344 31.276H14.1344V27.448H13.1344H12.1344V31.276H13.1344ZM13.1344 27.448V28.448H13.9624V27.448V26.448H13.1344V27.448ZM13.9624 27.448H12.9624V31.18H13.9624H14.9624V27.448H13.9624ZM13.9624 31.18H12.9624C12.9624 32.0478 13.1779 32.8732 13.7604 33.4954L14.4904 32.812L15.2204 32.1286C15.0989 31.9988 14.9624 31.7362 14.9624 31.18H13.9624ZM14.4904 32.812L13.7681 33.5036C14.3511 34.1125 15.1198 34.376 15.9544 34.376V33.376V32.376C15.557 32.376 15.3496 32.2635 15.2127 32.1204L14.4904 32.812ZM15.9544 33.376V34.376C16.8166 34.376 17.6008 34.093 18.195 33.4609L17.4664 32.776L16.7377 32.0911C16.5799 32.259 16.3561 32.376 15.9544 32.376V33.376ZM17.4664 32.776L18.195 33.4609C18.8062 32.8107 19.0304 31.9371 19.0304 31.012H18.0304H17.0304C17.0304 31.6389 16.8786 31.9413 16.7377 32.0911L17.4664 32.776ZM18.0304 31.012H19.0304V27.448H18.0304H17.0304V31.012H18.0304ZM18.0304 27.448V28.448H18.8704V27.448V26.448H18.0304V27.448ZM21.6281 28.612H20.6281L22.5397 29.0231L21.6281 28.612ZM22.4681 27.664L21.9642 26.8002L21.9563 26.8049L22.4681 27.664ZM23.8721 27.328H24.8721V26.328H23.8721V27.328ZM23.8721 28.204V29.204H24.8721V28.204H23.8721ZM22.1801 28.696L21.5148 27.9495H21.5148L22.1801 28.696ZM21.6281 34V35H22.6281V34H21.6281ZM20.7881 34H19.7881V35H20.7881V34ZM20.7881 27.448V26.448H19.7881V27.448H20.7881ZM21.6281 27.448H22.6281V26.448H21.6281V27.448ZM21.6281 28.612L22.5397 29.0231C22.6415 28.7974 22.7841 28.6397 22.9799 28.5231L22.4681 27.664L21.9563 26.8049C21.4001 27.1363 20.9827 27.6106 20.7165 28.2009L21.6281 28.612ZM22.4681 27.664L22.972 28.5278C23.1702 28.4122 23.4548 28.328 23.8721 28.328V27.328V26.328C23.1855 26.328 22.5341 26.4678 21.9643 26.8002L22.4681 27.664ZM23.8721 27.328H22.8721V28.204H23.8721H24.8721V27.328H23.8721ZM23.8721 28.204V27.204H23.6441V28.204V29.204H23.8721V28.204ZM23.6441 28.204V27.204C22.8505 27.204 22.1061 27.4224 21.5148 27.9495L22.1801 28.696L22.8455 29.4425C22.9902 29.3136 23.2218 29.204 23.6441 29.204V28.204ZM22.1801 28.696L21.5148 27.9495C20.8393 28.5515 20.6281 29.4445 20.6281 30.34H21.6281H22.6281C22.6281 29.6995 22.785 29.4965 22.8455 29.4425L22.1801 28.696ZM21.6281 30.34H20.6281V34H21.6281H22.6281V30.34H21.6281ZM21.6281 34V33H20.7881V34V35H21.6281V34ZM20.7881 34H21.7881V27.448H20.7881H19.7881V34H20.7881ZM20.7881 27.448V28.448H21.6281V27.448V26.448H20.7881V27.448ZM21.6281 27.448H20.6281V28.612H21.6281H22.6281V27.448H21.6281ZM30.1278 28.06L29.4264 28.7729L29.4324 28.7786L30.1278 28.06ZM30.8718 34V35H31.8718V34H30.8718ZM30.0438 34H29.0438V35H30.0438V34ZM29.5038 28.624L28.7737 29.3075L28.7815 29.3156L29.5038 28.624ZM25.9758 34V35H26.9758V34H25.9758ZM25.1358 34H24.1358V35H25.1358V34ZM25.1358 27.448V26.448H24.1358V27.448H25.1358ZM25.9758 27.448H26.9758V26.448H25.9758V27.448ZM25.9758 28.564H24.9758L26.863 29.0254L25.9758 28.564ZM26.8758 27.652L27.3445 28.5353L27.3515 28.5316L27.3584 28.5278L26.8758 27.652ZM28.2078 27.328V28.328C28.7656 28.328 29.1418 28.4928 29.4264 28.7728L30.1278 28.06L30.8291 27.3472C30.1218 26.6512 29.218 26.328 28.2078 26.328V27.328ZM30.1278 28.06L29.4324 28.7786C29.6753 29.0137 29.8718 29.4172 29.8718 30.16H30.8718H31.8718C31.8718 29.0628 31.5722 28.0663 30.8232 27.3414L30.1278 28.06ZM30.8718 30.16H29.8718V34H30.8718H31.8718V30.16H30.8718ZM30.8718 34V33H30.0438V34V35H30.8718V34ZM30.0438 34H31.0438V30.256H30.0438H29.0438V34H30.0438ZM30.0438 30.256H31.0438C31.0438 29.3827 30.8214 28.5542 30.2261 27.9324L29.5038 28.624L28.7815 29.3156C28.9062 29.4458 29.0438 29.7053 29.0438 30.256H30.0438ZM29.5038 28.624L30.2338 27.9406C29.656 27.3234 28.8857 27.06 28.0518 27.06V28.06V29.06C28.4498 29.06 28.6475 29.1726 28.7738 29.3074L29.5038 28.624ZM28.0518 28.06V27.06C27.1895 27.06 26.4053 27.343 25.8112 27.9751L26.5398 28.66L27.2684 29.3449C27.4262 29.177 27.65 29.06 28.0518 29.06V28.06ZM26.5398 28.66L25.8112 27.9751C25.2 28.6253 24.9758 29.4989 24.9758 30.424H25.9758H26.9758C26.9758 29.7971 27.1276 29.4947 27.2684 29.3449L26.5398 28.66ZM25.9758 30.424H24.9758V34H25.9758H26.9758V30.424H25.9758ZM25.9758 34V33H25.1358V34V35H25.9758V34ZM25.1358 34H26.1358V27.448H25.1358H24.1358V34H25.1358ZM25.1358 27.448V28.448H25.9758V27.448V26.448H25.1358V27.448ZM25.9758 27.448H24.9758V28.564H25.9758H26.9758V27.448H25.9758ZM25.9758 28.564L26.863 29.0254C26.9791 28.8021 27.1346 28.6467 27.3445 28.5353L26.8758 27.652L26.4071 26.7687C25.833 27.0733 25.3885 27.5259 25.0886 28.1026L25.9758 28.564ZM26.8758 27.652L27.3584 28.5278C27.5871 28.4018 27.8619 28.328 28.2078 28.328V27.328V26.328C27.5617 26.328 26.9485 26.4702 26.3932 26.7762L26.8758 27.652ZM37.6785 33.544L37.1753 34.4082L37.1835 34.4129L37.6785 33.544ZM36.1785 32.02L35.3018 32.5011L35.3053 32.5075L35.3089 32.5138L36.1785 32.02ZM36.1785 27.592L35.3063 27.1027L35.3043 27.1064L36.1785 27.592ZM37.6785 26.068L38.1735 26.937L38.1817 26.9322L37.6785 26.068ZM41.9145 26.068L41.4113 26.9322L41.4195 26.9369L41.9145 26.068ZM43.4025 27.592L42.5258 28.0731L42.5283 28.0776L43.4025 27.592ZM43.4025 32.02L44.2767 32.5056L44.2792 32.5011L43.4025 32.02ZM41.9145 33.544L42.4095 34.413L42.4177 34.4082L41.9145 33.544ZM41.4705 32.92L41.9726 33.7848L41.4705 32.92ZM42.6465 31.684L43.5274 32.1573L43.5303 32.1519L42.6465 31.684ZM42.6465 27.928L43.5274 27.4547L42.6465 27.928ZM41.4705 26.692L41.9726 25.8272L41.4705 26.692ZM36.9345 27.928L36.0536 27.4547V27.4547L36.9345 27.928ZM36.9345 31.684L36.0507 32.1519L36.0536 32.1573L36.9345 31.684ZM38.1105 32.92L38.6126 32.0552L38.1105 32.92ZM39.7905 34.084V33.084C39.1761 33.084 38.6445 32.9434 38.1735 32.6751L37.6785 33.544L37.1835 34.4129C37.9765 34.8646 38.853 35.084 39.7905 35.084V34.084ZM37.6785 33.544L38.1817 32.6798C37.7054 32.4025 37.3305 32.0236 37.0481 31.5262L36.1785 32.02L35.3089 32.5138C35.7625 33.3124 36.3876 33.9495 37.1753 34.4082L37.6785 33.544ZM36.1785 32.02L37.0552 31.5389C36.7841 31.0449 36.6385 30.4732 36.6385 29.8H35.6385H34.6385C34.6385 30.7748 34.8529 31.6831 35.3018 32.5011L36.1785 32.02ZM35.6385 29.8H36.6385C36.6385 29.1266 36.7841 28.561 37.0527 28.0776L36.1785 27.592L35.3043 27.1064C34.8529 27.919 34.6385 28.8254 34.6385 29.8H35.6385ZM36.1785 27.592L37.0506 28.0813C37.3329 27.5781 37.7049 27.2038 38.1735 26.9369L37.6785 26.068L37.1835 25.1991C36.3881 25.6522 35.7601 26.2939 35.3064 27.1027L36.1785 27.592ZM37.6785 26.068L38.1817 26.9322C38.6515 26.6586 39.1801 26.516 39.7905 26.516V25.516V24.516C38.8489 24.516 37.9695 24.7414 37.1753 25.2038L37.6785 26.068ZM39.7905 25.516V26.516C40.4109 26.516 40.9431 26.6595 41.4113 26.9322L41.9145 26.068L42.4177 25.2038C41.6219 24.7405 40.7381 24.516 39.7905 24.516V25.516ZM41.9145 26.068L41.4195 26.9369C41.8861 27.2027 42.2521 27.5743 42.5258 28.0731L43.4025 27.592L44.2792 27.1109C43.8329 26.2977 43.2069 25.6533 42.4095 25.1991L41.9145 26.068ZM43.4025 27.592L42.5283 28.0776C42.7969 28.561 42.9425 29.1266 42.9425 29.8H43.9425H44.9425C44.9425 28.8254 44.7281 27.919 44.2767 27.1064L43.4025 27.592ZM43.9425 29.8H42.9425C42.9425 30.4732 42.7969 31.0449 42.5258 31.5389L43.4025 32.02L44.2792 32.5011C44.7281 31.6831 44.9425 30.7748 44.9425 29.8H43.9425ZM43.4025 32.02L42.5283 31.5344C42.2545 32.0274 41.8856 32.4036 41.4113 32.6798L41.9145 33.544L42.4177 34.4082C43.2074 33.9484 43.8306 33.3086 44.2767 32.5056L43.4025 32.02ZM41.9145 33.544L41.4195 32.6751C40.95 32.9425 40.4149 33.084 39.7905 33.084V34.084V35.084C40.7341 35.084 41.615 34.8655 42.4095 34.4129L41.9145 33.544ZM39.7905 33.352V34.352C40.5749 34.352 41.3109 34.1691 41.9726 33.7848L41.4705 32.92L40.9684 32.0552C40.6381 32.2469 40.2541 32.352 39.7905 32.352V33.352ZM41.4705 32.92L41.9726 33.7848C42.6386 33.3981 43.1574 32.846 43.5274 32.1573L42.6465 31.684L41.7656 31.2107C41.5596 31.594 41.2944 31.8659 40.9684 32.0552L41.4705 32.92ZM42.6465 31.684L43.5303 32.1519C43.9058 31.4426 44.0785 30.6494 44.0785 29.8H43.0785H42.0785C42.0785 30.3746 41.9632 30.8374 41.7627 31.2161L42.6465 31.684ZM43.0785 29.8H44.0785C44.0785 28.951 43.9059 28.1592 43.5274 27.4547L42.6465 27.928L41.7656 28.4013C41.9631 28.7688 42.0785 29.225 42.0785 29.8H43.0785ZM42.6465 27.928L43.5274 27.4547C43.1574 26.766 42.6386 26.2139 41.9726 25.8272L41.4705 26.692L40.9684 27.5568C41.2944 27.7461 41.5596 28.018 41.7656 28.4013L42.6465 27.928ZM41.4705 26.692L41.9726 25.8272C41.3109 25.4429 40.5749 25.26 39.7905 25.26V26.26V27.26C40.2541 27.26 40.6381 27.3651 40.9684 27.5568L41.4705 26.692ZM39.7905 26.26V25.26C39.0061 25.26 38.2701 25.4429 37.6084 25.8272L38.1105 26.692L38.6126 27.5568C38.9429 27.3651 39.3269 27.26 39.7905 27.26V26.26ZM38.1105 26.692L37.6084 25.8272C36.9424 26.2139 36.4236 26.766 36.0536 27.4547L36.9345 27.928L37.8154 28.4013C38.0214 28.018 38.2866 27.7461 38.6126 27.5568L38.1105 26.692ZM36.9345 27.928L36.0536 27.4547C35.6751 28.1592 35.5025 28.951 35.5025 29.8H36.5025H37.5025C37.5025 29.225 37.6179 28.7688 37.8154 28.4013L36.9345 27.928ZM36.5025 29.8H35.5025C35.5025 30.6494 35.6752 31.4426 36.0507 32.1519L36.9345 31.684L37.8183 31.2161C37.6178 30.8374 37.5025 30.3746 37.5025 29.8H36.5025ZM36.9345 31.684L36.0536 32.1573C36.4236 32.846 36.9424 33.3981 37.6084 33.7848L38.1105 32.92L38.6126 32.0552C38.2866 31.8659 38.0214 31.594 37.8154 31.2107L36.9345 31.684ZM38.1105 32.92L37.6084 33.7848C38.2701 34.1691 39.0061 34.352 39.7905 34.352V33.352V32.352C39.3269 32.352 38.9429 32.2469 38.6126 32.0552L38.1105 32.92ZM48.0595 28.156V29.156H49.0595V28.156H48.0595ZM46.5355 28.156V27.156H45.5355V28.156H46.5355ZM46.5355 34V35H47.5355V34H46.5355ZM45.6955 34H44.6955V35H45.6955V34ZM45.6955 28.156H46.6955V27.156H45.6955V28.156ZM44.7835 28.156H43.7835V29.156H44.7835V28.156ZM44.7835 27.448V26.448H43.7835V27.448H44.7835ZM45.6955 27.448V28.448H46.6955V27.448H45.6955ZM46.2355 25.42L45.5612 24.6815L45.5532 24.6889L46.2355 25.42ZM48.0115 24.916H49.0115V23.916H48.0115V24.916ZM48.0115 25.636V26.636H49.0115V25.636H48.0115ZM46.8595 25.948L46.1791 25.2152L46.1724 25.2214L46.1659 25.2277L46.8595 25.948ZM46.5355 27.448H45.5355V28.448H46.5355V27.448ZM48.0595 27.448H49.0595V26.448H48.0595V27.448ZM48.0595 28.156V27.156H46.5355V28.156V29.156H48.0595V28.156ZM46.5355 28.156H45.5355V34H46.5355H47.5355V28.156H46.5355ZM46.5355 34V33H45.6955V34V35H46.5355V34ZM45.6955 34H46.6955V28.156H45.6955H44.6955V34H45.6955ZM45.6955 28.156V27.156H44.7835V28.156V29.156H45.6955V28.156ZM44.7835 28.156H45.7835V27.448H44.7835H43.7835V28.156H44.7835ZM44.7835 27.448V28.448H45.6955V27.448V26.448H44.7835V27.448ZM45.6955 27.448H46.6955V26.992H45.6955H44.6955V27.448H45.6955ZM45.6955 26.992H46.6955C46.6955 26.4319 46.8368 26.2267 46.9179 26.1511L46.2355 25.42L45.5532 24.6889C44.9143 25.2853 44.6955 26.1281 44.6955 26.992H45.6955ZM46.2355 25.42L46.9098 26.1585C47.0069 26.0699 47.2955 25.916 48.0115 25.916V24.916V23.916C47.0956 23.916 46.2002 24.0981 45.5613 24.6815L46.2355 25.42ZM48.0115 24.916H47.0115V25.636H48.0115H49.0115V24.916H48.0115ZM48.0115 25.636V24.636C47.3939 24.636 46.6869 24.7437 46.1791 25.2152L46.8595 25.948L47.54 26.6808C47.5028 26.7153 47.4958 26.7012 47.5769 26.6792C47.659 26.657 47.7979 26.636 48.0115 26.636V25.636ZM46.8595 25.948L46.1659 25.2277C45.6612 25.7136 45.5355 26.3961 45.5355 26.992H46.5355H47.5355C47.5355 26.8167 47.5555 26.7132 47.5716 26.6614C47.5863 26.6141 47.5902 26.6326 47.5532 26.6683L46.8595 25.948ZM46.5355 26.992H45.5355V27.448H46.5355H47.5355V26.992H46.5355ZM46.5355 27.448V28.448H48.0595V27.448V26.448H46.5355V27.448ZM48.0595 27.448H47.0595V28.156H48.0595H49.0595V27.448H48.0595ZM51.9619 28.156V29.156H52.9619V28.156H51.9619ZM50.4379 28.156V27.156H49.4379V28.156H50.4379ZM50.4379 34V35H51.4379V34H50.4379ZM49.5979 34H48.5979V35H49.5979V34ZM49.5979 28.156H50.5979V27.156H49.5979V28.156ZM48.6859 28.156H47.6859V29.156H48.6859V28.156ZM48.6859 27.448V26.448H47.6859V27.448H48.6859ZM49.5979 27.448V28.448H50.5979V27.448H49.5979ZM50.1379 25.42L49.4636 24.6815L49.4556 24.6889L50.1379 25.42ZM51.9139 24.916H52.9139V23.916H51.9139V24.916ZM51.9139 25.636V26.636H52.9139V25.636H51.9139ZM50.7619 25.948L50.0814 25.2152L50.0748 25.2214L50.0682 25.2277L50.7619 25.948ZM50.4379 27.448H49.4379V28.448H50.4379V27.448ZM51.9619 27.448H52.9619V26.448H51.9619V27.448ZM51.9619 28.156V27.156H50.4379V28.156V29.156H51.9619V28.156ZM50.4379 28.156H49.4379V34H50.4379H51.4379V28.156H50.4379ZM50.4379 34V33H49.5979V34V35H50.4379V34ZM49.5979 34H50.5979V28.156H49.5979H48.5979V34H49.5979ZM49.5979 28.156V27.156H48.6859V28.156V29.156H49.5979V28.156ZM48.6859 28.156H49.6859V27.448H48.6859H47.6859V28.156H48.6859ZM48.6859 27.448V28.448H49.5979V27.448V26.448H48.6859V27.448ZM49.5979 27.448H50.5979V26.992H49.5979H48.5979V27.448H49.5979ZM49.5979 26.992H50.5979C50.5979 26.4319 50.7391 26.2267 50.8202 26.1511L50.1379 25.42L49.4556 24.6889C48.8166 25.2853 48.5979 26.1281 48.5979 26.992H49.5979ZM50.1379 25.42L50.8121 26.1585C50.9092 26.0699 51.1978 25.916 51.9139 25.916V24.916V23.916C50.9979 23.916 50.1026 24.0981 49.4636 24.6815L50.1379 25.42ZM51.9139 24.916H50.9139V25.636H51.9139H52.9139V24.916H51.9139ZM51.9139 25.636V24.636C51.2962 24.636 50.5892 24.7437 50.0814 25.2152L50.7619 25.948L51.4423 26.6808C51.4052 26.7153 51.3981 26.7012 51.4793 26.6792C51.5614 26.657 51.7003 26.636 51.9139 26.636V25.636ZM50.7619 25.948L50.0682 25.2277C49.5636 25.7136 49.4379 26.3961 49.4379 26.992H50.4379H51.4379C51.4379 26.8167 51.4579 26.7132 51.4739 26.6614C51.4886 26.6141 51.4926 26.6326 51.4555 26.6683L50.7619 25.948ZM50.4379 26.992H49.4379V27.448H50.4379H51.4379V26.992H50.4379ZM50.4379 27.448V28.448H51.9619V27.448V26.448H50.4379V27.448ZM51.9619 27.448H50.9619V28.156H51.9619H52.9619V27.448H51.9619Z" fill="#5D75AA" mask="url(#path-2-outside-1_7_288)"/>
<defs>
<linearGradient id="paint0_linear_7_288" x1="30" y1="56" x2="30" y2="0" gradientUnits="userSpaceOnUse">
<stop stop-color="#06266B"/>
<stop offset="1" stop-color="#495689"/>
</linearGradient>
</defs>
</svg>
