<svg width="60" height="56" viewBox="0 0 60 56" fill="none" xmlns="http://www.w3.org/2000/svg">
<rect x="0.5" y="0.5" width="59" height="55" rx="4.5" fill="url(#paint0_linear_7_137)" stroke="#06266B"/>
<path d="M10.868 25.612V26.308H8.54V34H7.7V26.308H5.36V25.612H10.868ZM17.8704 27.448V34H17.0304V32.848C16.8384 33.256 16.5424 33.568 16.1424 33.784C15.7424 34 15.2944 34.108 14.7984 34.108C14.0144 34.108 13.3744 33.868 12.8784 33.388C12.3824 32.9 12.1344 32.196 12.1344 31.276V27.448H12.9624V31.18C12.9624 31.892 13.1384 32.436 13.4904 32.812C13.8504 33.188 14.3384 33.376 14.9544 33.376C15.5864 33.376 16.0904 33.176 16.4664 32.776C16.8424 32.376 17.0304 31.788 17.0304 31.012V27.448H17.8704ZM20.6281 28.612C20.8121 28.204 21.0921 27.888 21.4681 27.664C21.8521 27.44 22.3201 27.328 22.8721 27.328V28.204H22.6441C22.0361 28.204 21.5481 28.368 21.1801 28.696C20.8121 29.024 20.6281 29.572 20.6281 30.34V34H19.7881V27.448H20.6281V28.612ZM27.2078 27.328C27.9918 27.328 28.6318 27.572 29.1278 28.06C29.6238 28.54 29.8718 29.24 29.8718 30.16V34H29.0438V30.256C29.0438 29.544 28.8638 29 28.5038 28.624C28.1518 28.248 27.6678 28.06 27.0518 28.06C26.4198 28.06 25.9158 28.26 25.5398 28.66C25.1638 29.06 24.9758 29.648 24.9758 30.424V34H24.1358V27.448H24.9758V28.564C25.1838 28.164 25.4838 27.86 25.8758 27.652C26.2678 27.436 26.7118 27.328 27.2078 27.328ZM38.7905 34.084C38.0145 34.084 37.3105 33.904 36.6785 33.544C36.0465 33.176 35.5465 32.668 35.1785 32.02C34.8185 31.364 34.6385 30.624 34.6385 29.8C34.6385 28.976 34.8185 28.24 35.1785 27.592C35.5465 26.936 36.0465 26.428 36.6785 26.068C37.3105 25.7 38.0145 25.516 38.7905 25.516C39.5745 25.516 40.2825 25.7 40.9145 26.068C41.5465 26.428 42.0425 26.936 42.4025 27.592C42.7625 28.24 42.9425 28.976 42.9425 29.8C42.9425 30.624 42.7625 31.364 42.4025 32.02C42.0425 32.668 41.5465 33.176 40.9145 33.544C40.2825 33.904 39.5745 34.084 38.7905 34.084ZM38.7905 33.352C39.4145 33.352 39.9745 33.208 40.4705 32.92C40.9665 32.632 41.3585 32.22 41.6465 31.684C41.9345 31.14 42.0785 30.512 42.0785 29.8C42.0785 29.088 41.9345 28.464 41.6465 27.928C41.3585 27.392 40.9665 26.98 40.4705 26.692C39.9745 26.404 39.4145 26.26 38.7905 26.26C38.1665 26.26 37.6065 26.404 37.1105 26.692C36.6145 26.98 36.2225 27.392 35.9345 27.928C35.6465 28.464 35.5025 29.088 35.5025 29.8C35.5025 30.512 35.6465 31.14 35.9345 31.684C36.2225 32.22 36.6145 32.632 37.1105 32.92C37.6065 33.208 38.1665 33.352 38.7905 33.352ZM47.5515 27.328C48.3355 27.328 48.9755 27.572 49.4715 28.06C49.9675 28.54 50.2155 29.24 50.2155 30.16V34H49.3875V30.256C49.3875 29.544 49.2075 29 48.8475 28.624C48.4955 28.248 48.0115 28.06 47.3955 28.06C46.7635 28.06 46.2595 28.26 45.8835 28.66C45.5075 29.06 45.3195 29.648 45.3195 30.424V34H44.4795V27.448H45.3195V28.564C45.5275 28.164 45.8275 27.86 46.2195 27.652C46.6115 27.436 47.0555 27.328 47.5515 27.328Z" fill="black"/>
<defs>
<linearGradient id="paint0_linear_7_137" x1="30" y1="56" x2="30" y2="0" gradientUnits="userSpaceOnUse">
<stop stop-color="#06266B"/>
<stop offset="1" stop-color="#D2E0FF"/>
</linearGradient>
</defs>
</svg>
