<svg width="60" height="56" viewBox="0 0 60 56" fill="none" xmlns="http://www.w3.org/2000/svg">
<rect x="0.5" y="0.5" width="59" height="55" rx="4.5" fill="url(#paint0_linear_7_149)" stroke="#06266B"/>
<path d="M11.868 25.612V26.308H9.54V34H8.7V26.308H6.36V25.612H11.868ZM18.8704 27.448V34H18.0304V32.848C17.8384 33.256 17.5424 33.568 17.1424 33.784C16.7424 34 16.2944 34.108 15.7984 34.108C15.0144 34.108 14.3744 33.868 13.8784 33.388C13.3824 32.9 13.1344 32.196 13.1344 31.276V27.448H13.9624V31.18C13.9624 31.892 14.1384 32.436 14.4904 32.812C14.8504 33.188 15.3384 33.376 15.9544 33.376C16.5864 33.376 17.0904 33.176 17.4664 32.776C17.8424 32.376 18.0304 31.788 18.0304 31.012V27.448H18.8704ZM21.6281 28.612C21.8121 28.204 22.0921 27.888 22.4681 27.664C22.8521 27.44 23.3201 27.328 23.8721 27.328V28.204H23.6441C23.0361 28.204 22.5481 28.368 22.1801 28.696C21.8121 29.024 21.6281 29.572 21.6281 30.34V34H20.7881V27.448H21.6281V28.612ZM28.2078 27.328C28.9918 27.328 29.6318 27.572 30.1278 28.06C30.6238 28.54 30.8718 29.24 30.8718 30.16V34H30.0438V30.256C30.0438 29.544 29.8638 29 29.5038 28.624C29.1518 28.248 28.6678 28.06 28.0518 28.06C27.4198 28.06 26.9158 28.26 26.5398 28.66C26.1638 29.06 25.9758 29.648 25.9758 30.424V34H25.1358V27.448H25.9758V28.564C26.1838 28.164 26.4838 27.86 26.8758 27.652C27.2678 27.436 27.7118 27.328 28.2078 27.328ZM39.7905 34.084C39.0145 34.084 38.3105 33.904 37.6785 33.544C37.0465 33.176 36.5465 32.668 36.1785 32.02C35.8185 31.364 35.6385 30.624 35.6385 29.8C35.6385 28.976 35.8185 28.24 36.1785 27.592C36.5465 26.936 37.0465 26.428 37.6785 26.068C38.3105 25.7 39.0145 25.516 39.7905 25.516C40.5745 25.516 41.2825 25.7 41.9145 26.068C42.5465 26.428 43.0425 26.936 43.4025 27.592C43.7625 28.24 43.9425 28.976 43.9425 29.8C43.9425 30.624 43.7625 31.364 43.4025 32.02C43.0425 32.668 42.5465 33.176 41.9145 33.544C41.2825 33.904 40.5745 34.084 39.7905 34.084ZM39.7905 33.352C40.4145 33.352 40.9745 33.208 41.4705 32.92C41.9665 32.632 42.3585 32.22 42.6465 31.684C42.9345 31.14 43.0785 30.512 43.0785 29.8C43.0785 29.088 42.9345 28.464 42.6465 27.928C42.3585 27.392 41.9665 26.98 41.4705 26.692C40.9745 26.404 40.4145 26.26 39.7905 26.26C39.1665 26.26 38.6065 26.404 38.1105 26.692C37.6145 26.98 37.2225 27.392 36.9345 27.928C36.6465 28.464 36.5025 29.088 36.5025 29.8C36.5025 30.512 36.6465 31.14 36.9345 31.684C37.2225 32.22 37.6145 32.632 38.1105 32.92C38.6065 33.208 39.1665 33.352 39.7905 33.352ZM48.0595 28.156H46.5355V34H45.6955V28.156H44.7835V27.448H45.6955V26.992C45.6955 26.28 45.8755 25.756 46.2355 25.42C46.6035 25.084 47.1955 24.916 48.0115 24.916V25.636C47.4675 25.636 47.0835 25.74 46.8595 25.948C46.6435 26.156 46.5355 26.504 46.5355 26.992V27.448H48.0595V28.156ZM51.9619 28.156H50.4379V34H49.5979V28.156H48.6859V27.448H49.5979V26.992C49.5979 26.28 49.7779 25.756 50.1379 25.42C50.5059 25.084 51.0979 24.916 51.9139 24.916V25.636C51.3699 25.636 50.9859 25.74 50.7619 25.948C50.5459 26.156 50.4379 26.504 50.4379 26.992V27.448H51.9619V28.156Z" fill="black"/>
<defs>
<linearGradient id="paint0_linear_7_149" x1="30" y1="56" x2="30" y2="0" gradientUnits="userSpaceOnUse">
<stop stop-color="#06266B"/>
<stop offset="1" stop-color="#D2E0FF"/>
</linearGradient>
</defs>
</svg>
