<svg width="60" height="56" viewBox="0 0 60 56" fill="none" xmlns="http://www.w3.org/2000/svg">
<rect x="0.5" y="0.5" width="59" height="55" rx="4.5" fill="url(#paint0_linear_7_279)" stroke="#5D75AA"/>
<mask id="path-2-outside-1_7_279" maskUnits="userSpaceOnUse" x="6" y="24" width="50" height="13" fill="black">
<rect fill="white" x="6" y="24" width="50" height="13"/>
<path d="M12.496 25.612V26.308H8.8V29.44H11.92V30.136H8.8V34H7.96V25.612H12.496ZM16.746 34.096C16.13 34.096 15.574 33.96 15.078 33.688C14.59 33.408 14.202 33.016 13.914 32.512C13.634 32 13.494 31.404 13.494 30.724C13.494 30.044 13.638 29.452 13.926 28.948C14.214 28.436 14.606 28.044 15.102 27.772C15.598 27.492 16.154 27.352 16.77 27.352C17.386 27.352 17.942 27.492 18.438 27.772C18.942 28.044 19.334 28.436 19.614 28.948C19.902 29.452 20.046 30.044 20.046 30.724C20.046 31.396 19.902 31.988 19.614 32.5C19.326 33.012 18.93 33.408 18.426 33.688C17.922 33.96 17.362 34.096 16.746 34.096ZM16.746 33.364C17.178 33.364 17.578 33.268 17.946 33.076C18.314 32.876 18.61 32.58 18.834 32.188C19.066 31.788 19.182 31.3 19.182 30.724C19.182 30.148 19.07 29.664 18.846 29.272C18.622 28.872 18.326 28.576 17.958 28.384C17.59 28.184 17.19 28.084 16.758 28.084C16.326 28.084 15.926 28.184 15.558 28.384C15.19 28.576 14.894 28.872 14.67 29.272C14.454 29.664 14.346 30.148 14.346 30.724C14.346 31.3 14.454 31.788 14.67 32.188C14.894 32.58 15.186 32.876 15.546 33.076C15.914 33.268 16.314 33.364 16.746 33.364ZM22.4172 28.612C22.6012 28.204 22.8812 27.888 23.2572 27.664C23.6412 27.44 24.1092 27.328 24.6612 27.328V28.204H24.4332C23.8252 28.204 23.3372 28.368 22.9692 28.696C22.6012 29.024 22.4172 29.572 22.4172 30.34V34H21.5772V27.448H22.4172V28.612ZM34.5648 27.448L32.5128 34H31.6728L29.8608 28.504L28.0488 34H27.1968L25.1448 27.448H25.9968L27.6288 33.148L29.4648 27.448H30.3048L32.1168 33.16L33.7368 27.448H34.5648ZM35.326 30.712C35.326 30.04 35.458 29.452 35.722 28.948C35.994 28.436 36.366 28.044 36.838 27.772C37.318 27.492 37.858 27.352 38.458 27.352C39.082 27.352 39.618 27.496 40.066 27.784C40.522 28.072 40.85 28.44 41.05 28.888V27.448H41.89V34H41.05V32.548C40.842 32.996 40.51 33.368 40.054 33.664C39.606 33.952 39.07 34.096 38.446 34.096C37.854 34.096 37.318 33.956 36.838 33.676C36.366 33.396 35.994 33 35.722 32.488C35.458 31.976 35.326 31.384 35.326 30.712ZM41.05 30.724C41.05 30.196 40.942 29.732 40.726 29.332C40.51 28.932 40.214 28.624 39.838 28.408C39.47 28.192 39.062 28.084 38.614 28.084C38.15 28.084 37.734 28.188 37.366 28.396C36.998 28.604 36.706 28.908 36.49 29.308C36.282 29.7 36.178 30.168 36.178 30.712C36.178 31.248 36.282 31.72 36.49 32.128C36.706 32.528 36.998 32.836 37.366 33.052C37.734 33.26 38.15 33.364 38.614 33.364C39.062 33.364 39.47 33.256 39.838 33.04C40.214 32.824 40.51 32.516 40.726 32.116C40.942 31.716 41.05 31.252 41.05 30.724ZM44.6477 28.612C44.8317 28.204 45.1117 27.888 45.4877 27.664C45.8717 27.44 46.3397 27.328 46.8917 27.328V28.204H46.6637C46.0557 28.204 45.5677 28.368 45.1997 28.696C44.8317 29.024 44.6477 29.572 44.6477 30.34V34H43.8077V27.448H44.6477V28.612ZM47.7713 30.712C47.7713 30.04 47.9073 29.452 48.1793 28.948C48.4513 28.436 48.8233 28.044 49.2953 27.772C49.7753 27.492 50.3153 27.352 50.9153 27.352C51.4913 27.352 52.0113 27.492 52.4753 27.772C52.9393 28.052 53.2793 28.416 53.4953 28.864V25.12H54.3353V34H53.4953V32.536C53.2953 32.992 52.9673 33.368 52.5113 33.664C52.0553 33.952 51.5193 34.096 50.9033 34.096C50.3033 34.096 49.7633 33.956 49.2833 33.676C48.8113 33.396 48.4393 33 48.1673 32.488C47.9033 31.976 47.7713 31.384 47.7713 30.712ZM53.4953 30.724C53.4953 30.196 53.3873 29.732 53.1713 29.332C52.9553 28.932 52.6593 28.624 52.2833 28.408C51.9153 28.192 51.5073 28.084 51.0593 28.084C50.5953 28.084 50.1793 28.188 49.8113 28.396C49.4433 28.604 49.1513 28.908 48.9353 29.308C48.7273 29.7 48.6233 30.168 48.6233 30.712C48.6233 31.248 48.7273 31.72 48.9353 32.128C49.1513 32.528 49.4433 32.836 49.8113 33.052C50.1793 33.26 50.5953 33.364 51.0593 33.364C51.5073 33.364 51.9153 33.256 52.2833 33.04C52.6593 32.824 52.9553 32.516 53.1713 32.116C53.3873 31.716 53.4953 31.252 53.4953 30.724Z"/>
</mask>
<path d="M12.496 25.612V26.308H8.8V29.44H11.92V30.136H8.8V34H7.96V25.612H12.496ZM16.746 34.096C16.13 34.096 15.574 33.96 15.078 33.688C14.59 33.408 14.202 33.016 13.914 32.512C13.634 32 13.494 31.404 13.494 30.724C13.494 30.044 13.638 29.452 13.926 28.948C14.214 28.436 14.606 28.044 15.102 27.772C15.598 27.492 16.154 27.352 16.77 27.352C17.386 27.352 17.942 27.492 18.438 27.772C18.942 28.044 19.334 28.436 19.614 28.948C19.902 29.452 20.046 30.044 20.046 30.724C20.046 31.396 19.902 31.988 19.614 32.5C19.326 33.012 18.93 33.408 18.426 33.688C17.922 33.96 17.362 34.096 16.746 34.096ZM16.746 33.364C17.178 33.364 17.578 33.268 17.946 33.076C18.314 32.876 18.61 32.58 18.834 32.188C19.066 31.788 19.182 31.3 19.182 30.724C19.182 30.148 19.07 29.664 18.846 29.272C18.622 28.872 18.326 28.576 17.958 28.384C17.59 28.184 17.19 28.084 16.758 28.084C16.326 28.084 15.926 28.184 15.558 28.384C15.19 28.576 14.894 28.872 14.67 29.272C14.454 29.664 14.346 30.148 14.346 30.724C14.346 31.3 14.454 31.788 14.67 32.188C14.894 32.58 15.186 32.876 15.546 33.076C15.914 33.268 16.314 33.364 16.746 33.364ZM22.4172 28.612C22.6012 28.204 22.8812 27.888 23.2572 27.664C23.6412 27.44 24.1092 27.328 24.6612 27.328V28.204H24.4332C23.8252 28.204 23.3372 28.368 22.9692 28.696C22.6012 29.024 22.4172 29.572 22.4172 30.34V34H21.5772V27.448H22.4172V28.612ZM34.5648 27.448L32.5128 34H31.6728L29.8608 28.504L28.0488 34H27.1968L25.1448 27.448H25.9968L27.6288 33.148L29.4648 27.448H30.3048L32.1168 33.16L33.7368 27.448H34.5648ZM35.326 30.712C35.326 30.04 35.458 29.452 35.722 28.948C35.994 28.436 36.366 28.044 36.838 27.772C37.318 27.492 37.858 27.352 38.458 27.352C39.082 27.352 39.618 27.496 40.066 27.784C40.522 28.072 40.85 28.44 41.05 28.888V27.448H41.89V34H41.05V32.548C40.842 32.996 40.51 33.368 40.054 33.664C39.606 33.952 39.07 34.096 38.446 34.096C37.854 34.096 37.318 33.956 36.838 33.676C36.366 33.396 35.994 33 35.722 32.488C35.458 31.976 35.326 31.384 35.326 30.712ZM41.05 30.724C41.05 30.196 40.942 29.732 40.726 29.332C40.51 28.932 40.214 28.624 39.838 28.408C39.47 28.192 39.062 28.084 38.614 28.084C38.15 28.084 37.734 28.188 37.366 28.396C36.998 28.604 36.706 28.908 36.49 29.308C36.282 29.7 36.178 30.168 36.178 30.712C36.178 31.248 36.282 31.72 36.49 32.128C36.706 32.528 36.998 32.836 37.366 33.052C37.734 33.26 38.15 33.364 38.614 33.364C39.062 33.364 39.47 33.256 39.838 33.04C40.214 32.824 40.51 32.516 40.726 32.116C40.942 31.716 41.05 31.252 41.05 30.724ZM44.6477 28.612C44.8317 28.204 45.1117 27.888 45.4877 27.664C45.8717 27.44 46.3397 27.328 46.8917 27.328V28.204H46.6637C46.0557 28.204 45.5677 28.368 45.1997 28.696C44.8317 29.024 44.6477 29.572 44.6477 30.34V34H43.8077V27.448H44.6477V28.612ZM47.7713 30.712C47.7713 30.04 47.9073 29.452 48.1793 28.948C48.4513 28.436 48.8233 28.044 49.2953 27.772C49.7753 27.492 50.3153 27.352 50.9153 27.352C51.4913 27.352 52.0113 27.492 52.4753 27.772C52.9393 28.052 53.2793 28.416 53.4953 28.864V25.12H54.3353V34H53.4953V32.536C53.2953 32.992 52.9673 33.368 52.5113 33.664C52.0553 33.952 51.5193 34.096 50.9033 34.096C50.3033 34.096 49.7633 33.956 49.2833 33.676C48.8113 33.396 48.4393 33 48.1673 32.488C47.9033 31.976 47.7713 31.384 47.7713 30.712ZM53.4953 30.724C53.4953 30.196 53.3873 29.732 53.1713 29.332C52.9553 28.932 52.6593 28.624 52.2833 28.408C51.9153 28.192 51.5073 28.084 51.0593 28.084C50.5953 28.084 50.1793 28.188 49.8113 28.396C49.4433 28.604 49.1513 28.908 48.9353 29.308C48.7273 29.7 48.6233 30.168 48.6233 30.712C48.6233 31.248 48.7273 31.72 48.9353 32.128C49.1513 32.528 49.4433 32.836 49.8113 33.052C50.1793 33.26 50.5953 33.364 51.0593 33.364C51.5073 33.364 51.9153 33.256 52.2833 33.04C52.6593 32.824 52.9553 32.516 53.1713 32.116C53.3873 31.716 53.4953 31.252 53.4953 30.724Z" fill="white"/>
<path d="M12.496 25.612H13.496V24.612H12.496V25.612ZM12.496 26.308V27.308H13.496V26.308H12.496ZM8.8 26.308V25.308H7.8V26.308H8.8ZM8.8 29.44H7.8V30.44H8.8V29.44ZM11.92 29.44H12.92V28.44H11.92V29.44ZM11.92 30.136V31.136H12.92V30.136H11.92ZM8.8 30.136V29.136H7.8V30.136H8.8ZM8.8 34V35H9.8V34H8.8ZM7.96 34H6.96V35H7.96V34ZM7.96 25.612V24.612H6.96V25.612H7.96ZM12.496 25.612H11.496V26.308H12.496H13.496V25.612H12.496ZM12.496 26.308V25.308H8.8V26.308V27.308H12.496V26.308ZM8.8 26.308H7.8V29.44H8.8H9.8V26.308H8.8ZM8.8 29.44V30.44H11.92V29.44V28.44H8.8V29.44ZM11.92 29.44H10.92V30.136H11.92H12.92V29.44H11.92ZM11.92 30.136V29.136H8.8V30.136V31.136H11.92V30.136ZM8.8 30.136H7.8V34H8.8H9.8V30.136H8.8ZM8.8 34V33H7.96V34V35H8.8V34ZM7.96 34H8.96V25.612H7.96H6.96V34H7.96ZM7.96 25.612V26.612H12.496V25.612V24.612H7.96V25.612ZM15.078 33.688L14.5803 34.5554L14.5887 34.5602L14.5971 34.5648L15.078 33.688ZM13.914 32.512L13.0366 32.9918L13.0411 33L13.0457 33.0081L13.914 32.512ZM13.926 28.948L14.7942 29.4441L14.7975 29.4383L13.926 28.948ZM15.102 27.772L15.5828 28.6489L15.5936 28.6428L15.102 27.772ZM18.438 27.772L17.9464 28.6428L17.9547 28.6475L17.963 28.652L18.438 27.772ZM19.614 28.948L18.7366 29.4278L18.7411 29.436L18.7457 29.4441L19.614 28.948ZM19.614 32.5L20.4855 32.9903L19.614 32.5ZM18.426 33.688L18.9009 34.5681L18.9116 34.5622L18.426 33.688ZM17.946 33.076L18.4085 33.9626L18.416 33.9587L18.4235 33.9546L17.946 33.076ZM18.834 32.188L17.9689 31.6863L17.9657 31.6919L18.834 32.188ZM18.846 29.272L17.9734 29.7606L17.9777 29.7681L18.846 29.272ZM17.958 28.384L17.4805 29.2626L17.4879 29.2667L17.4954 29.2706L17.958 28.384ZM15.558 28.384L16.0205 29.2706L16.028 29.2667L16.0355 29.2626L15.558 28.384ZM14.67 29.272L13.7974 28.7834L13.7941 28.7894L14.67 29.272ZM14.67 32.188L13.7901 32.6631L13.7958 32.6737L13.8017 32.6841L14.67 32.188ZM15.546 33.076L15.0603 33.9502L15.0718 33.9565L15.0834 33.9626L15.546 33.076ZM16.746 34.096V33.096C16.2827 33.096 15.8945 32.9953 15.5588 32.8112L15.078 33.688L14.5971 34.5648C15.2534 34.9247 15.9772 35.096 16.746 35.096V34.096ZM15.078 33.688L15.5756 32.8206C15.247 32.6321 14.9849 32.3705 14.7822 32.0159L13.914 32.512L13.0457 33.0081C13.4191 33.6615 13.9329 34.1839 14.5803 34.5554L15.078 33.688ZM13.914 32.512L14.7913 32.0322C14.6042 31.69 14.494 31.2642 14.494 30.724H13.494H12.494C12.494 31.5438 12.6638 32.31 13.0366 32.9918L13.914 32.512ZM13.494 30.724H14.494C14.494 30.188 14.6063 29.7729 14.7942 29.4441L13.926 28.948L13.0577 28.4519C12.6696 29.1311 12.494 29.9 12.494 30.724H13.494ZM13.926 28.948L14.7975 29.4383C14.9977 29.0825 15.2571 28.8274 15.5828 28.6488L15.102 27.772L14.6211 26.8952C13.9548 27.2606 13.4303 27.7895 13.0544 28.4577L13.926 28.948ZM15.102 27.772L15.5936 28.6428C15.9274 28.4543 16.3118 28.352 16.77 28.352V27.352V26.352C15.9962 26.352 15.2685 26.5297 14.6104 26.9012L15.102 27.772ZM16.77 27.352V28.352C17.2282 28.352 17.6125 28.4543 17.9464 28.6428L18.438 27.772L18.9296 26.9012C18.2714 26.5297 17.5438 26.352 16.77 26.352V27.352ZM18.438 27.772L17.963 28.652C18.2937 28.8305 18.5474 29.0819 18.7366 29.4278L19.614 28.948L20.4913 28.4682C20.1205 27.7901 19.5903 27.2575 18.9129 26.892L18.438 27.772ZM19.614 28.948L18.7457 29.4441C18.9336 29.7729 19.046 30.188 19.046 30.724H20.046H21.046C21.046 29.9 20.8703 29.1311 20.4822 28.4519L19.614 28.948ZM20.046 30.724H19.046C19.046 31.2493 18.9347 31.6678 18.7424 32.0097L19.614 32.5L20.4855 32.9903C20.8692 32.3082 21.046 31.5427 21.046 30.724H20.046ZM19.614 32.5L18.7424 32.0097C18.5433 32.3638 18.2795 32.6254 17.9403 32.8138L18.426 33.688L18.9116 34.5622C19.5805 34.1906 20.1087 33.6602 20.4855 32.9903L19.614 32.5ZM18.426 33.688L17.951 32.808C17.6039 32.9953 17.209 33.096 16.746 33.096V34.096V35.096C17.5149 35.096 18.2401 34.9247 18.9009 34.568L18.426 33.688ZM16.746 33.364V34.364C17.3322 34.364 17.8918 34.2322 18.4085 33.9626L17.946 33.076L17.4834 32.1894C17.2641 32.3038 17.0237 32.364 16.746 32.364V33.364ZM17.946 33.076L18.4235 33.9546C18.9675 33.659 19.3935 33.2244 19.7022 32.6841L18.834 32.188L17.9657 31.6919C17.8264 31.9356 17.6605 32.093 17.4685 32.1974L17.946 33.076ZM18.834 32.188L19.699 32.6897C20.0387 32.1041 20.182 31.4334 20.182 30.724H19.182H18.182C18.182 31.1666 18.0933 31.4719 17.9689 31.6863L18.834 32.188ZM19.182 30.724H20.182C20.182 30.021 20.0452 29.3552 19.7142 28.7759L18.846 29.272L17.9777 29.7681C18.0947 29.9728 18.182 30.275 18.182 30.724H19.182ZM18.846 29.272L19.7185 28.7834C19.4098 28.2321 18.9788 27.7887 18.4205 27.4974L17.958 28.384L17.4954 29.2706C17.6732 29.3633 17.8342 29.5119 17.9735 29.7606L18.846 29.272ZM17.958 28.384L18.4355 27.5054C17.9162 27.2232 17.3513 27.084 16.758 27.084V28.084V29.084C17.0286 29.084 17.2637 29.1448 17.4805 29.2626L17.958 28.384ZM16.758 28.084V27.084C16.1646 27.084 15.5997 27.2232 15.0805 27.5054L15.558 28.384L16.0355 29.2626C16.2522 29.1448 16.4873 29.084 16.758 29.084V28.084ZM15.558 28.384L15.0954 27.4974C14.5372 27.7887 14.1062 28.2321 13.7975 28.7834L14.67 29.272L15.5425 29.7606C15.6818 29.5119 15.8428 29.3633 16.0205 29.2706L15.558 28.384ZM14.67 29.272L13.7941 28.7894C13.4766 29.3657 13.346 30.0264 13.346 30.724H14.346H15.346C15.346 30.2696 15.4313 29.9623 15.5458 29.7546L14.67 29.272ZM14.346 30.724H13.346C13.346 31.4226 13.4769 32.0833 13.7901 32.6631L14.67 32.188L15.5499 31.7129C15.431 31.4927 15.346 31.1774 15.346 30.724H14.346ZM14.67 32.188L13.8017 32.6841C14.1073 33.219 14.5255 33.653 15.0603 33.9502L15.546 33.076L16.0316 32.2018C15.8464 32.099 15.6806 31.941 15.5382 31.6919L14.67 32.188ZM15.546 33.076L15.0834 33.9626C15.6001 34.2322 16.1597 34.364 16.746 34.364V33.364V32.364C16.4682 32.364 16.2278 32.3038 16.0085 32.1894L15.546 33.076ZM22.4172 28.612H21.4172L23.3288 29.0231L22.4172 28.612ZM23.2572 27.664L22.7533 26.8002L22.7454 26.8049L23.2572 27.664ZM24.6612 27.328H25.6612V26.328H24.6612V27.328ZM24.6612 28.204V29.204H25.6612V28.204H24.6612ZM22.9692 28.696L22.3038 27.9495H22.3038L22.9692 28.696ZM22.4172 34V35H23.4172V34H22.4172ZM21.5772 34H20.5772V35H21.5772V34ZM21.5772 27.448V26.448H20.5772V27.448H21.5772ZM22.4172 27.448H23.4172V26.448H22.4172V27.448ZM22.4172 28.612L23.3288 29.0231C23.4306 28.7974 23.5732 28.6397 23.769 28.5231L23.2572 27.664L22.7454 26.8049C22.1892 27.1363 21.7718 27.6106 21.5056 28.2009L22.4172 28.612ZM23.2572 27.664L23.7611 28.5278C23.9592 28.4122 24.2438 28.328 24.6612 28.328V27.328V26.328C23.9745 26.328 23.3231 26.4678 22.7533 26.8002L23.2572 27.664ZM24.6612 27.328H23.6612V28.204H24.6612H25.6612V27.328H24.6612ZM24.6612 28.204V27.204H24.4332V28.204V29.204H24.6612V28.204ZM24.4332 28.204V27.204C23.6395 27.204 22.8952 27.4224 22.3038 27.9495L22.9692 28.696L23.6346 29.4425C23.7792 29.3136 24.0108 29.204 24.4332 29.204V28.204ZM22.9692 28.696L22.3038 27.9495C21.6283 28.5515 21.4172 29.4445 21.4172 30.34H22.4172H23.4172C23.4172 29.6995 23.574 29.4965 23.6346 29.4425L22.9692 28.696ZM22.4172 30.34H21.4172V34H22.4172H23.4172V30.34H22.4172ZM22.4172 34V33H21.5772V34V35H22.4172V34ZM21.5772 34H22.5772V27.448H21.5772H20.5772V34H21.5772ZM21.5772 27.448V28.448H22.4172V27.448V26.448H21.5772V27.448ZM22.4172 27.448H21.4172V28.612H22.4172H23.4172V27.448H22.4172ZM34.5648 27.448L35.5191 27.7469L35.9259 26.448H34.5648V27.448ZM32.5128 34V35H33.2476L33.4671 34.2989L32.5128 34ZM31.6728 34L30.7231 34.3131L30.9496 35H31.6728V34ZM29.8608 28.504L30.8106 28.1909L29.8608 25.3103L28.9111 28.1909L29.8608 28.504ZM28.0488 34V35H28.7721L28.9986 34.3131L28.0488 34ZM27.1968 34L26.2425 34.2989L26.4621 35H27.1968V34ZM25.1448 27.448V26.448H23.7838L24.1905 27.7469L25.1448 27.448ZM25.9968 27.448L26.9582 27.1727L26.7507 26.448H25.9968V27.448ZM27.6288 33.148L26.6675 33.4233L27.5726 36.5844L28.5807 33.4546L27.6288 33.148ZM29.4648 27.448V26.448H28.7364L28.513 27.1414L29.4648 27.448ZM30.3048 27.448L31.258 27.1456L31.0367 26.448H30.3048V27.448ZM32.1168 33.16L31.1637 33.4624L32.1704 36.6361L33.0789 33.4329L32.1168 33.16ZM33.7368 27.448V26.448H32.981L32.7748 27.1751L33.7368 27.448ZM34.5648 27.448L33.6105 27.1491L31.5585 33.7011L32.5128 34L33.4671 34.2989L35.5191 27.7469L34.5648 27.448ZM32.5128 34V33H31.6728V34V35H32.5128V34ZM31.6728 34L32.6226 33.6869L30.8106 28.1909L29.8608 28.504L28.9111 28.8171L30.7231 34.3131L31.6728 34ZM29.8608 28.504L28.9111 28.1909L27.0991 33.6869L28.0488 34L28.9986 34.3131L30.8106 28.8171L29.8608 28.504ZM28.0488 34V33H27.1968V34V35H28.0488V34ZM27.1968 34L28.1511 33.7011L26.0991 27.1491L25.1448 27.448L24.1905 27.7469L26.2425 34.2989L27.1968 34ZM25.1448 27.448V28.448H25.9968V27.448V26.448H25.1448V27.448ZM25.9968 27.448L25.0355 27.7233L26.6675 33.4233L27.6288 33.148L28.5902 32.8727L26.9582 27.1727L25.9968 27.448ZM27.6288 33.148L28.5807 33.4546L30.4167 27.7546L29.4648 27.448L28.513 27.1414L26.677 32.8414L27.6288 33.148ZM29.4648 27.448V28.448H30.3048V27.448V26.448H29.4648V27.448ZM30.3048 27.448L29.3517 27.7504L31.1637 33.4624L32.1168 33.16L33.07 32.8576L31.258 27.1456L30.3048 27.448ZM32.1168 33.16L33.0789 33.4329L34.6989 27.7209L33.7368 27.448L32.7748 27.1751L31.1548 32.8871L32.1168 33.16ZM33.7368 27.448V28.448H34.5648V27.448V26.448H33.7368V27.448ZM35.722 28.948L34.8389 28.4788L34.8362 28.484L35.722 28.948ZM36.838 27.772L37.3373 28.6384L37.3419 28.6358L36.838 27.772ZM40.066 27.784L39.5252 28.6252L39.532 28.6295L40.066 27.784ZM41.05 28.888L40.1369 29.2957L42.05 28.888H41.05ZM41.05 27.448V26.448H40.05V27.448H41.05ZM41.89 27.448H42.89V26.448H41.89V27.448ZM41.89 34V35H42.89V34H41.89ZM41.05 34H40.05V35H41.05V34ZM41.05 32.548H42.05L40.143 32.1269L41.05 32.548ZM40.054 33.664L40.5948 34.5052L40.5985 34.5028L40.054 33.664ZM36.838 33.676L36.3278 34.5361L36.3341 34.5398L36.838 33.676ZM35.722 32.488L34.8331 32.9463L34.8389 32.9572L35.722 32.488ZM40.726 29.332L41.6059 28.8569L40.726 29.332ZM39.838 28.408L39.3318 29.2705L39.3399 29.2751L39.838 28.408ZM37.366 28.396L37.8581 29.2666L37.366 28.396ZM36.49 29.308L35.6101 28.8328L35.6067 28.8393L36.49 29.308ZM36.49 32.128L35.5991 32.5822L35.6045 32.5927L35.6101 32.6031L36.49 32.128ZM37.366 33.052L36.8598 33.9144L36.8668 33.9185L36.8739 33.9226L37.366 33.052ZM39.838 33.04L39.3399 32.1729L39.3318 32.1776L39.838 33.04ZM40.726 32.116L41.6059 32.5911L40.726 32.116ZM35.326 30.712H36.326C36.326 30.1724 36.4313 29.749 36.6078 29.412L35.722 28.948L34.8362 28.484C34.4847 29.155 34.326 29.9076 34.326 30.712H35.326ZM35.722 28.948L36.6051 29.4172C36.7949 29.0599 37.0386 28.8106 37.3373 28.6384L36.838 27.772L36.3387 26.9056C35.6934 27.2774 35.1931 27.8121 34.8389 28.4788L35.722 28.948ZM36.838 27.772L37.3419 28.6358C37.6568 28.4521 38.0205 28.352 38.458 28.352V27.352V26.352C37.6955 26.352 36.9792 26.5319 36.3341 26.9082L36.838 27.772ZM38.458 27.352V28.352C38.9238 28.352 39.2646 28.4576 39.5252 28.6252L40.066 27.784L40.6068 26.9428C39.9714 26.5344 39.2402 26.352 38.458 26.352V27.352ZM40.066 27.784L39.532 28.6295C39.8385 28.823 40.0252 29.0456 40.1369 29.2957L41.05 28.888L41.9631 28.4803C41.6748 27.8344 41.2055 27.321 40.6 26.9385L40.066 27.784ZM41.05 28.888H42.05V27.448H41.05H40.05V28.888H41.05ZM41.05 27.448V28.448H41.89V27.448V26.448H41.05V27.448ZM41.89 27.448H40.89V34H41.89H42.89V27.448H41.89ZM41.89 34V33H41.05V34V35H41.89V34ZM41.05 34H42.05V32.548H41.05H40.05V34H41.05ZM41.05 32.548L40.143 32.1269C40.022 32.3874 39.8242 32.6209 39.5095 32.8252L40.054 33.664L40.5985 34.5028C41.1958 34.1151 41.662 33.6046 41.957 32.9691L41.05 32.548ZM40.054 33.664L39.5132 32.8228C39.2526 32.9904 38.9118 33.096 38.446 33.096V34.096V35.096C39.2282 35.096 39.9594 34.9136 40.5948 34.5052L40.054 33.664ZM38.446 34.096V33.096C38.0191 33.096 37.6589 32.9972 37.3419 32.8122L36.838 33.676L36.3341 34.5398C36.9771 34.9148 37.6889 35.096 38.446 35.096V34.096ZM36.838 33.676L37.3482 32.8159C37.0431 32.6349 36.7961 32.3783 36.6051 32.0188L35.722 32.488L34.8389 32.9572C35.1919 33.6217 35.6889 34.1571 36.3278 34.5361L36.838 33.676ZM35.722 32.488L36.6108 32.0297C36.4312 31.6813 36.326 31.2511 36.326 30.712H35.326H34.326C34.326 31.5169 34.4848 32.2707 34.8332 32.9463L35.722 32.488ZM41.05 30.724H42.05C42.05 30.057 41.9126 29.4248 41.6059 28.8569L40.726 29.332L39.8461 29.8071C39.9714 30.0392 40.05 30.335 40.05 30.724H41.05ZM40.726 29.332L41.6059 28.8569C41.306 28.3015 40.8813 27.8541 40.3361 27.5409L39.838 28.408L39.3399 29.2751C39.5467 29.3939 39.714 29.5625 39.8461 29.8071L40.726 29.332ZM39.838 28.408L40.3442 27.5456C39.8149 27.2349 39.2307 27.084 38.614 27.084V28.084V29.084C38.8933 29.084 39.1251 29.1491 39.3318 29.2704L39.838 28.408ZM38.614 28.084V27.084C37.9948 27.084 37.4064 27.2245 36.8739 27.5254L37.366 28.396L37.8581 29.2666C38.0616 29.1515 38.3052 29.084 38.614 29.084V28.084ZM37.366 28.396L36.8739 27.5254C36.3296 27.8331 35.9085 28.2802 35.6101 28.8329L36.49 29.308L37.3699 29.7831C37.5035 29.5358 37.6664 29.3749 37.8581 29.2666L37.366 28.396ZM36.49 29.308L35.6067 28.8393C35.3066 29.4047 35.178 30.041 35.178 30.712H36.178H37.178C37.178 30.295 37.2574 29.9953 37.3733 29.7767L36.49 29.308ZM36.178 30.712H35.178C35.178 31.379 35.3081 32.0114 35.5991 32.5822L36.49 32.128L37.3809 31.6738C37.2559 31.4286 37.178 31.117 37.178 30.712H36.178ZM36.49 32.128L35.6101 32.6031C35.907 33.153 36.3238 33.5998 36.8598 33.9144L37.366 33.052L37.8722 32.1896C37.6722 32.0722 37.505 31.903 37.3699 31.6529L36.49 32.128ZM37.366 33.052L36.8739 33.9226C37.4064 34.2235 37.9948 34.364 38.614 34.364V33.364V32.364C38.3052 32.364 38.0616 32.2965 37.8581 32.1814L37.366 33.052ZM38.614 33.364V34.364C39.2307 34.364 39.8149 34.2131 40.3442 33.9024L39.838 33.04L39.3318 32.1776C39.1251 32.2989 38.8933 32.364 38.614 32.364V33.364ZM39.838 33.04L40.3361 33.9071C40.8813 33.5939 41.306 33.1465 41.6059 32.5911L40.726 32.116L39.8461 31.6409C39.714 31.8855 39.5467 32.0541 39.3399 32.1729L39.838 33.04ZM40.726 32.116L41.6059 32.5911C41.9126 32.0232 42.05 31.391 42.05 30.724H41.05H40.05C40.05 31.113 39.9714 31.4088 39.8461 31.6409L40.726 32.116ZM44.6477 28.612H43.6477L45.5592 29.0231L44.6477 28.612ZM45.4877 27.664L44.9838 26.8002L44.9759 26.8049L45.4877 27.664ZM46.8917 27.328H47.8917V26.328H46.8917V27.328ZM46.8917 28.204V29.204H47.8917V28.204H46.8917ZM45.1997 28.696L44.5343 27.9495L45.1997 28.696ZM44.6477 34V35H45.6477V34H44.6477ZM43.8077 34H42.8077V35H43.8077V34ZM43.8077 27.448V26.448H42.8077V27.448H43.8077ZM44.6477 27.448H45.6477V26.448H44.6477V27.448ZM44.6477 28.612L45.5592 29.0231C45.6611 28.7974 45.8037 28.6397 45.9995 28.5231L45.4877 27.664L44.9759 26.8049C44.4196 27.1363 44.0023 27.6106 43.7361 28.2009L44.6477 28.612ZM45.4877 27.664L45.9915 28.5278C46.1897 28.4122 46.4743 28.328 46.8917 28.328V27.328V26.328C46.205 26.328 45.5536 26.4678 44.9838 26.8002L45.4877 27.664ZM46.8917 27.328H45.8917V28.204H46.8917H47.8917V27.328H46.8917ZM46.8917 28.204V27.204H46.6637V28.204V29.204H46.8917V28.204ZM46.6637 28.204V27.204C45.87 27.204 45.1256 27.4224 44.5343 27.9495L45.1997 28.696L45.865 29.4425C46.0097 29.3136 46.2413 29.204 46.6637 29.204V28.204ZM45.1997 28.696L44.5343 27.9495C43.8588 28.5515 43.6477 29.4445 43.6477 30.34H44.6477H45.6477C45.6477 29.6995 45.8045 29.4965 45.865 29.4425L45.1997 28.696ZM44.6477 30.34H43.6477V34H44.6477H45.6477V30.34H44.6477ZM44.6477 34V33H43.8077V34V35H44.6477V34ZM43.8077 34H44.8077V27.448H43.8077H42.8077V34H43.8077ZM43.8077 27.448V28.448H44.6477V27.448V26.448H43.8077V27.448ZM44.6477 27.448H43.6477V28.612H44.6477H45.6477V27.448H44.6477ZM48.1793 28.948L49.0594 29.4229L49.0624 29.4172L48.1793 28.948ZM49.2953 27.772L49.7946 28.6384L49.7992 28.6358L49.2953 27.772ZM52.4753 27.772L52.992 26.9158V26.9158L52.4753 27.772ZM53.4953 28.864L52.5945 29.2983L54.4953 28.864H53.4953ZM53.4953 25.12V24.12H52.4953V25.12H53.4953ZM54.3353 25.12H55.3353V24.12H54.3353V25.12ZM54.3353 34V35H55.3353V34H54.3353ZM53.4953 34H52.4953V35H53.4953V34ZM53.4953 32.536H54.4953L52.5795 32.1343L53.4953 32.536ZM52.5113 33.664L53.0453 34.5096L53.0558 34.5028L52.5113 33.664ZM49.2833 33.676L48.7731 34.5361L48.7794 34.5398L49.2833 33.676ZM48.1673 32.488L47.2784 32.9463L47.2842 32.9572L48.1673 32.488ZM53.1713 29.332L54.0512 28.8569L53.1713 29.332ZM52.2833 28.408L51.7771 29.2705L51.7852 29.2751L52.2833 28.408ZM49.8113 28.396L50.3034 29.2666L49.8113 28.396ZM48.9353 29.308L48.0554 28.8328L48.052 28.8393L48.9353 29.308ZM48.9353 32.128L48.0444 32.5822L48.0498 32.5927L48.0554 32.6031L48.9353 32.128ZM49.8113 33.052L49.3051 33.9144L49.3121 33.9185L49.3193 33.9226L49.8113 33.052ZM52.2833 33.04L51.7852 32.1729L51.7771 32.1776L52.2833 33.04ZM53.1713 32.116L54.0512 32.5911L53.1713 32.116ZM47.7713 30.712H48.7713C48.7713 30.177 48.8787 29.7576 49.0593 29.4229L48.1793 28.948L47.2993 28.4731C46.9359 29.1464 46.7713 29.903 46.7713 30.712H47.7713ZM48.1793 28.948L49.0624 29.4172C49.2522 29.0599 49.4959 28.8106 49.7946 28.6384L49.2953 27.772L48.796 26.9056C48.1507 27.2774 47.6504 27.8121 47.2962 28.4788L48.1793 28.948ZM49.2953 27.772L49.7992 28.6358C50.1141 28.4521 50.4778 28.352 50.9153 28.352V27.352V26.352C50.1528 26.352 49.4365 26.5319 48.7914 26.9082L49.2953 27.772ZM50.9153 27.352V28.352C51.3211 28.352 51.6605 28.4482 51.9586 28.6282L52.4753 27.772L52.992 26.9158C52.3622 26.5358 51.6615 26.352 50.9153 26.352V27.352ZM52.4753 27.772L51.9586 28.6282C52.2719 28.8172 52.4704 29.0409 52.5945 29.2983L53.4953 28.864L54.3961 28.4297C54.0882 27.7911 53.6067 27.2868 52.992 26.9158L52.4753 27.772ZM53.4953 28.864H54.4953V25.12H53.4953H52.4953V28.864H53.4953ZM53.4953 25.12V26.12H54.3353V25.12V24.12H53.4953V25.12ZM54.3353 25.12H53.3353V34H54.3353H55.3353V25.12H54.3353ZM54.3353 34V33H53.4953V34V35H54.3353V34ZM53.4953 34H54.4953V32.536H53.4953H52.4953V34H53.4953ZM53.4953 32.536L52.5795 32.1343C52.4651 32.3951 52.2747 32.6254 51.9668 32.8252L52.5113 33.664L53.0558 34.5028C53.6599 34.1106 54.1255 33.5889 54.4111 32.9377L53.4953 32.536ZM52.5113 33.664L51.9773 32.8185C51.7029 32.9918 51.3578 33.096 50.9033 33.096V34.096V35.096C51.6808 35.096 52.4077 34.9122 53.0453 34.5095L52.5113 33.664ZM50.9033 34.096V33.096C50.4658 33.096 50.1021 32.9959 49.7872 32.8122L49.2833 33.676L48.7794 34.5398C49.4245 34.9161 50.1408 35.096 50.9033 35.096V34.096ZM49.2833 33.676L49.7935 32.8159C49.4884 32.6349 49.2414 32.3783 49.0504 32.0188L48.1673 32.488L47.2842 32.9572C47.6372 33.6217 48.1343 34.1571 48.7731 34.5361L49.2833 33.676ZM48.1673 32.488L49.0561 32.0297C48.8765 31.6813 48.7713 31.2511 48.7713 30.712H47.7713H46.7713C46.7713 31.5169 46.9302 32.2707 47.2785 32.9463L48.1673 32.488ZM53.4953 30.724H54.4953C54.4953 30.057 54.3579 29.4248 54.0512 28.8569L53.1713 29.332L52.2914 29.8071C52.4167 30.0392 52.4953 30.335 52.4953 30.724H53.4953ZM53.1713 29.332L54.0512 28.8569C53.7513 28.3015 53.3266 27.8541 52.7814 27.5409L52.2833 28.408L51.7852 29.2751C51.992 29.3939 52.1593 29.5625 52.2914 29.8071L53.1713 29.332ZM52.2833 28.408L52.7895 27.5456C52.2602 27.2349 51.676 27.084 51.0593 27.084V28.084V29.084C51.3386 29.084 51.5704 29.1491 51.7771 29.2704L52.2833 28.408ZM51.0593 28.084V27.084C50.4402 27.084 49.8517 27.2245 49.3193 27.5254L49.8113 28.396L50.3034 29.2666C50.5069 29.1515 50.7505 29.084 51.0593 29.084V28.084ZM49.8113 28.396L49.3193 27.5254C48.7749 27.8331 48.3539 28.2802 48.0554 28.8329L48.9353 29.308L49.8152 29.7831C49.9488 29.5358 50.1117 29.3749 50.3034 29.2666L49.8113 28.396ZM48.9353 29.308L48.052 28.8393C47.7519 29.4047 47.6233 30.041 47.6233 30.712H48.6233H49.6233C49.6233 30.295 49.7027 29.9953 49.8187 29.7767L48.9353 29.308ZM48.6233 30.712H47.6233C47.6233 31.379 47.7534 32.0114 48.0444 32.5822L48.9353 32.128L49.8262 31.6738C49.7012 31.4286 49.6233 31.117 49.6233 30.712H48.6233ZM48.9353 32.128L48.0554 32.6031C48.3523 33.153 48.7691 33.5998 49.3051 33.9144L49.8113 33.052L50.3175 32.1896C50.1175 32.0722 49.9503 31.903 49.8152 31.6529L48.9353 32.128ZM49.8113 33.052L49.3193 33.9226C49.8517 34.2235 50.4402 34.364 51.0593 34.364V33.364V32.364C50.7505 32.364 50.5069 32.2965 50.3034 32.1814L49.8113 33.052ZM51.0593 33.364V34.364C51.676 34.364 52.2602 34.2131 52.7895 33.9024L52.2833 33.04L51.7771 32.1776C51.5704 32.2989 51.3386 32.364 51.0593 32.364V33.364ZM52.2833 33.04L52.7814 33.9071C53.3266 33.5939 53.7513 33.1465 54.0512 32.5911L53.1713 32.116L52.2914 31.6409C52.1593 31.8855 51.992 32.0541 51.7852 32.1729L52.2833 33.04ZM53.1713 32.116L54.0512 32.5911C54.3579 32.0232 54.4953 31.391 54.4953 30.724H53.4953H52.4953C52.4953 31.113 52.4167 31.4088 52.2914 31.6409L53.1713 32.116Z" fill="#5D75AA" mask="url(#path-2-outside-1_7_279)"/>
<defs>
<linearGradient id="paint0_linear_7_279" x1="30" y1="56" x2="30" y2="0" gradientUnits="userSpaceOnUse">
<stop stop-color="#06266B"/>
<stop offset="1" stop-color="#495689"/>
</linearGradient>
</defs>
</svg>
