<svg width="62" height="56" viewBox="0 0 62 56" fill="none" xmlns="http://www.w3.org/2000/svg">
<rect x="0.5" y="0.5" width="59" height="55" rx="4.5" fill="url(#paint0_linear_7_146)" stroke="#06266B"/>
<path d="M5.884 29.668C6.356 29.756 6.756 29.996 7.084 30.388C7.412 30.78 7.576 31.236 7.576 31.756C7.576 32.18 7.468 32.564 7.252 32.908C7.044 33.244 6.736 33.512 6.328 33.712C5.92 33.904 5.432 34 4.864 34H1.96V25.612H4.78C5.628 25.612 6.272 25.808 6.712 26.2C7.16 26.592 7.384 27.1 7.384 27.724C7.384 28.244 7.244 28.668 6.964 28.996C6.684 29.316 6.324 29.54 5.884 29.668ZM2.8 29.32H4.756C5.324 29.32 5.76 29.188 6.064 28.924C6.376 28.652 6.532 28.28 6.532 27.808C6.532 27.344 6.376 26.98 6.064 26.716C5.76 26.452 5.312 26.32 4.72 26.32H2.8V29.32ZM4.804 33.292C5.412 33.292 5.884 33.148 6.22 32.86C6.564 32.572 6.736 32.176 6.736 31.672C6.736 31.168 6.556 30.768 6.196 30.472C5.844 30.168 5.368 30.016 4.768 30.016H2.8V33.292H4.804ZM8.73616 30.712C8.73616 30.04 8.86816 29.452 9.13216 28.948C9.40416 28.436 9.77616 28.044 10.2482 27.772C10.7282 27.492 11.2682 27.352 11.8682 27.352C12.4922 27.352 13.0282 27.496 13.4762 27.784C13.9322 28.072 14.2602 28.44 14.4602 28.888V27.448H15.3002V34H14.4602V32.548C14.2522 32.996 13.9202 33.368 13.4642 33.664C13.0162 33.952 12.4802 34.096 11.8562 34.096C11.2642 34.096 10.7282 33.956 10.2482 33.676C9.77616 33.396 9.40416 33 9.13216 32.488C8.86816 31.976 8.73616 31.384 8.73616 30.712ZM14.4602 30.724C14.4602 30.196 14.3522 29.732 14.1362 29.332C13.9202 28.932 13.6242 28.624 13.2482 28.408C12.8802 28.192 12.4722 28.084 12.0242 28.084C11.5602 28.084 11.1442 28.188 10.7762 28.396C10.4082 28.604 10.1162 28.908 9.90016 29.308C9.69216 29.7 9.58816 30.168 9.58816 30.712C9.58816 31.248 9.69216 31.72 9.90016 32.128C10.1162 32.528 10.4082 32.836 10.7762 33.052C11.1442 33.26 11.5602 33.364 12.0242 33.364C12.4722 33.364 12.8802 33.256 13.2482 33.04C13.6242 32.824 13.9202 32.516 14.1362 32.116C14.3522 31.716 14.4602 31.252 14.4602 30.724ZM16.8338 30.724C16.8338 30.044 16.9698 29.452 17.2418 28.948C17.5138 28.436 17.8898 28.044 18.3698 27.772C18.8498 27.492 19.3978 27.352 20.0138 27.352C20.8218 27.352 21.4858 27.552 22.0058 27.952C22.5338 28.352 22.8738 28.896 23.0258 29.584H22.1258C22.0138 29.112 21.7698 28.744 21.3938 28.48C21.0258 28.208 20.5658 28.072 20.0138 28.072C19.5738 28.072 19.1778 28.172 18.8258 28.372C18.4738 28.572 18.1938 28.872 17.9858 29.272C17.7858 29.664 17.6858 30.148 17.6858 30.724C17.6858 31.3 17.7858 31.788 17.9858 32.188C18.1938 32.588 18.4738 32.888 18.8258 33.088C19.1778 33.288 19.5738 33.388 20.0138 33.388C20.5658 33.388 21.0258 33.256 21.3938 32.992C21.7698 32.72 22.0138 32.344 22.1258 31.864H23.0258C22.8738 32.536 22.5338 33.076 22.0058 33.484C21.4778 33.892 20.8138 34.096 20.0138 34.096C19.3978 34.096 18.8498 33.96 18.3698 33.688C17.8898 33.408 17.5138 33.016 17.2418 32.512C16.9698 32 16.8338 31.404 16.8338 30.724ZM28.1172 34L25.4172 31.06V34H24.5772V25.12H25.4172V30.376L28.0572 27.448H29.2332L26.1252 30.712L29.2572 34H28.1172ZM38.9828 27.448L36.9308 34H36.0908L34.2788 28.504L32.4668 34H31.6148L29.5628 27.448H30.4148L32.0468 33.148L33.8828 27.448H34.7228L36.5348 33.16L38.1548 27.448H38.9828ZM39.744 30.712C39.744 30.04 39.876 29.452 40.14 28.948C40.412 28.436 40.784 28.044 41.256 27.772C41.736 27.492 42.276 27.352 42.876 27.352C43.5 27.352 44.036 27.496 44.484 27.784C44.94 28.072 45.268 28.44 45.468 28.888V27.448H46.308V34H45.468V32.548C45.26 32.996 44.928 33.368 44.472 33.664C44.024 33.952 43.488 34.096 42.864 34.096C42.272 34.096 41.736 33.956 41.256 33.676C40.784 33.396 40.412 33 40.14 32.488C39.876 31.976 39.744 31.384 39.744 30.712ZM45.468 30.724C45.468 30.196 45.36 29.732 45.144 29.332C44.928 28.932 44.632 28.624 44.256 28.408C43.888 28.192 43.48 28.084 43.032 28.084C42.568 28.084 42.152 28.188 41.784 28.396C41.416 28.604 41.124 28.908 40.908 29.308C40.7 29.7 40.596 30.168 40.596 30.712C40.596 31.248 40.7 31.72 40.908 32.128C41.124 32.528 41.416 32.836 41.784 33.052C42.152 33.26 42.568 33.364 43.032 33.364C43.48 33.364 43.888 33.256 44.256 33.04C44.632 32.824 44.928 32.516 45.144 32.116C45.36 31.716 45.468 31.252 45.468 30.724ZM49.0656 28.612C49.2496 28.204 49.5296 27.888 49.9056 27.664C50.2896 27.44 50.7576 27.328 51.3096 27.328V28.204H51.0816C50.4736 28.204 49.9856 28.368 49.6176 28.696C49.2496 29.024 49.0656 29.572 49.0656 30.34V34H48.2256V27.448H49.0656V28.612ZM52.1893 30.712C52.1893 30.04 52.3253 29.452 52.5973 28.948C52.8693 28.436 53.2413 28.044 53.7133 27.772C54.1933 27.492 54.7333 27.352 55.3333 27.352C55.9093 27.352 56.4293 27.492 56.8933 27.772C57.3573 28.052 57.6973 28.416 57.9133 28.864V25.12H58.7533V34H57.9133V32.536C57.7133 32.992 57.3853 33.368 56.9293 33.664C56.4733 33.952 55.9373 34.096 55.3213 34.096C54.7213 34.096 54.1813 33.956 53.7013 33.676C53.2293 33.396 52.8573 33 52.5853 32.488C52.3213 31.976 52.1893 31.384 52.1893 30.712ZM57.9133 30.724C57.9133 30.196 57.8053 29.732 57.5893 29.332C57.3733 28.932 57.0773 28.624 56.7013 28.408C56.3333 28.192 55.9253 28.084 55.4773 28.084C55.0133 28.084 54.5973 28.188 54.2293 28.396C53.8613 28.604 53.5693 28.908 53.3533 29.308C53.1453 29.7 53.0413 30.168 53.0413 30.712C53.0413 31.248 53.1453 31.72 53.3533 32.128C53.5693 32.528 53.8613 32.836 54.2293 33.052C54.5973 33.26 55.0133 33.364 55.4773 33.364C55.9253 33.364 56.3333 33.256 56.7013 33.04C57.0773 32.824 57.3733 32.516 57.5893 32.116C57.8053 31.716 57.9133 31.252 57.9133 30.724Z" fill="black"/>
<defs>
<linearGradient id="paint0_linear_7_146" x1="30" y1="56" x2="30" y2="0" gradientUnits="userSpaceOnUse">
<stop stop-color="#06266B"/>
<stop offset="1" stop-color="#D2E0FF"/>
</linearGradient>
</defs>
</svg>
