<svg width="44" height="44" viewBox="0 0 44 44" fill="none" xmlns="http://www.w3.org/2000/svg">
<path d="M36.96 22C36.96 30.272 30.272 36.96 22 36.96C13.728 36.96 7.04 30.272 7.04 22C7.04 13.728 13.728 7.04 22 7.04C30.272 7.04 36.96 13.728 36.96 22ZM8.8 22C8.8 29.304 14.696 35.2 22 35.2C29.304 35.2 35.2 29.304 35.2 22C35.2 14.696 29.304 8.8 22 8.8C14.696 8.8 8.8 14.696 8.8 22Z" fill="#06266B"/>
<path d="M23.496 14.696L16.192 22L23.496 29.304L22.264 30.536L13.728 22L22.264 13.464L23.496 14.696Z" fill="#06266B"/>
<path d="M14.96 22.88V21.12H29.92V22.88H14.96Z" fill="#06266B"/>
</svg>
